<?xml version="1.0" encoding="utf-8"?>
<!-- Generator: Adobe Illustrator 19.0.0, SVG Export Plug-In . SVG Version: 6.00 Build 0)  -->
<svg version="1.1" id="Layer_1" xmlns="http://www.w3.org/2000/svg" xmlns:xlink="http://www.w3.org/1999/xlink" x="0px" y="0px"
	 viewBox="-447 372 105 157" style="enable-background:new -447 372 105 157;" xml:space="preserve">
<style type="text/css">
	.st0{fill:#FCFCFC;}
	.st1{fill:#C4C4C4;}
	.st2{fill:#0D4B9E;}
	.st3{fill:#E8E8E8;}
	.st4{fill:#141414;}
	.st5{fill:#B71515;}
	.st6{fill:#C1C1C5;}
	.st7{fill:#E3B5A2;}
	.st8{fill:#919193;}
	.st9{fill:#DEA795;}
	.st10{fill:#929294;}
	.st11{fill:#929193;}
	.st12{fill:#C58E7C;}
	.st13{fill:#C7907E;}
	.st14{fill:#474344;}
	.st15{fill:#464344;}
	.st16{fill:#C78F7D;}
	.st17{fill:#C8907E;}
	.st18{fill:#251B18;}
	.st19{fill:#C99280;}
	.st20{fill:#CA9381;}
	.st21{fill:#C2C0C3;}
	.st22{fill:#C99381;}
	.st23{fill:#C8917F;}
	.st24{fill:#CB9482;}
	.st25{fill:#C0BDBF;}
</style>
<g>
	<g>
		<polygon class="st0" points="-351.5,528.3 -437.3,528.3 -442,376.9 -350.2,376.9 		"/>
		<polygon class="st1" points="-352.2,373.3 -439.4,373.3 -442.2,376.9 -350,376.9 		"/>
		<polygon class="st2" points="-356.2,493.6 -433.5,493.6 -436.2,387.4 -356.2,387.4 		"/>
		<rect x="-429.7" y="507.3" class="st3" width="70.8" height="16.1"/>
		<rect x="-417.8" y="511" class="st4" width="48.4" height="8.1"/>
	</g>
	<path class="st5" d="M-350.5,519.7h-11.6c-1.4,0-2.5-1.1-2.5-2.5v-3c0-1.4,1.1-2.5,2.5-2.5h11.6c1.4,0,2.5,1.1,2.5,2.5v3
		C-348,518.5-349.1,519.7-350.5,519.7z"/>
	<path class="st5" d="M-427.1,519.2h-11.8c-1.4,0-2.5-1.1-2.5-2.5v-3c0-1.4,1.1-2.5,2.5-2.5h11.8c1.4,0,2.5,1.1,2.5,2.5v3
		C-424.6,518.1-425.7,519.2-427.1,519.2z"/>
	<g>
		<path class="st6" d="M-397.5,396.3c0.9,0,1.7,0,2.6,0c0.3,0,0.6,0,0.9,0c0.2,0,0.3,0,0.5,0c0.2,0.1,0.4,0.3,0.6,0.3
			c2.3,0.2,4.7,0.3,6.9,1.3c0.3,0.1,0.7,0.1,1,0.1c3.8-0.6,7.2,0.7,10.1,3c2.5,1.9,4.4,4.4,6.6,6.7c0,0,0,0,0,0.1
			c0.7,1.5,1.4,2.9,2.2,4.4c0.2,0.3,0.3,0.6,0.5,0.9c0.6,0.8,1.3,1.6,1.7,2.5c0.8,1.7,0.9,3.6,0.8,5.4c0,0.3,0,0.7,0.1,1
			c0.6,1.2,0.8,2.4,0.8,3.7c0,0.3,0.1,0.6,0.1,0.9c0,0.2,0,0.3,0,0.5c-0.1,0.2-0.3,0.3-0.3,0.5c-0.2,0.7-0.3,1.5-0.5,2.2
			c-0.2,0.9-0.7,1.5-1.7,1.7c-0.5,0.1-0.9,0.3-1.3,0.5c-0.9,0.3-1.4,1-1.7,1.8c-0.8,2.4-1.5,4.7-2.2,7.1c-0.1,0.3-0.4,0.5-0.6,0.8
			c-1.1-0.1-1.1-0.1-1.1-1.2c0-1-0.1-2-0.1-3c1.3,0,2.1-0.7,2.4-1.9c0.3-1.1,0.3-2.3,0.5-3.4c0.1-0.7-0.2-1.1-0.9-1.3
			c-0.7-0.2-1.3-0.6-2-0.9c0-0.1,0-0.1,0-0.2c0.7-0.1,1.5-0.2,2.3-0.3c-0.6-0.3-1.1-0.5-1.6-0.7c-2.3-1.5-3.3-3.8-4.3-6.2
			c-0.1-0.8-0.2-1.7-0.3-2.5c-0.5-2.4-0.9-4.9-2.3-7c0-1.8,0.4-3.4,2-4.7c-0.3,0-0.4-0.1-0.5,0c-2.6,0.5-5.1,1.1-7.4,2.7
			c-1,0.7-2.3,1.1-3.7,0.9c0.3-1.6,0.6-3.2,0.9-4.7c-0.1,0-0.1-0.1-0.2-0.1c-1.2,1.3-2.4,2.6-3.6,4c0-0.3,0-0.4-0.1-0.6
			c-0.1-1.4,0.1-2.8,0.6-4.1c0,0,0,0,0.1,0c0,0,0,0,0,0c0,0,0,0,0,0.1c-1.6,1.2-2.9,2.5-3.9,4.2c-0.1,0.1-0.2,0.3-0.3,0.5
			c-0.4-2.3-0.3-4.6-1.8-6.4c-0.1,0-0.1,0-0.2,0.1c0.2,1.6,0.3,3.2,0.5,4.8c-0.1,0-0.1,0-0.2,0c-0.7-1.4-1.4-2.7-2-4.1
			c-0.1,0-0.1,0-0.2,0c-0.4,1.2-0.8,2.4-1.1,3.7c-1.1-1.8-1.7-3.5-0.6-5.4c0,0,0,0,0,0l0,0c-1.9,0.7-3.4,1.9-4.4,3.6
			c-0.6,0.9-0.6,1.9-0.1,2.9c0.3,0.5,0.7,0.9,1,1.3c-0.3,0-0.6,0-0.9,0.1c-1.8,0.6-3.6,1.2-5.3,2c-1.5,0.6-2.6,1.7-2.9,3.4
			c-0.1,0.6-0.1,1.3-0.1,2c-0.1,0.1-0.2,0.2-0.3,0.4c-1,1.8-1.9,3.6-4,4.3c0.3,0.4,0.8,0.7,0.9,1c0.1,0.9-0.2,1.8-1.1,2.3
			c-1.3,0.8-2.2,2.9-1.7,4.3c0.5,1.7,1.3,3.3,1.9,4.9c0.1,0.9,0.2,1.8,0.3,2.7c0.1,0.9,0,1-0.8,1c-0.3,0-0.6,0-0.8,0
			c-0.5,0-0.8-0.2-0.8-0.7c-0.1-0.8-0.1-1.6-0.2-2.4c-0.2-1.4-0.1-3-1.2-4.2c-0.7-0.7-1.6-1.2-2.4-1.7c-0.9-1.2-1.6-2.6-1.9-4.2
			c0-0.9,0-1.8,0-2.8c0.1-0.4,0.2-0.8,0.3-1.2c0.4-1.3,0.8-2.5,1.2-3.9c0.4,0.4,0.6,0.6,1,1c0.2-1.1,0.4-1.9,0.4-2.8
			c0-2,0.6-3.7,1.9-5.3c1-1.3,1.6-2.8,2-4.4c0.9-3.8,2.9-6.6,6.9-7.7c1.5-0.4,3-1.2,4.1-2.3c0.6-0.5,1.2-0.7,1.9-0.6
			C-402.2,397.4-399.8,397.1-397.5,396.3z"/>
		<path class="st7" d="M-370.8,448.7c-0.2,1.4-0.4,2.8-0.5,4.3c-0.2,3-1.8,5.3-3.5,7.5c-2.2,2.7-4.8,4.9-7.3,7.2
			c-1.6,1.4-3.3,2.8-5.3,3.6c-4.9,1.9-9.7,1.6-14.5-0.5c-2.3-1-4.3-2.4-6.1-4.2c-2.4-2.3-4.6-4.6-6.4-7.4c-1.6-2.4-2.4-5.1-2.8-8
			c-0.1-1-0.3-2-0.5-3c0-2.7,0.1-5.4,0.1-8.1c0.3,0,0.6,0,0.8,0c0.9,0,0.9-0.1,0.8-1c-0.1-0.9-0.2-1.8-0.3-2.7c0-0.3,0-0.6,0-0.9
			c-0.4-2.2,0.3-4,1.7-5.7c0.5-0.6,0.7-1.4,1-2.1c0.2-0.6,0.4-1.3,0.7-1.8c1.1-2.1,1.8-4.3,1-6.6c0-0.7,0-1.3,0.1-2
			c0.3-1.7,1.5-2.8,2.9-3.4c1.7-0.7,3.5-1.3,5.3-2c0.3-0.1,0.6-0.1,0.9-0.1c0.1,0,0.2,0,0.3,0c1.1,0.3,2.2,0.5,3.2,0.8c0,0,0,0,0,0
			c0.1,0.1,0.1,0.1,0.2,0.2l0,0c0.1,0.1,0.1,0.1,0.2,0.2l0,0c0,0.1,0.1,0.1,0.1,0.2c0,0.4,0,0.8,0,1.2c-1.1,0.8-2.2,0-3.4-0.2
			c0.2,1.2,0.9,1.8,2,1.9c1.2-0.1,2.3-0.4,3-1.3c0.8,0.3,1.4,0.7,2.1,0.9c1.7,0.5,3.4,0.4,5.2,0.1c1-0.2,1.8-0.6,2.5-1.4
			c0.3-0.4,0.7-0.6,1.1-0.8c2.2-1.1,4.5-1.2,6.9-1.2c0.7,0,1.3,0.5,2,0.8c1.4,2.1,1.9,4.6,2.3,7c0.2,0.8,0.2,1.7,0.3,2.5
			c0,0.1-0.1,0.2-0.1,0.3c0,1.8,0,3.5,0,5.3c0,1,0.5,1.9,1.4,2.4c0.7,0.4,1.1,0.9,1.2,1.6c0.4,1.8,0.6,3.6,1,5.4c0,1,0.1,2,0.1,3
			c0,1.1,0,1.1,1.1,1.2C-370.4,444-370.6,446.4-370.8,448.7z M-379.3,438.6c0.1-0.1,0.1-0.1,0.2-0.2l0,0c0,0,0,0,0,0
			C-379.2,438.5-379.3,438.6-379.3,438.6c-0.1,0-0.1,0.1-0.2,0.1c-2,1.1-4.1,1.6-6.3,1.4c-0.2,0-0.4,0-0.5,0
			c1.6,0.6,3.2,0.8,4.7,0.1c0.8-0.3,1.8-0.6,2.2-1.6C-379.4,438.7-379.4,438.7-379.3,438.6z M-399.3,436.8L-399.3,436.8
			L-399.3,436.8c0.7,0,1.4,0,1.5,0.9c0.2,1.1,0.2,2.2,0.3,3.3c0.1,0.8,0.2,1.5,0.2,2.3c0.3-2.1,0.4-4.2,0.5-6.4c0-0.9,0.4-1.5,1-2
			c0.2-0.1,0.3-0.3,0.4-0.4c0-0.1-0.1-0.1-0.1-0.2c-0.5,0.2-1.1,0.3-1.6,0.6c-1.1,0.5-1.1,0.5-1.6-0.6c1-1.3,0.7-2.1-0.8-2.7
			c-0.1-0.1-0.3-0.1-0.4-0.2c-2.2-0.6-4.4-0.8-6.7-0.4c-2.4,0.4-4.2,1.7-5.1,4c0.5,0.5,0.9,0.9,1.3,1.4c0.5,0.6,1.1,0.5,1.6,0
			c1.1-0.3,2.2-0.6,3.4-0.9c-0.3,0.9-0.4,1.6,0.4,2.2c0.5,0.4,1.1,0.4,1.6,0c0.7-0.5,0.7-1.1,0.5-2.1c1.2,0.4,2.2,0.8,3.2,1.2l0,0
			C-399.5,436.7-399.4,436.7-399.3,436.8z M-401.5,446.2c-0.1,0-0.2,0.1-0.3,0.1c-0.5,0.3-1,0.6-1.5,1c-1.5,1.2-3.1,2.4-4.6,3.7
			c-0.3,0.2-0.5,0.7-0.4,1c0.3,0.9,0.7,1.7,1.1,2.6c0,0,0,0.1,0,0c0.1,0.1,0.1,0.1,0,0c-0.1-0.5-0.1-0.9-0.2-1.4
			c-0.2-0.9-0.1-1.6,0.6-2.2c1.2-1,2.4-2.1,3.6-3.1c0.5-0.5,1-1,1.4-1.4C-401.7,446.3-401.6,446.2-401.5,446.2
			C-401.5,446.2-401.5,446.1-401.5,446.2C-401.5,446.1-401.5,446.2-401.5,446.2z M-410,437.9L-410,437.9L-410,437.9
			c0.1,0.1,0.2,0.2,0.3,0.3c0.2,0.2,0.3,0.5,0.6,0.7c2.1,1.5,4.3,1.4,6.6,0.6c-1,0-2,0.1-3-0.1c-1.4-0.3-2.8-0.8-4.1-1.3
			C-409.7,438.1-409.9,438-410,437.9z M-413.5,441.2c0.9-0.9,2-1.5,3.3-1.8C-411.9,439.3-413.2,440-413.5,441.2
			C-413.5,441.3-413.5,441.3-413.5,441.2C-413.5,441.3-413.5,441.3-413.5,441.2z M-375.8,441.9c0.1,0.1,0.1,0.1,0.2,0.2c0,0,0,0,0,0
			C-375.6,442-375.7,441.9-375.8,441.9c-0.4-1.4-2.3-2.3-3.3-1.6C-377.7,440.3-376.7,441-375.8,441.9z M-414.4,434.9
			c0,0-0.1-0.1-0.1-0.1C-414.5,434.8-414.5,434.9-414.4,434.9c0.3,1.3,1.6,2.2,2.8,1.9C-412.5,436.2-413.5,435.6-414.4,434.9z
			 M-415,439.7c1.4-0.4,2.7-0.9,4.3-1.4c-0.7,0-1.2-0.1-1.7,0C-413.5,438.5-414.4,438.7-415,439.7
			C-415.1,439.7-415.1,439.7-415,439.7C-415.1,439.7-415,439.7-415,439.7z M-374.1,440.5c-0.6-1.1-2.9-1.8-4.1-1.4
			C-376.8,439.5-375.5,440-374.1,440.5z M-398.9,438.3c-0.5,0.3-0.9,0.7-1.4,1c-2.4,1.2-5.1,1.3-7.7,1.1c-0.3,0-0.6,0-0.8-0.1
			c1.1,0.4,2.2,0.6,3.3,0.7c1.9,0.2,3.9,0.2,5.5-1.1C-399.5,439.6-399.2,438.9-398.9,438.3c0,0,0-0.1,0-0.1
			C-398.8,438.2-398.9,438.3-398.9,438.3z M-400.3,457.6c1.3,2.1,2.9,3.8,5.6,3.8c2.7,0.1,4.4-1.5,6.1-3.3c-0.1-0.1-0.2-0.2-0.2-0.2
			c-0.2,0-0.3,0-0.5,0.1c-2.3,0.4-4.6,0.5-6.9,0.2C-397.5,458-398.9,457.8-400.3,457.6z M-387.3,466.2c-0.2,0.2-0.5,0.3-0.7,0.5
			c-2,1.5-4.2,2.4-6.7,2.5c-3.4,0.1-6.3-1.4-8.9-3.4c-0.1-0.1-0.3-0.2-0.4-0.3c0,0.4,0.1,0.7,0.3,0.9c0.8,0.9,1.6,2,2.6,2.7
			c3.6,2.6,9.2,2.7,12.6-0.9C-388.1,467.6-387.8,466.9-387.3,466.2C-387.3,466.2-387.3,466.2-387.3,466.2
			C-387.3,466.2-387.3,466.2-387.3,466.2z M-377.8,435.7c0-0.2,0-0.5-0.1-0.7c-0.9-1.6-2.3-2.6-4-3.1c-1.7-0.5-3.4-0.4-5.1-0.2
			c-1.1,0.1-2.2,0.4-3.2,0.7c-1.1,0.4-1.3,1.2-0.6,2.3c0.1,0.1,0.2,0.3,0.3,0.4c-0.3,0-0.6,0-0.8,0c-0.8-0.3-1.5-0.6-2.2-0.9
			c1.4,1.8,1.4,1.8,1.5,4.2c0.1,1.7,0.2,3.4,0.3,5c0.2-1.2,0.4-2.4,0.4-3.6c0.1-1.9,0.2-2,1.6-2.4c0.2,0,0.4,0,0.6-0.1
			c0.9-0.3,1.8-0.6,2.8-1c-0.4,1-0.3,1.7,0.4,2.1c0.4,0.2,1.1,0.2,1.5,0.1c0.8-0.4,0.8-1.2,0.5-2.3c1.3,0.5,2.4,0.8,3.5,1.2
			c0.3,0.1,0.8,0.3,0.9,0.2C-378.8,436.9-378.3,436.3-377.8,435.7z M-383.5,454.3c-0.7-0.6-1.4-0.6-2.3-0.4c-2.7,0.8-5.5,1.5-8.4,1
			c-2.4-0.4-4.9-0.7-7.3-1.1c-1.2-0.2-2.3-0.8-3.4-1.1c-0.4-0.1-0.8,0-1.2,0.1c-0.2,0.1-0.2,0.4-0.3,0.6c0.2,0,0.4,0.1,0.6,0.1
			c0.7,0.1,1.5-0.1,2,0.2c4.2,2.6,8.8,3,13.6,2.2C-388,455.7-385.8,454.9-383.5,454.3z M-389,446.5c0,0.3,0.1,0.6,0.1,0.9
			c0.1,1.3-0.3,1.9-1.6,2.1c-1,0.1-1.7,0.6-2.4,1.1c-0.3,0.3-0.7,0.6-1.1,0.8c-0.9,0.5-1.8,0.4-2.6-0.3c-0.3-0.3-0.6-0.7-0.9-0.9
			c-0.7-0.5-1.3-1.1-2.1-1.4c-0.6-0.2-0.9-0.5-0.9-1.1c0-0.7,0.1-1.4,0.1-2.1c-0.3,0.4-0.5,0.9-0.6,1.4c-0.4,1.3,0.1,2.2,1.3,2.9
			c0.7,0.4,1.3,1,2,1.5c0.5,0.4,1,1,1.5,1.3c0.9,0.5,1.8,0,2.5-0.7c0.7-0.7,1.5-1.1,2.6-1.4C-389,450.2-387.6,448.9-389,446.5z
			 M-380.8,441.2c-3.3-0.2-6.7,0.4-9.6-2.1c0.3,1.1,1.1,1.8,2.1,2.2C-385.7,442.1-383.3,441.7-380.8,441.2z M-382.6,454.8
			c1.1-0.4,1.5-1.8,0.6-2.7c-1.7-1.7-3.4-3.4-5.1-5.1c0,0-0.1,0-0.2,0c0.1,0.1,0.1,0.2,0.2,0.3c1,1.1,2,2.2,3,3.3
			C-383,451.8-382.1,453-382.6,454.8C-382.6,454.8-382.6,454.8-382.6,454.8z M-377.8,437.6c1.6,0.1,2.9-0.7,3-2
			C-375.8,436.3-376.8,436.9-377.8,437.6z M-374.6,435.3L-374.6,435.3L-374.6,435.3L-374.6,435.3z"/>
		<path class="st8" d="M-402.6,411.7c-0.1,0-0.2,0-0.3,0c-0.3-0.4-0.7-0.9-1-1.3c-0.5-1-0.5-2,0.1-2.9c1.1-1.7,2.5-2.9,4.4-3.6l0,0
			c-1.1,1.9-0.4,3.7,0.6,5.4c0.4-1.2,0.8-2.4,1.1-3.7c0.1,0,0.1,0,0.2,0c0.7,1.4,1.4,2.7,2,4.1c0.1,0,0.1,0,0.2,0
			c-0.2-1.6-0.3-3.2-0.5-4.8c0.1,0,0.1,0,0.2-0.1c1.5,1.8,1.5,4.1,1.8,6.4c0.1-0.2,0.2-0.4,0.3-0.5c1-1.6,2.4-3,3.9-4.2l0,0
			c-0.5,1.3-0.8,2.7-0.6,4.1c0,0.1,0,0.3,0.1,0.6c1.3-1.4,2.5-2.7,3.6-4c0.1,0,0.1,0.1,0.2,0.1c-0.3,1.5-0.6,3.1-0.9,4.7
			c1.4,0.2,2.7-0.2,3.7-0.9c2.2-1.6,4.8-2.2,7.4-2.7c0.1,0,0.2,0,0.5,0c-1.6,1.2-2.1,2.9-2,4.7c-0.7-0.3-1.3-0.8-2-0.8
			c-2.4-0.1-4.7,0.1-6.9,1.2c-0.4,0.2-0.8,0.5-1.1,0.8c-0.6,0.8-1.5,1.2-2.5,1.4c-1.7,0.3-3.5,0.4-5.2-0.1c-0.7-0.2-1.3-0.6-2.1-0.9
			c-0.7,0.9-1.8,1.2-3,1.3c0.5-0.5,1.4-0.8,1.4-1.7c0-0.4,0-0.8,0-1.2c0-0.1-0.1-0.1-0.1-0.2c0,0,0,0,0,0c-0.1-0.1-0.1-0.1-0.2-0.2
			c0,0,0,0,0,0c-0.1-0.1-0.1-0.1-0.2-0.2c0,0,0,0,0,0C-399.9,411.7-401.4,411.4-402.6,411.7z"/>
		<path class="st9" d="M-417.8,440.1c0,2.7-0.1,5.4-0.1,8.1c-2.1,0.3-2.3,0.3-2.8-1.8c-0.4-1.4-0.6-2.9-0.7-4.4
			c-0.1-1.6-0.2-3.1-0.9-4.5c-1-2.1-0.8-4.2-0.2-6.4c0.8,0.6,1.7,1.1,2.4,1.7c1.2,1.1,1,2.7,1.2,4.2c0.1,0.8,0.2,1.6,0.2,2.4
			C-418.6,439.9-418.3,440.1-417.8,440.1z"/>
		<path class="st9" d="M-370.8,448.7c0.2-2.3,0.4-4.6,0.6-6.9c0.2-0.3,0.5-0.5,0.6-0.8c0.8-2.4,1.4-4.7,2.2-7.1
			c0.3-0.9,0.8-1.5,1.7-1.8c0.7,2.2,0.8,4.3-0.2,6.4c-0.7,1.3-0.7,2.8-0.8,4.3c-0.1,1.6-0.4,3.3-0.8,4.9c-0.5,1.9-1.4,2.1-3,1.1
			C-370.7,448.8-370.7,448.7-370.8,448.7z"/>
		<path class="st10" d="M-371.4,437.5c-0.3-1.8-0.6-3.6-1-5.4c-0.1-0.7-0.5-1.2-1.2-1.6c-0.9-0.5-1.4-1.4-1.4-2.4c0-1.8,0-3.5,0-5.3
			c0-0.1,0.1-0.2,0.1-0.3c1,2.4,2,4.7,4.3,6.2c0.4,0.3,0.9,0.5,1.6,0.7c-0.9,0.1-1.6,0.2-2.3,0.3c0,0.1,0,0.1,0,0.2
			c0.7,0.3,1.3,0.7,2,0.9c0.7,0.2,1,0.6,0.9,1.3c-0.2,1.1-0.2,2.3-0.5,3.4C-369.3,436.8-370.2,437.5-371.4,437.5z"/>
		<path class="st11" d="M-412.1,419.1c0.8,2.4,0.1,4.5-1,6.6c-0.3,0.6-0.4,1.2-0.7,1.8c-0.3,0.7-0.5,1.5-1,2.1
			c-1.4,1.7-2.1,3.5-1.7,5.7c0.1,0.3,0,0.6,0,0.9c-0.7-1.6-1.4-3.3-1.9-4.9c-0.5-1.4,0.5-3.5,1.7-4.3c0.9-0.5,1.1-1.4,1.1-2.3
			c0-0.3-0.5-0.7-0.9-1c2.1-0.7,3.1-2.5,4-4.3C-412.3,419.3-412.2,419.2-412.1,419.1z"/>
		<polygon class="st8" points="-399.3,403.8 -399.3,403.8 -399.3,403.8 		"/>
		<path class="st8" d="M-389.3,406.4C-389.3,406.4-389.3,406.4-389.3,406.4C-389.3,406.4-389.3,406.4-389.3,406.4
			C-389.3,406.4-389.3,406.4-389.3,406.4C-389.3,406.5-389.3,406.4-389.3,406.4z"/>
		<path class="st12" d="M-398.6,434.2c0.5,1.1,0.6,1.1,1.6,0.6c0.5-0.2,1.1-0.4,1.6-0.6c0,0.1,0.1,0.1,0.1,0.2
			c-0.1,0.1-0.3,0.3-0.4,0.4c-0.7,0.5-1,1.2-1,2c-0.1,2.1-0.2,4.2-0.5,6.4c-0.1-0.8-0.2-1.5-0.2-2.3c-0.1-1.1-0.2-2.2-0.3-3.3
			c-0.1-0.8-0.8-0.9-1.5-0.9l0.1,0l0,0c-0.1-0.1-0.1-0.1-0.2-0.2c-0.1,0-0.2,0-0.3,0c0,0,0,0,0,0c0-0.1,0-0.2-0.1-0.3
			c-2.9-2.7-6.2-2.3-9.1-0.2c0,0,0,0.1,0.1,0.2c-0.5,0.5-1,0.6-1.6,0c-0.4-0.5-0.9-0.9-1.3-1.4c1.3-0.5,2.6-1,3.8-1.6
			c2.9-1.2,5.7-1,8.4,0.6C-399.2,434.2-398.9,434.2-398.6,434.2z"/>
		<path class="st12" d="M-389.8,437.2c-1.4,0.4-1.5,0.6-1.6,2.4c-0.1,1.2-0.2,2.4-0.4,3.6c-0.1-1.7-0.3-3.4-0.3-5
			c-0.1-2.4,0-2.4-1.5-4.2c0.7,0.3,1.5,0.6,2.2,0.9c0.2,0.1,0.5,0,0.8,0c0.3-0.2,0.7-0.3,1-0.5c1.5-0.8,3-1.4,4.7-1.3
			c2.5,0.2,4.8,1.2,7.1,2.4c-0.6,0.6-1.1,1.2-1.7,1.7c-0.2,0.1-0.6-0.1-0.9-0.2c-0.1-0.2-0.1-0.4-0.3-0.5c-1.4-1-3-1.6-4.7-1.5
			C-387.1,435.3-388.5,436.2-389.8,437.2z"/>
		<path class="st13" d="M-387.3,466.2c-0.4,0.7-0.8,1.4-1.4,2c-3.3,3.6-9,3.5-12.6,0.9c-1-0.7-1.7-1.8-2.6-2.7
			c-0.2-0.2-0.3-0.5-0.3-0.9c0.1,0.1,0.3,0.2,0.4,0.3c2.6,2,5.5,3.5,8.9,3.4c2.5-0.1,4.7-1,6.7-2.5
			C-387.8,466.5-387.6,466.3-387.3,466.2C-387.3,466.2-387.3,466.2-387.3,466.2z"/>
		<path class="st13" d="M-383.5,454.3c-2.3,0.6-4.5,1.4-6.8,1.8c-4.7,0.8-9.3,0.4-13.6-2.2c-0.5-0.3-1.3-0.2-2-0.2
			c-0.2,0-0.4-0.1-0.6-0.1c0.1-0.2,0.2-0.6,0.3-0.6c0.4-0.1,0.8-0.2,1.2-0.1c1.2,0.3,2.3,0.9,3.4,1.1c2.4,0.5,4.9,0.7,7.3,1.1
			c2.9,0.5,5.6-0.2,8.4-1C-384.9,453.7-384.1,453.7-383.5,454.3z"/>
		<path class="st14" d="M-398.6,434.2c-0.3-0.1-0.5-0.1-0.8-0.2c-2.7-1.6-5.5-1.8-8.4-0.6c-1.3,0.5-2.5,1-3.8,1.6
			c0.9-2.3,2.8-3.6,5.1-4c2.2-0.4,4.5-0.1,6.7,0.4c0.1,0,0.3,0.1,0.4,0.2C-397.9,432.2-397.7,432.9-398.6,434.2z"/>
		<path class="st15" d="M-377.8,435.7c-2.2-1.2-4.5-2.1-7.1-2.4c-1.7-0.2-3.2,0.5-4.7,1.3c-0.3,0.2-0.7,0.3-1,0.5
			c-0.1-0.1-0.2-0.2-0.3-0.4c-0.7-1-0.5-1.8,0.6-2.3c1-0.4,2.1-0.6,3.2-0.7c1.7-0.2,3.4-0.3,5.1,0.2c1.7,0.5,3.1,1.6,4,3.1
			C-377.7,435.2-377.8,435.4-377.8,435.7z"/>
		<path class="st16" d="M-400.3,457.6c1.4,0.2,2.8,0.4,4.2,0.6c2.3,0.3,4.6,0.2,6.9-0.2c0.1,0,0.3,0,0.5-0.1c0,0,0.1,0.1,0.2,0.2
			c-1.7,1.8-3.4,3.4-6.1,3.3C-397.3,461.3-398.9,459.6-400.3,457.6L-400.3,457.6z"/>
		<path class="st17" d="M-389,446.5c1.4,2.4,0,3.6-1.9,4.2c-1,0.3-1.8,0.7-2.6,1.4c-0.7,0.7-1.5,1.2-2.5,0.7c-0.6-0.3-1-0.9-1.5-1.3
			c-0.6-0.5-1.2-1.1-2-1.5c-1.1-0.6-1.6-1.6-1.3-2.9c0.1-0.5,0.3-0.9,0.6-1.4c0,0.7-0.1,1.4-0.1,2.1c0,0.6,0.2,0.9,0.9,1.1
			c0.8,0.3,1.4,0.9,2.1,1.4c0.3,0.3,0.6,0.6,0.9,0.9c0.7,0.7,1.7,0.8,2.6,0.3c0.4-0.2,0.7-0.5,1.1-0.8c0.7-0.6,1.4-1,2.4-1.1
			c1.2-0.1,1.7-0.8,1.6-2.1C-388.9,447.1-389,446.8-389,446.5z"/>
		<path class="st18" d="M-389.8,437.2c1.3-1.1,2.6-2,4.4-2c1.8-0.1,3.3,0.5,4.7,1.5c0.1,0.1,0.2,0.3,0.3,0.5
			c-1.1-0.4-2.2-0.8-3.5-1.2c0.3,1.1,0.3,1.9-0.5,2.3c-0.4,0.2-1.1,0.2-1.5-0.1c-0.7-0.4-0.8-1.1-0.4-2.1c-1.1,0.4-2,0.7-2.8,1
			C-389.3,437.2-389.5,437.2-389.8,437.2z"/>
		<path class="st18" d="M-408.7,436.3c0-0.1-0.1-0.2-0.1-0.2c2.9-2.1,6.2-2.5,9.1,0.2c0.1,0.1,0.1,0.2,0.1,0.3c-1-0.4-2-0.7-3.2-1.2
			c0.3,1,0.2,1.7-0.5,2.1c-0.5,0.3-1.1,0.3-1.6,0c-0.7-0.5-0.7-1.2-0.4-2.2C-406.5,435.7-407.6,436-408.7,436.3z"/>
		<path class="st19" d="M-398.9,438.3c-0.4,0.6-0.6,1.3-1.1,1.7c-1.6,1.3-3.6,1.2-5.5,1.1c-1.1-0.1-2.2-0.4-3.3-0.7
			c0.3,0,0.6,0.1,0.8,0.1c2.7,0.2,5.3,0.1,7.7-1.1C-399.7,439.1-399.3,438.6-398.9,438.3L-398.9,438.3z"/>
		<path class="st19" d="M-380.8,441.2c-2.5,0.6-4.9,1-7.4,0.1c-1-0.4-1.8-1-2.1-2.2C-387.5,441.6-384.1,441-380.8,441.2z"/>
		<path class="st19" d="M-407.2,454.5c-0.4-0.8-0.8-1.7-1.1-2.6c-0.1-0.3,0.2-0.8,0.4-1c1.5-1.3,3-2.5,4.6-3.7c0.5-0.4,1-0.6,1.5-1
			c0,0,0,0,0,0c-0.5,0.5-0.9,1-1.4,1.4c-1.2,1.1-2.4,2.1-3.6,3.1c-0.8,0.6-0.8,1.4-0.6,2.2C-407.3,453.6-407.3,454-407.2,454.5
			C-407.2,454.5-407.2,454.5-407.2,454.5z"/>
		<path class="st19" d="M-382.6,454.8C-382.6,454.8-382.6,454.8-382.6,454.8c0.5-1.8-0.4-3-1.5-4.2c-1-1.1-2-2.2-3-3.3
			c-0.1-0.1-0.1-0.2-0.2-0.3c0.1,0,0.2-0.1,0.2,0c1.7,1.7,3.4,3.4,5.1,5.1C-381.1,453.1-381.5,454.5-382.6,454.8z"/>
		<path class="st20" d="M-379.5,438.8c-0.4,0.9-1.3,1.2-2.2,1.6c-1.6,0.6-3.1,0.5-4.7-0.1c0.2,0,0.4-0.1,0.5,0
			C-383.6,440.4-381.4,439.9-379.5,438.8C-379.5,438.8-379.5,438.8-379.5,438.8z"/>
		<path class="st19" d="M-409.6,438.2c1.4,0.4,2.7,1,4.1,1.3c1,0.2,2,0,3,0.1c-2.3,0.7-4.5,0.9-6.6-0.6
			C-409.3,438.7-409.5,438.4-409.6,438.2L-409.6,438.2z"/>
		<path class="st21" d="M-398.9,414.1c0,0.9-0.9,1.2-1.4,1.7c-1.1-0.1-1.8-0.7-2-1.9C-401.1,414.2-400,414.9-398.9,414.1z"/>
		<path class="st20" d="M-374.1,440.5c-1.4-0.5-2.8-0.9-4.1-1.4C-377,438.6-374.7,439.4-374.1,440.5L-374.1,440.5z"/>
		<path class="st22" d="M-377.8,437.6c1.1-0.7,2.1-1.3,3-2C-375,436.9-376.2,437.7-377.8,437.6z"/>
		<path class="st19" d="M-415,439.7c0.6-1,1.6-1.2,2.6-1.4c0.5-0.1,1,0,1.7,0C-412.3,438.8-413.7,439.3-415,439.7L-415,439.7z"/>
		<path class="st23" d="M-414.4,434.9c0.9,0.6,1.9,1.3,2.8,1.9C-412.8,437.1-414.2,436.2-414.4,434.9L-414.4,434.9z"/>
		<path class="st24" d="M-375.8,441.9c-1-0.8-2-1.6-3.3-1.6C-378.1,439.6-376.1,440.5-375.8,441.9L-375.8,441.9z"/>
		<path class="st22" d="M-413.5,441.2c0.3-1.2,1.6-1.9,3.3-1.8C-411.5,439.7-412.6,440.3-413.5,441.2L-413.5,441.2z"/>
		<path class="st25" d="M-402.6,411.7c1.1-0.3,2.7,0.1,3.2,0.8C-400.4,412.2-401.5,411.9-402.6,411.7z"/>
		<path class="st24" d="M-375.8,441.9c0.1,0.1,0.1,0.1,0.2,0.2c0,0,0,0,0,0C-375.7,442-375.7,441.9-375.8,441.9
			C-375.8,441.9-375.8,441.9-375.8,441.9z"/>
		<path class="st19" d="M-409.7,438.2c-0.1-0.1-0.2-0.2-0.3-0.3l0,0C-409.9,438-409.7,438.1-409.7,438.2
			C-409.6,438.2-409.7,438.2-409.7,438.2z"/>
		<path class="st19" d="M-407.2,454.5C-407.2,454.5-407.1,454.6-407.2,454.5C-407.2,454.6-407.2,454.5-407.2,454.5
			C-407.2,454.5-407.2,454.5-407.2,454.5z"/>
		<path class="st23" d="M-414.4,434.9c0-0.1,0-0.1-0.1-0.2C-414.5,434.8-414.4,434.9-414.4,434.9
			C-414.4,434.9-414.4,434.9-414.4,434.9z"/>
		<path class="st19" d="M-401.8,446.3c0.1,0,0.2-0.1,0.3-0.1c0,0,0,0,0,0C-401.6,446.2-401.7,446.3-401.8,446.3
			C-401.8,446.3-401.8,446.3-401.8,446.3z"/>
		<polygon class="st22" points="-374.6,435.3 -374.6,435.2 -374.6,435.3 		"/>
		<path class="st18" d="M-399.7,436.6c0.1,0,0.2,0,0.3,0c0,0.1,0,0.1,0.1,0.2l0,0C-399.4,436.7-399.5,436.7-399.7,436.6z"/>
		<path class="st19" d="M-398.9,438.3c0,0,0-0.1,0-0.1C-398.8,438.2-398.9,438.3-398.9,438.3C-398.9,438.3-398.9,438.3-398.9,438.3z
			"/>
		<path class="st25" d="M-399,412.7c0,0.1,0.1,0.1,0.1,0.2C-398.9,412.9-399,412.8-399,412.7z"/>
		<path class="st13" d="M-387.3,466.2C-387.3,466.2-387.3,466.2-387.3,466.2C-387.3,466.2-387.3,466.2-387.3,466.2
			C-387.3,466.2-387.3,466.2-387.3,466.2z"/>
		<path class="st25" d="M-399.2,412.6c0.1,0.1,0.1,0.1,0.2,0.2C-399.1,412.7-399.1,412.6-399.2,412.6z"/>
		<path class="st25" d="M-399.3,412.4c0.1,0.1,0.1,0.1,0.2,0.2C-399.2,412.5-399.3,412.5-399.3,412.4z"/>
		<polygon class="st20" points="-379.2,438.5 -379.1,438.4 -379.2,438.5 		"/>
		<path class="st20" d="M-379.2,438.5c-0.1,0.1-0.1,0.1-0.2,0.2c0,0,0,0,0,0C-379.3,438.6-379.2,438.5-379.2,438.5
			C-379.2,438.5-379.2,438.5-379.2,438.5z"/>
		<path class="st19" d="M-401.5,446.2C-401.5,446.2-401.5,446.1-401.5,446.2C-401.5,446.1-401.5,446.2-401.5,446.2
			C-401.5,446.2-401.5,446.2-401.5,446.2z"/>
		<path class="st20" d="M-379.3,438.6c0,0.1-0.1,0.1-0.1,0.2c0,0,0,0,0,0C-379.4,438.7-379.4,438.7-379.3,438.6
			C-379.3,438.6-379.3,438.6-379.3,438.6z"/>
		<path class="st22" d="M-413.5,441.2C-413.5,441.3-413.5,441.3-413.5,441.2C-413.5,441.3-413.5,441.3-413.5,441.2
			C-413.5,441.2-413.5,441.2-413.5,441.2z"/>
		<polygon class="st19" points="-410,437.9 -410,437.8 -410,437.9 		"/>
		<path class="st19" d="M-415,439.7C-415,439.7-415.1,439.7-415,439.7C-415.1,439.7-415.1,439.7-415,439.7
			C-415,439.7-415,439.7-415,439.7z"/>
		<path class="st18" d="M-399.3,436.8L-399.3,436.8C-399.3,436.8-399.3,436.8-399.3,436.8C-399.3,436.8-399.3,436.8-399.3,436.8
			C-399.3,436.8-399.2,436.8-399.3,436.8L-399.3,436.8L-399.3,436.8z"/>
		<path class="st7" d="M-399.2,436.8c-0.1,0-0.1,0-0.2,0c0-0.1,0-0.1-0.1-0.2C-399.3,436.7-399.3,436.7-399.2,436.8z"/>
	</g>
	<g>
		<path class="st0" d="M-413.4,485.2L-413.4,485.2l1.5-7.1h2l-2.2,9.6h-2.5l-2.2-9.6h2.1L-413.4,485.2z"/>
		<path class="st0" d="M-405.8,486.9c-0.2,0.4-0.5,0.6-0.8,0.8c-0.3,0.2-0.7,0.2-1.1,0.2c-0.6,0-1-0.2-1.4-0.5
			c-0.3-0.3-0.5-0.8-0.5-1.6v-5.4h1.9v5c0,0.4,0.1,0.6,0.2,0.8c0.1,0.1,0.3,0.2,0.6,0.2c0.7,0,1-0.4,1-1.2v-4.8h1.9v7.2h-1.8V486.9
			L-405.8,486.9z"/>
		<path class="st0" d="M-399.4,482.6c0-0.2-0.1-0.3-0.1-0.5c-0.1-0.1-0.1-0.3-0.2-0.3c-0.1-0.1-0.3-0.1-0.4-0.1
			c-0.2,0-0.4,0.1-0.6,0.2c-0.1,0.1-0.3,0.3-0.3,0.5c-0.1,0.2-0.1,0.5-0.1,0.8c0,0.3,0,0.7,0,1.1c0,0.4,0,0.8,0,1.1
			c0,0.3,0.1,0.6,0.1,0.8c0.1,0.2,0.2,0.4,0.3,0.5c0.1,0.1,0.3,0.1,0.5,0.1c0.3,0,0.5-0.1,0.7-0.4c0.1-0.3,0.2-0.7,0.2-1.3h1.8
			c0,0.9-0.2,1.7-0.6,2.2s-1.1,0.7-2.1,0.7c-0.5,0-0.9-0.1-1.2-0.2c-0.3-0.1-0.6-0.3-0.9-0.6c-0.2-0.3-0.4-0.7-0.5-1.2
			c-0.1-0.5-0.2-1.1-0.2-1.8c0-0.7,0.1-1.4,0.2-1.8c0.1-0.5,0.3-0.9,0.6-1.2c0.3-0.3,0.6-0.5,0.9-0.6c0.4-0.1,0.8-0.2,1.2-0.2
			c0.9,0,1.5,0.3,1.9,0.8c0.4,0.5,0.7,1.2,0.7,2h-1.8C-399.3,482.9-399.3,482.7-399.4,482.6z"/>
		<path class="st0" d="M-395,485c0,0.2,0,0.4,0,0.6c0,0.2,0.1,0.4,0.2,0.5c0.1,0.2,0.2,0.3,0.3,0.4s0.3,0.1,0.4,0.1
			c0.3,0,0.5-0.1,0.7-0.3c0.1-0.2,0.2-0.6,0.3-1h1.7c0,0.8-0.3,1.5-0.7,1.9c-0.4,0.4-1.1,0.7-1.9,0.7c-0.7,0-1.2-0.1-1.6-0.3
			c-0.4-0.2-0.7-0.5-0.8-0.9c-0.2-0.4-0.3-0.8-0.3-1.2c0-0.5-0.1-0.9-0.1-1.4s0-0.9,0.1-1.4c0.1-0.4,0.2-0.8,0.4-1.2
			c0.2-0.3,0.5-0.6,0.9-0.8c0.4-0.2,0.9-0.3,1.5-0.3c0.5,0,1,0.1,1.3,0.3c0.3,0.2,0.6,0.4,0.8,0.7c0.2,0.3,0.3,0.7,0.4,1.2
			s0.1,1,0.1,1.5v0.4h-3.7V485z M-393.2,482.6c0-0.2-0.1-0.4-0.1-0.5c-0.1-0.1-0.2-0.3-0.3-0.3c-0.1-0.1-0.3-0.1-0.5-0.1
			c-0.2,0-0.3,0-0.5,0.1c-0.1,0.1-0.2,0.2-0.3,0.3s-0.1,0.3-0.2,0.5c0,0.2,0,0.3,0,0.5v0.3h1.9C-393.1,483-393.1,482.8-393.2,482.6z
			"/>
		<path class="st0" d="M-388.1,478.4v2.1h1.1v1.3h-1.1v3.9c0,0.3,0,0.5,0.1,0.6c0.1,0.1,0.3,0.2,0.5,0.2c0.1,0,0.1,0,0.2,0
			c0.1,0,0.1,0,0.2,0v1.3c-0.2,0-0.4,0-0.6,0c-0.2,0-0.4,0-0.6,0c-0.4,0-0.7,0-0.9-0.1c-0.2,0-0.4-0.1-0.5-0.3
			c-0.1-0.1-0.2-0.3-0.2-0.6c0-0.2-0.1-0.5-0.1-0.9v-4.1h-0.9v-1.3h0.9v-2.1H-388.1z"/>
		<path class="st0" d="M-384.5,478v1.6h-1.9V478H-384.5z M-384.5,480.5v7.2h-1.9v-7.2H-384.5z"/>
		<path class="st0" d="M-379.7,482.6c0-0.2-0.1-0.3-0.1-0.5c-0.1-0.1-0.1-0.3-0.2-0.3c-0.1-0.1-0.3-0.1-0.4-0.1
			c-0.2,0-0.4,0.1-0.6,0.2c-0.1,0.1-0.3,0.3-0.3,0.5c-0.1,0.2-0.1,0.5-0.1,0.8c0,0.3,0,0.7,0,1.1c0,0.4,0,0.8,0,1.1
			c0,0.3,0.1,0.6,0.1,0.8c0.1,0.2,0.2,0.4,0.3,0.5c0.1,0.1,0.3,0.1,0.5,0.1c0.3,0,0.5-0.1,0.7-0.4c0.1-0.3,0.2-0.7,0.2-1.3h1.8
			c0,0.9-0.2,1.7-0.6,2.2s-1.1,0.7-2.1,0.7c-0.5,0-0.9-0.1-1.2-0.2c-0.3-0.1-0.6-0.3-0.9-0.6c-0.2-0.3-0.4-0.7-0.5-1.2
			c-0.1-0.5-0.2-1.1-0.2-1.8c0-0.7,0.1-1.4,0.2-1.8c0.1-0.5,0.3-0.9,0.6-1.2c0.3-0.3,0.6-0.5,0.9-0.6c0.4-0.1,0.8-0.2,1.2-0.2
			c0.9,0,1.5,0.3,1.9,0.8c0.4,0.5,0.7,1.2,0.7,2h-1.8C-379.7,482.9-379.7,482.7-379.7,482.6z"/>
		<path class="st0" d="M-375.1,478.1v3.1l0,0c0.4-0.6,0.9-0.9,1.8-0.9c0.6,0,1,0.2,1.4,0.5c0.3,0.3,0.5,0.8,0.5,1.6v5.4h-1.9v-5
			c0-0.4-0.1-0.6-0.2-0.8c-0.1-0.1-0.3-0.2-0.6-0.2c-0.7,0-1,0.4-1,1.2v4.8h-1.9v-9.6h1.9V478.1z"/>
	</g>
</g>
</svg>
