<?xml version="1.0" encoding="utf-8"?>
<!-- Generator: Adobe Illustrator 19.0.0, SVG Export Plug-In . SVG Version: 6.00 Build 0)  -->
<svg version="1.1" id="Layer_1" xmlns="http://www.w3.org/2000/svg" xmlns:xlink="http://www.w3.org/1999/xlink" x="0px" y="0px"
	 viewBox="-447 372 105 157" style="enable-background:new -447 372 105 157;" xml:space="preserve">
<style type="text/css">
	.st0{fill:#43A81D;}
	.st1{fill:#C4C4C4;}
	.st2{fill:#FCFCFC;}
	.st3{fill:#0D4B9E;}
	.st4{fill:#E8E8E8;}
	.st5{fill:#141414;}
	.st6{fill:#B71515;}
	.st7{fill:#594E41;}
	.st8{fill:#E3B5A2;}
	.st9{fill:#C7907E;}
	.st10{fill:#DEA795;}
	.st11{fill:#716858;}
	.st12{fill:#726858;}
	.st13{fill:#C58E7C;}
	.st14{fill:#362D26;}
	.st15{fill:#372E26;}
	.st16{fill:#C78F7E;}
	.st17{fill:#241B17;}
	.st18{fill:#231A17;}
	.st19{fill:#C78F7D;}
	.st20{fill:#C8907E;}
	.st21{fill:#C8917F;}
</style>
<g>
	<g>
		<g>
			<polygon class="st0" points="-351.9,385.6 -445.8,385.6 -443.9,376.7 -351.9,376.7 			"/>
			<polygon class="st0" points="-343.9,528 -431.7,528 -445.8,385.6 -351.9,385.6 			"/>
			<polygon class="st0" points="-351.2,493.6 -430,493.6 -439.3,394.4 -356.1,394.4 			"/>
			<rect x="-425.8" y="506.6" class="st0" width="73.1" height="16.8"/>
			<rect x="-413.6" y="510.4" class="st0" width="50" height="8.4"/>
		</g>
		<g>
			<polygon class="st1" points="-351.9,385.6 -445.8,385.6 -443.9,376.7 -351.9,376.7 			"/>
			<polygon class="st2" points="-343.9,528 -431.7,528 -445.8,385.6 -351.9,385.6 			"/>
			<polygon class="st3" points="-351.2,493.6 -430,493.6 -439.3,394.4 -356.1,394.4 			"/>
			<rect x="-425.8" y="506.6" class="st4" width="73.1" height="16.8"/>
			<rect x="-413.6" y="510.4" class="st5" width="50" height="8.4"/>
		</g>
	</g>
	<path class="st6" d="M-423.1,517.6h-10c-1.7,0-3.1-1.4-3.1-3.1V513c0-1.7,1.4-3.1,3.1-3.1h10c1.7,0,3.1,1.4,3.1,3.1v1.6
		C-420.1,516.2-421.5,517.6-423.1,517.6z"/>
	<path class="st6" d="M-345.2,517.6h-12c-1.4,0-2.5-1.1-2.5-2.5v-2.7c0-1.4,1.1-2.5,2.5-2.5h12c1.4,0,2.5,1.1,2.5,2.5v2.7
		C-342.7,516.5-343.9,517.6-345.2,517.6z"/>
	<g>
		<path class="st7" d="M-393.5,400.5c1.3,0.3,2.4,1,3.4,2c0.1,0.1,0.4,0.2,0.7,0.2c3-0.4,5.6,0.4,7.5,2.8c1.7,2.2,3.9,3.4,6.6,3.7
			c3.3,0.4,5.3,2.6,6.2,5.7c1,3.1,1.2,6.4,1.3,9.6c0,0.7-0.1,1.5,0,2.2c0.1,1,0.4,2.1,0.7,3.1c0.5,1.7,1.1,3.4,1.7,5.1
			c-0.2,0.2-0.4,0.5-0.5,0.7c-0.5,1-1,2-1.6,3.2c-0.6-1.2-1.2-2.4-1.8-3.6c-0.2,0.9-0.4,1.7-0.5,2.4c-0.3-0.4-0.5-0.8-0.7-1.2
			c-0.3-0.7-0.7-1.4-1-2c-0.1-3.3-0.4-6.6-1.6-9.8c-1.6-4.3-3.7-8.2-7.2-11.3c-2-1.7-4.2-2.8-6.8-3.1c-1.1,2.1-2.2,2.5-4.8,1.8
			c-1.3-0.4-2.6-0.9-3.9-1.3c-1.7-0.6-3.3-0.3-4.7,1c-0.7,0.6-1.3,1.2-1.8,1.9c-0.9,1.3-1.8,2.7-2.7,4.1c0-1.9,0-3.8,0-5.8
			c-2.5,0.7-4.5,1.9-6.3,3.7c-3.8,3.8-5.5,8.5-5.6,13.8c-0.1,2.5,0.4,5.1,0.7,7.7c-0.4,0.7-0.7,1.4-1.1,2.1
			c-0.3-0.8-0.6-1.5-0.9-2.2c-0.1,0-0.1,0-0.2,0.1c-0.3,1.2-0.7,2.5-1,3.7c-0.1,0-0.1,0-0.2,0c-0.6-1.3-1.1-2.7-1.7-4.1
			c-0.8,1.1-1.5,2-2.2,3c-0.2-1.6-0.4-3.2-0.6-4.8c0-0.2-0.1-0.4-0.2-0.5c0-2.4,0-4.8,0-7.3c0.1-0.1,0.1-0.2,0.2-0.4
			c0.2-1.2,0.3-2.3,0.6-3.5c0.9-3.9,2.9-7.2,6.5-9.3c0.6-0.4,1.2-0.9,1.7-1.4c0.6-0.6,1-1.4,1-2.3c-0.1-2.2,0.9-3.9,2.8-4.9
			c2.9-1.4,5.8-1.5,8.8,0c1-1.5,2.3-2.8,4-3.6c0.9-0.4,1.8-0.7,2.7-1C-395.3,400.5-394.4,400.5-393.5,400.5z"/>
		<path class="st8" d="M-416.3,436.8c-0.3-2.6-0.8-5.1-0.7-7.7c0.1-5.3,1.8-10,5.6-13.8c1.8-1.7,3.8-3,6.3-3.7c0,1.9,0,3.8,0,5.8
			c0.9-1.4,1.8-2.8,2.7-4.1c0.5-0.7,1.2-1.3,1.8-1.9c1.4-1.2,3-1.5,4.7-1c1.3,0.4,2.6,0.9,3.9,1.3c2.5,0.7,3.7,0.3,4.8-1.8
			c2.6,0.3,4.9,1.4,6.8,3.1c3.5,3,5.6,7,7.2,11.3c1.2,3.2,1.5,6.5,1.6,9.8c0.2,2,0.3,4,0.5,6c0.2,1.9,0.7,3.8,1,5.6
			c-0.1,0.1-0.2,0.3-0.2,0.4c-0.2,1.7-0.3,3.4-0.5,5.2c-0.3,2.8-0.6,5.6-0.9,8.4c-0.3,1.9-0.6,3.8-0.9,5.7c-0.2,1.3-1,2.2-1.8,3.2
			c-1.8,2.3-4.1,3.8-7,4.4c-0.8,0.1-1.5,0.2-2.3,0.3c-0.1-0.2-0.3-0.4-0.5-0.4c-0.9-0.4-1.8-0.8-2.7-1.1c-1.5-0.4-3-0.6-4.5-1
			c0.4-1.2,0.3-2.5-0.2-3.8c-1.5,1-1.2,2.5-1.4,3.8c-3.5-0.1-6.8,0.3-10.1,1.2c0.7,0.5,1.4,0.9,2.1,1.4c0.3,0.2,0.5,0.4,0.8,0.6
			c-1.5-0.5-3-0.9-4.5-1.5c-3.4-1.6-6.7-3.2-10-4.9c-0.4-0.2-0.8-0.6-0.8-1c-0.4-2.1-0.8-4.1-1.1-6.2c0-0.3-0.1-0.5-0.1-0.8
			c0-0.4-0.1-0.8-0.1-1.3c-0.2-2.8-0.3-5.7-0.5-8.5c0-0.3-0.1-0.6-0.2-0.9c0.2-2,0.3-4,0.5-6.1c0-0.2,0-0.5,0.1-0.6
			C-415.8,440.5-416,438.7-416.3,436.8z M-377.8,438.5L-377.8,438.5c0,0.1,0.1,0.2,0.1,0.3c0.2,0.2,0.3,0.4,0.5,0.6
			c0.1,0.1,0.4,0.2,0.5,0.1c0.7-0.7,1.5-1.4,2.2-2.2c0-1.7-0.5-3.3-1.7-4.5c-0.7-0.7-1.5-1-2.5-0.8c-2.8,0.6-5.6,1.2-8.4,1.1
			c-0.3,0-0.6,0.3-0.8,0.4c-0.9,0-1.7-0.2-2.4-0.7c-0.8-0.5-1-1.4-1.2-2.2c-0.5,2.2,0.9,3.3,2.5,4.3c-0.6,3-0.2,3,1.3,4.5
			c0.2-0.5,0.4-1,0.6-1.5c1-0.5,2.2-0.8,3.4-0.9c-0.5,1.2-0.5,1.9,0.1,2.5c0.6,0.6,1.4,0.8,2.1,0.4c1.1-0.6,1.2-1.5,0.8-2.7
			c0.5,0.2,0.9,0.4,1.3,0.5c0.5,0.2,1,0.4,1.4,0.7l0,0C-377.9,438.4-377.8,438.4-377.8,438.5z M-387.6,440.8c0-0.1,0-0.1-0.1-0.2
			c0,0-0.1,0-0.1,0C-387.7,440.7-387.7,440.7-387.6,440.8c1.5,3.2,4.7,5.6,8.5,4.9c-0.3,0-0.6-0.1-0.9-0.1c-2.4-0.5-4.4-1.7-6.2-3.4
			C-386.7,441.6-387.2,441.2-387.6,440.8z M-397.6,444.7c-0.2,0.2-0.4,0.4-0.6,0.6c-2.1,2.6-3.3,5.6-4,8.8c-0.1,0.4-0.1,0.8-0.2,1.2
			c0.2-0.1,0.3-0.2,0.4-0.3c0.8-2.9,2.2-5.5,3.9-7.9c0.1-0.2,0.3-0.4,0.3-0.6C-397.7,446-397.7,445.3-397.6,444.7
			C-397.6,444.7-397.6,444.7-397.6,444.7C-397.6,444.7-397.6,444.7-397.6,444.7C-397.6,444.7-397.6,444.7-397.6,444.7z
			 M-410.7,435.3c-0.1,0.3-0.3,0.5-0.4,0.8c-0.1,0.3-0.2,0.8-0.1,1c0.7,0.7,1.4,1.3,2,1.9c0.6-0.6,1.2-1.1,1.8-1.7
			c0.9-0.3,1.8-0.6,2.9-0.9c-0.6,1.3-0.5,2.2,0.3,2.8c0.6,0.5,1.6,0.5,2.2,0.1c0.8-0.5,0.9-1.4,0.5-2.5c0.4,0.1,0.8,0.2,1.1,0.3
			c0.6,0.2,1.3,0.4,1.9,0.7c0.1,0.4,0.3,0.8,0.5,1.4c0.3-0.6,0.5-1.1,0.8-1.6c0.4,0.5,0.7,1,1,1.5c0.7-1,0.8-2.1,0.5-3.2
			c-0.1-0.5,0-0.8,0.4-1.1c0.4-0.3,0.9-0.6,1.2-1c0.7-0.8,1-1.8,0.7-2.9c0,1-0.5,1.8-1.3,2.3c-0.7,0.3-1.5,0.4-2.2,0.6
			c-0.2-0.2-0.5-0.4-0.7-0.5c-2.6-0.7-5.2-1.3-7.8-2.1c-1.9-0.5-3.1-0.2-4.2,1.5C-410,433.5-410.3,434.4-410.7,435.3z M-387.5,449.2
			c-0.8-0.9-1.1-1-2.2-0.4c-0.4,0.2-0.7,0.4-1.1,0.7c-0.6,0.5-1.3,0.6-2,0.2c-0.6-0.3-1.1-0.7-1.7-1c-1-0.5-1.4-0.3-1.8,0.8
			c-0.5-0.7-1.1-1.4-1.5-2c0,0.1,0,0.4,0,0.6c0.1,0.4,0.3,0.9,0.4,1.3c0.3,1.2,0.9,1.7,2.2,1.5c2.3-0.4,4.6,0.1,6.9,0.4
			c1.2,0.2,2.6-0.9,2.3-2.3c-0.1-0.4-0.2-0.9-0.3-1.3c0.1,0,0.2-0.1,0.3-0.1c0.6,1.9,1.3,3.7,1.9,5.5c0.8-3.4-2-9.1-4.6-9.2
			c0,0.1,0,0.3,0.1,0.4c0.4,0.9,0.7,1.7,1.1,2.5C-386.9,447.9-386.9,448.5-387.5,449.2z M-384.6,460.3c0,0,0-0.1,0-0.1
			c-0.4-0.3-0.9-0.6-1.1-1.1c-0.8-1.4-2.1-2.1-3.4-3c-1-0.7-1.5-0.6-2.4,0.2c-0.4,0.3-0.6,0.2-1,0c-0.6-0.3-1.4-0.8-2-0.7
			c-1.4,0.3-2.7,0.9-3.7,2.1c-0.3,0.4-0.7,0.7-1,1c-0.5,0.4-1.1,0.8-1.7,1.2c0,0.1,0.1,0.2,0.1,0.2c0.4-0.2,0.9-0.3,1.3-0.5
			c2.5-1,5.1-1.7,7.8-1.4c0.3,0,0.7,0.1,1,0c1-0.3,1.9-0.1,2.8,0.4C-386.7,459.3-385.6,459.8-384.6,460.3z M-396.9,461.7
			c1.5,1.9,3.1,3,5.4,2.7c1.8-0.2,3.1-1.1,4.3-2.5C-390.4,462.4-393.6,462.1-396.9,461.7z M-407,445.2c4.7,1.1,8.1-1.4,8.7-4
			C-400.9,444.3-402.9,444.9-407,445.2z"/>
		<path class="st9" d="M-400,474.1c-0.3-0.2-0.5-0.4-0.8-0.6c-0.7-0.4-1.4-0.8-2.1-1.4c3.3-0.9,6.6-1.3,10.1-1.2
			c0.2-1.4-0.1-2.9,1.4-3.8c0.5,1.3,0.7,2.6,0.2,3.8c1.6,0.3,3.1,0.6,4.5,1c0.9,0.2,1.8,0.7,2.7,1.1c0.2,0.1,0.3,0.3,0.5,0.4
			c-1.5,1-3.2,1.6-5,1.7c-3.1,0.3-6.2,0.5-9.2-0.4C-398.5,474.5-399.3,474.3-400,474.1z"/>
		<path class="st10" d="M-417.3,448.9c0.1,0.3,0.1,0.6,0.2,0.9c0.2,2.8,0.3,5.7,0.5,8.5c0,0.4,0.1,0.8,0.1,1.3
			c-1.4,0-2.4-0.8-3.2-1.8c-1.4-1.9-2-4.1-2.5-6.3c-0.5-2.6-0.8-5.3-0.4-8c0.2,0.3,0.3,0.5,0.5,0.8
			C-421,446.2-419.4,447.8-417.3,448.9z"/>
		<path class="st11" d="M-417.3,448.9c-2-1.1-3.6-2.7-4.8-4.7c-0.2-0.3-0.3-0.5-0.5-0.8c-0.3-1.2-0.7-2.4-1-3.6c0-0.1,0-0.3,0-0.4
			c0.7-0.9,1.4-1.9,2.2-3c0.6,1.4,1.1,2.8,1.7,4.1c0.1,0,0.1,0,0.2,0c0.3-1.2,0.7-2.5,1-3.7c0.1,0,0.1,0,0.2-0.1
			c0.3,0.7,0.6,1.4,0.9,2.2c0.4-0.7,0.8-1.4,1.1-2.1c0.2,1.8,0.5,3.7-0.5,5.4c-0.1,0.2-0.1,0.4-0.1,0.6
			C-417,444.9-417.2,446.9-417.3,448.9z"/>
		<path class="st12" d="M-370,445.9c-0.3-1.9-0.8-3.8-1-5.6c-0.3-2-0.3-4-0.5-6c0.3,0.7,0.7,1.3,1,2c0.2,0.4,0.3,0.8,0.7,1.2
			c0.2-0.7,0.3-1.5,0.5-2.4c0.6,1.3,1.2,2.4,1.8,3.6c0.6-1.1,1.1-2.2,1.6-3.2c0.1-0.3,0.3-0.5,0.5-0.7c0.8,3.7,0.3,7.4-1,10.9
			c-0.1,0.2-0.1,0.4-0.2,0.6c-0.2,0.4-0.3,0.2-0.5-0.1c-0.6-0.7-1.2-1-2-0.7C-369.4,445.7-369.7,445.8-370,445.9z"/>
		<path class="st10" d="M-370,445.9c0.3-0.1,0.6-0.2,0.9-0.3c0.8-0.2,1.4,0,2,0.7c0.2,0.2,0.3,0.4,0.5,0.1
			c-0.1,3.9-0.6,7.7-2.5,11.1c-0.6,1-1.3,1.9-2.4,2.4c0.3-2.8,0.6-5.6,0.9-8.4c0.2-1.7,0.3-3.4,0.5-5.2
			C-370.2,446.1-370.1,446-370,445.9z"/>
		<path class="st13" d="M-407.3,437.3c-0.6,0.5-1.1,1.1-1.8,1.7c-0.6-0.6-1.4-1.2-2-1.9c-0.2-0.2,0-0.7,0.1-1
			c0.1-0.3,0.3-0.5,0.4-0.8c0,0.1,0,0.2,0,0.4c0.1-0.2,0.2-0.3,0.3-0.4c1.6-1.9,3.3-2.4,5.6-1.7c2.5,0.8,5.1,1.5,7.6,2.3
			c0.6-0.7,0.6-1.4,0.2-2.2c0.7-0.2,1.5-0.3,2.2-0.6c0.9-0.4,1.3-1.3,1.3-2.3c0.4,1.1,0.1,2.1-0.7,2.9c-0.3,0.4-0.8,0.7-1.2,1
			c-0.5,0.3-0.6,0.6-0.4,1.1c0.2,1.1,0.1,2.1-0.5,3.2c-0.3-0.5-0.7-1-1-1.5c-0.3,0.5-0.5,1-0.8,1.6c-0.2-0.6-0.3-1-0.5-1.4
			c0-0.1,0-0.2-0.1-0.2c-2.8-2.3-6.2-2.3-9-0.3C-407.4,437.2-407.3,437.3-407.3,437.3z"/>
		<path class="st13" d="M-387.2,437.9c-0.2,0.5-0.4,1-0.6,1.5c-1.5-1.5-1.9-1.5-1.3-4.5c-1.6-0.9-3-2.1-2.5-4.3
			c0.2,0.8,0.3,1.7,1.2,2.2c0.8,0.5,1.5,0.7,2.4,0.7c-0.1,0.2-0.2,0.4-0.3,0.6c-0.3,0.8,0.2,1.6,0.8,1.5c2.4-0.4,4.8-0.7,7.1-1.2
			c1.4-0.3,2.8-0.3,3.9,0.7c0.7,0.6,1.3,1.5,1.9,2.2c-0.7,0.7-1.4,1.5-2.2,2.2c-0.1,0.1-0.4,0-0.5-0.1c-0.2-0.2-0.4-0.4-0.5-0.6
			c0-0.1-0.1-0.2-0.1-0.3c0,0,0,0,0,0c-0.1-0.1-0.1-0.1-0.2-0.2c0,0,0,0,0,0c-2.1-2.4-6-3.2-9.6-0.5
			C-387.4,437.9-387.3,437.9-387.2,437.9z"/>
		<path class="st9" d="M-387.5,449.2c0.6-0.7,0.5-1.3,0-2.4c-0.4-0.8-0.8-1.7-1.1-2.5c0-0.1-0.1-0.2-0.1-0.4
			c2.6,0.2,5.3,5.8,4.6,9.2c-0.6-1.8-1.3-3.7-1.9-5.5c-0.1,0-0.2,0.1-0.3,0.1c0.1,0.4,0.2,0.9,0.3,1.3c0.3,1.4-1.1,2.5-2.3,2.3
			c-2.3-0.3-4.6-0.8-6.9-0.4c-1.2,0.2-1.8-0.3-2.2-1.5c-0.1-0.4-0.3-0.9-0.4-1.3c-0.1-0.2,0-0.4,0-0.6c0.5,0.6,1,1.3,1.5,2
			c0.4-1.1,0.9-1.4,1.8-0.8c0.6,0.3,1.1,0.7,1.7,1c0.7,0.4,1.4,0.3,2-0.2c0.3-0.3,0.7-0.5,1.1-0.7
			C-388.6,448.3-388.3,448.3-387.5,449.2z"/>
		<path class="st14" d="M-396.8,433.8c0.4,0.7,0.4,1.4-0.2,2.2c-2.5-0.8-5.1-1.5-7.6-2.3c-2.4-0.7-4-0.2-5.6,1.7
			c-0.1,0.1-0.2,0.2-0.3,0.4c0-0.2,0-0.3,0-0.4c0.4-0.9,0.7-1.8,1.2-2.6c1-1.7,2.3-2,4.2-1.5c2.6,0.7,5.2,1.4,7.8,2.1
			C-397.3,433.4-397.1,433.6-396.8,433.8z"/>
		<path class="st15" d="M-374.4,437.3c-0.6-0.7-1.2-1.5-1.9-2.2c-1.1-1-2.5-1-3.9-0.7c-2.4,0.4-4.8,0.8-7.1,1.2
			c-0.6,0.1-1.1-0.6-0.8-1.5c0.1-0.2,0.2-0.4,0.3-0.6c0.3-0.1,0.6-0.4,0.8-0.4c2.9,0.1,5.7-0.5,8.4-1.1c1-0.2,1.8,0.1,2.5,0.8
			C-374.9,434-374.5,435.6-374.4,437.3z"/>
		<path class="st16" d="M-384.6,460.3c-1-0.5-2.1-1-3.1-1.6c-0.9-0.5-1.8-0.7-2.8-0.4c-0.3,0.1-0.7,0.1-1,0
			c-2.8-0.3-5.3,0.4-7.8,1.4c-0.4,0.2-0.9,0.3-1.3,0.5c0-0.1-0.1-0.2-0.1-0.2c0.6-0.4,1.1-0.8,1.7-1.2c0.4-0.3,0.7-0.6,1-1
			c1-1.2,2.3-1.9,3.7-2.1c0.6-0.1,1.3,0.4,2,0.7c0.4,0.2,0.6,0.3,1,0c0.9-0.8,1.4-0.9,2.4-0.2c1.2,0.8,2.6,1.6,3.4,3
			c0.2,0.4,0.8,0.7,1.1,1.1C-384.6,460.2-384.6,460.3-384.6,460.3z"/>
		<path class="st17" d="M-387.2,437.9c-0.1,0-0.2,0-0.4-0.1c3.6-2.7,7.5-1.9,9.6,0.5c-0.5-0.2-0.9-0.5-1.4-0.7
			c-0.4-0.2-0.8-0.3-1.3-0.5c0.3,1.2,0.3,2.2-0.8,2.7c-0.7,0.4-1.6,0.2-2.1-0.4c-0.6-0.6-0.7-1.4-0.1-2.5
			C-385,437.1-386.1,437.4-387.2,437.9z"/>
		<path class="st18" d="M-407.3,437.3c0,0-0.1-0.1-0.1-0.1c2.8-2,6.2-2,9,0.3c0,0,0,0.1,0.1,0.2c-0.6-0.2-1.3-0.5-1.9-0.7
			c-0.3-0.1-0.7-0.2-1.1-0.3c0.4,1.2,0.2,2-0.5,2.5c-0.6,0.5-1.6,0.4-2.2-0.1c-0.7-0.6-0.9-1.4-0.3-2.8
			C-405.5,436.7-406.4,437-407.3,437.3z"/>
		<path class="st19" d="M-396.9,461.7c3.3,0.5,6.5,0.7,9.7,0.3c-1.1,1.4-2.5,2.3-4.3,2.5C-393.8,464.6-395.4,463.5-396.9,461.7z"/>
		<path class="st20" d="M-397.6,444.7c-0.1,0.6-0.1,1.3-0.2,1.9c0,0.2-0.2,0.4-0.3,0.6c-1.7,2.4-3.1,5-3.9,7.9
			c0,0.1-0.1,0.2-0.4,0.3c0.1-0.4,0.1-0.8,0.2-1.2c0.7-3.2,1.9-6.2,4-8.8C-398,445.1-397.8,444.9-397.6,444.7
			C-397.6,444.7-397.6,444.7-397.6,444.7z"/>
		<path class="st21" d="M-407,445.2c4.1-0.4,6.1-0.9,8.7-4C-398.9,443.9-402.3,446.3-407,445.2z"/>
		<path class="st21" d="M-387.6,440.8c0.5,0.4,0.9,0.9,1.4,1.3c1.7,1.7,3.7,3,6.2,3.4c0.3,0.1,0.6,0.1,0.9,0.1
			C-382.9,446.4-386.2,443.9-387.6,440.8L-387.6,440.8z"/>
		<path class="st21" d="M-387.6,440.8c0-0.1-0.1-0.1-0.1-0.2c0,0,0,0,0.1,0C-387.7,440.6-387.6,440.7-387.6,440.8
			C-387.6,440.8-387.6,440.8-387.6,440.8z"/>
		<path class="st17" d="M-377.8,438.5c0,0.1,0.1,0.2,0.1,0.3C-377.7,438.7-377.8,438.6-377.8,438.5z"/>
		<path class="st17" d="M-377.9,438.3c0.1,0.1,0.1,0.1,0.2,0.2C-377.8,438.4-377.9,438.4-377.9,438.3z"/>
		<path class="st20" d="M-397.6,444.7C-397.6,444.7-397.6,444.7-397.6,444.7C-397.6,444.7-397.6,444.7-397.6,444.7
			C-397.6,444.7-397.6,444.7-397.6,444.7C-397.6,444.7-397.6,444.7-397.6,444.7z"/>
	</g>
	<g>
		<path class="st2" d="M-404.6,479.3c0.4,0,0.8,0,1.1,0.1s0.6,0.2,0.9,0.4c0.2,0.2,0.4,0.5,0.6,0.8c0.1,0.3,0.2,0.7,0.2,1.2
			s-0.1,1-0.4,1.4c-0.2,0.4-0.6,0.6-1.1,0.8l0,0c0.6,0.1,1,0.3,1.3,0.7s0.5,0.9,0.5,1.6c0,0.4-0.1,0.8-0.2,1.1
			c-0.1,0.4-0.3,0.7-0.5,0.9c-0.2,0.3-0.6,0.5-1,0.6c-0.4,0.2-0.9,0.2-1.5,0.2h-3.3v-9.9L-404.6,479.3L-404.6,479.3z M-405.4,483.4
			c0.6,0,1-0.1,1.2-0.3c0.3-0.2,0.4-0.5,0.4-1s-0.1-0.8-0.3-1c-0.2-0.2-0.6-0.3-1.1-0.3h-0.8v2.6
			C-406,483.4-405.4,483.4-405.4,483.4z M-405.2,487.7c0.5,0,0.9-0.1,1.2-0.3c0.3-0.2,0.4-0.6,0.4-1.2c0-0.3,0-0.5-0.1-0.7
			c-0.1-0.2-0.2-0.3-0.3-0.5c-0.1-0.1-0.3-0.2-0.5-0.2s-0.4-0.1-0.6-0.1h-0.9v3C-406,487.7-405.2,487.7-405.2,487.7z"/>
		<path class="st2" d="M-398.3,479.2v1.6h-1.9v-1.6H-398.3z M-398.3,481.8v7.5h-1.9v-7.5H-398.3z"/>
		<path class="st2" d="M-395.3,486.4c0,0.2,0,0.4,0,0.6s0.1,0.4,0.2,0.6c0.1,0.2,0.2,0.3,0.3,0.4c0.1,0.1,0.3,0.1,0.4,0.1
			c0.3,0,0.6-0.1,0.7-0.3c0.1-0.2,0.2-0.6,0.3-1.1h1.7c0,0.9-0.3,1.5-0.7,2s-1.1,0.7-2,0.7c-0.7,0-1.2-0.1-1.6-0.3
			c-0.4-0.2-0.7-0.5-0.9-0.9c-0.2-0.4-0.3-0.8-0.3-1.3s-0.1-0.9-0.1-1.4s0-1,0.1-1.4c0.1-0.5,0.2-0.9,0.4-1.2
			c0.2-0.4,0.5-0.6,0.9-0.9c0.4-0.2,0.9-0.3,1.6-0.3c0.6,0,1,0.1,1.4,0.3c0.4,0.2,0.6,0.4,0.8,0.8c0.2,0.3,0.3,0.7,0.4,1.2
			c0.1,0.5,0.1,1,0.1,1.6v0.4h-3.8v0.4H-395.3z M-393.4,483.9c0-0.2-0.1-0.4-0.1-0.6c-0.1-0.2-0.2-0.3-0.3-0.3
			c-0.1-0.1-0.3-0.1-0.5-0.1c-0.2,0-0.4,0-0.5,0.1c-0.1,0.1-0.2,0.2-0.3,0.3c-0.1,0.1-0.1,0.3-0.2,0.5c0,0.2,0,0.4,0,0.5v0.3h2
			C-393.4,484.3-393.4,484.1-393.4,483.9z"/>
		<path class="st2" d="M-388.6,479.3v9.9h-1.9v-9.9H-388.6z"/>
		<path class="st2" d="M-385.8,487c0,0.3,0.1,0.6,0.3,0.8c0.2,0.2,0.4,0.3,0.7,0.3c0.3,0,0.5-0.1,0.7-0.2c0.2-0.1,0.3-0.4,0.3-0.7
			c0-0.2-0.1-0.4-0.2-0.5s-0.3-0.2-0.5-0.3l-1.3-0.5c-0.5-0.2-0.9-0.4-1.2-0.8c-0.3-0.3-0.4-0.8-0.4-1.3c0-0.3,0.1-0.6,0.2-0.9
			c0.1-0.3,0.3-0.5,0.5-0.7c0.2-0.2,0.5-0.4,0.9-0.5c0.3-0.1,0.8-0.2,1.3-0.2c0.9,0,1.5,0.2,1.9,0.6s0.6,0.9,0.6,1.6v0.3h-1.7
			c0-0.4-0.1-0.7-0.2-0.9c-0.1-0.2-0.3-0.3-0.7-0.3c-0.2,0-0.5,0.1-0.6,0.2c-0.2,0.1-0.3,0.3-0.3,0.6c0,0.2,0.1,0.4,0.2,0.5
			c0.1,0.1,0.3,0.3,0.7,0.4l1.2,0.4c0.6,0.2,1,0.5,1.3,0.8c0.2,0.3,0.4,0.8,0.4,1.3c0,0.4-0.1,0.7-0.2,1c-0.1,0.3-0.3,0.5-0.6,0.7
			c-0.2,0.2-0.5,0.3-0.9,0.4c-0.3,0.1-0.7,0.1-1.1,0.1c-0.5,0-1-0.1-1.3-0.2c-0.4-0.1-0.6-0.3-0.8-0.5c-0.2-0.2-0.4-0.5-0.4-0.7
			c-0.1-0.3-0.1-0.6-0.1-1v-0.3h1.7v0.5H-385.8z"/>
		<path class="st2" d="M-381.1,483.9c0-0.4,0.1-0.8,0.2-1.1c0.1-0.3,0.3-0.5,0.6-0.7c0.2-0.2,0.5-0.3,0.8-0.4c0.3-0.1,0.7-0.1,1-0.1
			c0.6,0,1,0.1,1.4,0.2c0.4,0.1,0.6,0.3,0.8,0.5c0.2,0.2,0.3,0.4,0.4,0.7s0.1,0.6,0.1,0.9v3.9c0,0.4,0,0.6,0,0.8
			c0,0.2,0.1,0.4,0.2,0.6h-1.8c-0.1-0.1-0.1-0.2-0.1-0.4c0-0.2-0.1-0.3-0.1-0.4l0,0c-0.2,0.4-0.5,0.6-0.8,0.8
			c-0.3,0.1-0.7,0.2-1.1,0.2c-0.3,0-0.6-0.1-0.8-0.2c-0.2-0.1-0.4-0.3-0.6-0.5c-0.1-0.2-0.2-0.4-0.3-0.7c-0.1-0.3-0.1-0.5-0.1-0.8
			c0-0.4,0-0.7,0.1-0.9c0.1-0.3,0.2-0.5,0.3-0.7c0.2-0.2,0.3-0.3,0.6-0.5c0.2-0.1,0.5-0.2,0.9-0.3l1.1-0.3c0.3-0.1,0.5-0.2,0.6-0.3
			c0.1-0.1,0.2-0.3,0.2-0.6c0-0.3-0.1-0.5-0.2-0.7c-0.1-0.2-0.4-0.2-0.7-0.2c-0.3,0-0.5,0.1-0.7,0.3c-0.1,0.2-0.2,0.4-0.2,0.7v0.2
			h-1.7l0,0H-381.1z M-378,485.7c-0.1,0.1-0.3,0.1-0.4,0.1c-0.4,0.1-0.7,0.2-0.8,0.4c-0.1,0.2-0.2,0.5-0.2,0.8s0.1,0.5,0.2,0.7
			c0.1,0.2,0.3,0.3,0.6,0.3c0.1,0,0.3,0,0.4-0.1c0.1,0,0.3-0.1,0.4-0.2c0.1-0.1,0.2-0.2,0.3-0.4c0.1-0.1,0.1-0.3,0.1-0.5v-1.5
			C-377.7,485.6-377.9,485.7-378,485.7z"/>
	</g>
</g>
</svg>
