<?xml version="1.0" encoding="utf-8"?>
<!-- Generator: Adobe Illustrator 19.1.0, SVG Export Plug-In . SVG Version: 6.00 Build 0)  -->
<!DOCTYPE svg PUBLIC "-//W3C//DTD SVG 1.1//EN" "http://www.w3.org/Graphics/SVG/1.1/DTD/svg11.dtd">
<svg version="1.1" id="Layer_1" xmlns="http://www.w3.org/2000/svg" xmlns:xlink="http://www.w3.org/1999/xlink" x="0px" y="0px"
	 viewBox="0 0 105 157" style="enable-background:new 0 0 105 157;" xml:space="preserve">
<style type="text/css">
	.st0{fill:#FCFCFC;}
	.st1{fill:#C4C4C4;}
	.st2{fill:#E8E8E8;}
	.st3{fill:#141414;}
	.st4{fill:#B71515;}
</style>
<g>
	<polygon class="st0" points="90.7,0 6.9,0 11.8,146 101.5,146 	"/>
	<polygon class="st1" points="99.4,149.4 13.6,149.4 11.8,146 101.5,146 	"/>
	<rect x="13.6" y="4.3" class="st2" width="68.2" height="15.5"/>
	<rect x="25.1" y="8.5" class="st3" width="46.7" height="7.8"/>
	<path class="st4" d="M90.6,20H80.4c-1.4,0-2.5-1.1-2.5-2.5v-2.7c0-1.4,1.1-2.5,2.5-2.5h10.2c1.4,0,2.5,1.1,2.5,2.5v2.7
		C93.1,18.9,91.9,20,90.6,20z"/>
	<path class="st4" d="M17.7,19.6H6.5c-1.4,0-2.5-1.1-2.5-2.5v-2.7c0-1.4,1.1-2.5,2.5-2.5h11.2c1.4,0,2.5,1.1,2.5,2.5v2.7
		C20.2,18.5,19,19.6,17.7,19.6z"/>
</g>
</svg>
