<?xml version="1.0" encoding="utf-8"?>
<!-- Generator: Adobe Illustrator 19.0.0, SVG Export Plug-In . SVG Version: 6.00 Build 0)  -->
<svg version="1.1" id="Layer_1" xmlns="http://www.w3.org/2000/svg" xmlns:xlink="http://www.w3.org/1999/xlink" x="0px" y="0px"
	 viewBox="-447 372 105 157" style="enable-background:new -447 372 105 157;" xml:space="preserve">
<style type="text/css">
	.st0{fill:#FCFCFC;}
	.st1{fill:#C4C4C4;}
	.st2{fill:#0D4B9E;}
	.st3{fill:#E8E8E8;}
	.st4{fill:#141414;}
	.st5{fill:#B71515;}
	.st6{fill:#E3B5A2;}
	.st7{fill:#3B2B14;}
	.st8{fill:#DEA694;}
	.st9{fill:#3C2D16;}
	.st10{fill:#3D2D16;}
	.st11{fill:#C7907E;}
	.st12{fill:#E9E8E5;}
	.st13{fill:#C68F7D;}
	.st14{fill:#2E2215;}
	.st15{fill:#2D2114;}
	.st16{fill:#C58E7C;}
	.st17{fill:#251C18;}
	.st18{fill:#241B18;}
	.st19{fill:#C28C7A;}
	.st20{fill:#C8917F;}
	.st21{fill:#CA9482;}
	.st22{fill:#997462;}
</style>
<g>
	<g>
		<polygon class="st0" points="-349,528.3 -435.6,528.3 -444.5,377.4 -352.8,377.4 		"/>
		<polygon class="st1" points="-352.7,373.8 -441.8,373.8 -444.5,377.4 -352.7,377.4 		"/>
		<polygon class="st2" points="-355.2,493.8 -431.6,493.8 -438.3,388 -358.6,388 		"/>
		<rect x="-428.9" y="507.4" class="st3" width="70.5" height="16.1"/>
		<rect x="-417" y="511" class="st4" width="48.2" height="8"/>
	</g>
	<path class="st5" d="M-426.9,519.3h-9.7c-1.6,0-3-1.3-3-3v-2c0-1.6,1.3-3,3-3h9.7c1.6,0,3,1.3,3,3v2
		C-423.9,517.9-425.2,519.3-426.9,519.3z"/>
	<path class="st5" d="M-349.8,519.3h-11.5c-1.4,0-2.5-1.1-2.5-2.5v-2.9c0-1.4,1.1-2.5,2.5-2.5h11.5c1.4,0,2.5,1.1,2.5,2.5v2.9
		C-347.3,518.1-348.4,519.3-349.8,519.3z"/>
	<g>
		<path class="st6" d="M-400,471.9c-2.8-0.2-5.4-0.8-7.6-2.7c-0.8-0.7-1.7-1.5-2.5-2.2c-0.1-0.1-0.1-0.3-0.2-0.4
			c-1.2-1.8-2.5-3.5-3.6-5.4c-0.5-0.8-0.7-1.9-1-2.9c-0.5-1.6-1.1-3.2-1.6-4.8c-0.4-1.2-1.2-2.4-1.4-3.7c-0.3-1.6-0.2-3.3-0.2-4.9
			c1.8-1.1,2.5-2.7,2.4-4.7c-0.1-2-0.3-4-0.4-6.1c-0.1-1.3,0-2.7,0.7-3.9c0.3-0.5,0.5-1.1,0.6-1.7c0.4-2,0.8-4.1,1.2-6.1
			c0.3-1.5,0.8-3,1.9-4.2c0.5-0.5,1.1-1,1.9-0.9c-4.4,5.2-4.4,11.2-3.6,17.4c0.1-2.1,0.2-4.2,0.5-6.3c0.5-3.8,2.1-7.3,4.3-10.5
			c0.1-0.2,0.4-0.4,0.6-0.3c1.2,0.4,2.3-0.1,3.3-0.7c1.3-0.8,2.5-1.6,3.8-2.5c1.5-1,3-1.4,4.8-1.1c1.1,0.2,2.2,0.6,3.3,0.5
			c1.5-0.1,3-0.5,4.5-0.8c0.6-0.1,1.2-0.3,1.8-0.5c-0.6,3.2-1.8,5.9-4.1,8c-3.3,3-7.3,3.7-11.5,3.4c-0.3,0-0.6,0-0.9-0.1
			c0,0,0,0.1,0,0.1c0.3,0.1,0.7,0.1,1,0.2c1.2,0.1,2.4,0.2,3.6,0.2c6.7,0,11.5-3.6,13.5-10c0.1-0.5,0.3-0.9,0.4-1.4
			c0.1,0,0.1,0.1,0.2,0.1c1,7.3-2.7,11.8-8.9,14.8c2.4-0.7,4.4-1.8,6.3-3.4c3.1-2.6,4.5-6,4.5-10.3c1.3,1,2.5,1.9,3.7,2.8
			c3.4,2.6,5.4,5.9,5.6,10.2c0.1,2.1,0.3,4.1,0.5,6.2c0.3,2.6,0.6,5.1,0.8,7.7c0.2,1.6,0.3,3.3,0.4,4.9c0,1,0,2-0.2,3.1
			c-0.2,1.4-0.3,2.9-0.6,4.3c-0.4,1.9-1,3.7-1.5,5.5c-0.5,1.1-0.9,2.3-1.5,3.4c-0.8,1.6-1.7,3.1-2.6,4.6c-1.2,0.9-2.4,2-3.7,2.8
			c-0.9,0.5-2.1,0.7-3.1,0.9c-1.3,0.3-2.6,0.7-3.9,1c-0.1,0-0.3,0-0.5,0c0.3-0.3,0.6-0.7,1.1-1.2c-5.2,0.4-9.9-0.6-14.3-2.9
			c0.6,0.7,1.2,1.3,1.8,2l0,0c-0.7-0.2-1.5-0.3-2.2-0.5c-1-0.3-1.9-0.7-2.9-1c0,0,0,0-0.1-0.1c0,0,0,0,0.1,0.1
			c0.9,0.7,1.8,1.5,2.8,2.2C-401.7,471-400.9,471.4-400,471.9z M-410.5,436.2c0,0.1,0,0.1-0.1,0.2
			C-410.6,436.3-410.5,436.3-410.5,436.2c0.1-0.1,0.1-0.1,0.2-0.2c0.5-0.4,1.1-0.7,1.6-1.1c1.6-1,3.4-1.5,5.4-1.3
			c-0.1,0.3-0.1,0.5-0.2,0.7c-1.8,0-3.4,0.7-4.4,1.9c0.8-0.3,1.5-0.6,2.3-0.9c0,1.8,0.6,2.5,1.7,2.4c1-0.1,1.5-0.9,1.3-2.3
			c0.5,0.1,1,0.2,1.5,0.3l0,0c0.1,0.1,0.1,0.1,0.2,0.2c0.2,0.6,0.5,1.3,0.7,1.9c1.4-0.6,1.8-2,2.2-3.5c0.7,1.1,1,2.1,0.6,3.2
			c-0.5,1-0.4,2,0,3c0.3-1.1,0.5-2.2,1-3.2c0.7-1.3,0.6-2.5,0-3.8c-0.2-0.4-0.3-0.8-0.5-1.2c-0.3-0.5-0.7-0.9-1.1-1.4
			c-0.1-0.5-0.2-1-0.3-1.6c-0.4,0.7-0.8,0.6-1.2,0.4c-2.3-0.7-4.6-1.1-7-1.2c-2.3-0.1-4.9,2-5.9,4.9c2.5-2.3,5.1-3.8,8.4-2.5
			c0.3,0.5,0.6,1,1,1.7c-0.9,0-1.5-0.1-2.2,0c-2.3,0.2-4,1.5-5.3,3.4C-410.4,436.1-410.5,436.2-410.5,436.2z M-389.7,460.5
			C-389.7,460.5-389.7,460.6-389.7,460.5C-389.7,460.6-389.7,460.6-389.7,460.5C-389.7,460.5-389.7,460.5-389.7,460.5
			c-0.1,0-0.1,0-0.2-0.1C-389.9,460.5-389.8,460.5-389.7,460.5z M-389.3,438.1C-389.3,438-389.3,438-389.3,438.1
			C-389.3,438-389.3,438-389.3,438.1C-389.3,438-389.3,438-389.3,438.1c0.6,0.7,1.1,1.5,1.9,2c1.3,1,2.9,0.9,4.4,0.6
			c-1.1-0.3-2.2-0.4-3.2-0.9C-387.3,439.4-388.3,438.7-389.3,438.1z M-398.7,438.1c-0.1,0-0.2,0-0.3,0.1c-1.7,1.3-3.6,2.3-5.9,2.4
			c1.2,0.5,3.1,0.2,4.2-0.4C-399.8,439.6-399,439.1-398.7,438.1C-398.6,438-398.6,438-398.7,438.1C-398.6,438-398.6,438-398.7,438.1
			z M-387,435.9L-387,435.9c0.5-0.1,1-0.3,1.6-0.5c-0.3,0.9-0.2,1.6,0.5,2.1c0.5,0.4,1.1,0.4,1.7,0c0.8-0.5,0.9-1.3,0.6-2.3
			c0.9,0.4,1.7,0.7,2.5,1c-1.2-1.2-2.6-2-4.4-1.9c0-0.2-0.1-0.4-0.1-0.7c0.3-0.1,0.5-0.2,0.7-0.2c1.7,0.2,3.3,0.4,4.8,1.5
			c0.5,0.4,1,0.7,1.5,1c0,0,0,0,0.1,0.1c0,0,0,0-0.1-0.1c-1-1.5-2.3-2.6-4-3.1c-1-0.3-2.1-0.3-3.2-0.4c-0.1-0.7,0.7-1,1-1.6
			c1-0.1,2-0.4,3-0.3c1.5,0.1,2.7,1,3.8,1.8c0.4,0.3,0.9,0.6,1.3,1c0,0,0,0.1,0,0.1c0,0,0,0,0,0c0,0,0,0,0,0
			c-0.3-0.6-0.5-1.2-0.9-1.7c-1.3-2.1-3.2-3.3-5.7-3c-2.1,0.2-4.1,0.7-6.2,1.1c-0.4,0.1-0.9,0-1.5,0c0,0.6,0,1.3,0,2.1
			c-0.6,2.1,0.6,6,2.1,6c0.2-0.7,0.4-1.3,0.7-1.9C-387.1,436-387,436-387,435.9z M-401,444.8L-401,444.8c0.3,0.8,0.5,1.6,0.8,2.3
			c0.2,0.5,0.5,0.4,0.9,0.2c1-0.6,1.7-0.4,2.3,0.7c-0.4,0.1-0.8,0.1-1.2,0.3c-2.4,1.2-4.7,2.8-6.7,4.7c-0.3,0.3-0.6,0.8-0.6,1.2
			c0,1,0.2,2.1,0.3,3.1c0.1,0,0.1,0,0.2,0.1c1-1.4,2.2-2,3.9-1.4c0.3-0.5,0.7-0.9,1.3-0.4c0,0,0.2-0.1,0.3-0.1
			c0.4-0.1,0.9-0.1,1.3-0.2c3-0.6,6-1,9.1,0c1.1,0.4,2.3,0.6,3.4,0.9c0.2,0.2,0.3,0.4,0.5,0.6c0.1-0.1,0.3-0.2,0.3-0.1
			c0.7,0.5,1.4,0.8,2.1,1.3c0.1-0.2,0.3-0.3,0.3-0.5c0-1.3,0-2.5-0.1-3.8c0-0.4-0.3-0.8-0.6-1.1c-1.9-1.7-3.9-3.3-6.4-4.2
			c-0.6-0.2-1.2-0.2-1.8-0.3c-0.6-0.1-1.1-0.2-1.7-0.2c0.3-0.9,0.4-0.9,1.3-0.6c0.9,0.2,1.8,0.4,2.8,0.4c1.1,0.1,1.6-0.6,1.6-1.7
			c0-0.3,0-0.6,0-0.9c2,1.5,2.8,3.7,3.6,5.9c0.2-2.2-2.4-6.5-4-7.2c0,0.6,0.2,1.2,0,1.6c-0.2,0.6-0.6,1.2-1.1,1.6
			c-0.2,0.1-0.9-0.3-1.3-0.6c-0.6-0.5-1.2-1.1-1.7-1.6c-0.6,0.6-1.1,1.3-1.6,1.8c-1.1,1-2.9,1.3-3.6-0.6c-0.1-0.3-0.4-0.6-0.6-0.9
			c-0.4,0.5-0.6,0.9-1,1.2c-0.3,0.2-0.8,0.1-1.2,0c-0.1-0.1-0.1-0.7,0-1c0.1-0.2,0.3-0.4,0.4-0.6c0.9-1.2,1.2-2.4,0.9-3.9
			c-0.2,0.7-0.5,1.3-0.6,1.9c0,0.6-0.2,0.8-0.7,0.9c-2.2,0.5-3.6,1.9-4.3,4c-0.4,1-0.6,2-0.8,3c0.1,0,0.1,0,0.2,0.1
			C-404.1,448.2-403,446.2-401,444.8z M-404.5,458.7c-1.2,2.4,0.5,4.9,3.3,4.8C-403.4,462.6-404.5,461.1-404.5,458.7z M-390.2,460.5
			c-1.2-1.3-5.7-1.6-7.2-0.3C-394.8,459.4-392.6,459.5-390.2,460.5z M-397.9,460.3C-397.9,460.3-397.8,460.3-397.9,460.3
			C-397.8,460.3-397.9,460.3-397.9,460.3C-397.9,460.3-397.9,460.3-397.9,460.3C-397.9,460.3-397.9,460.3-397.9,460.3z
			 M-383.5,451.4C-383.5,451.4-383.5,451.4-383.5,451.4C-383.5,451.4-383.5,451.4-383.5,451.4C-383.5,451.5-383.5,451.5-383.5,451.4
			C-383.5,451.5-383.5,451.5-383.5,451.4z"/>
		<path class="st7" d="M-371.3,446.2c-0.1-1.6-0.3-3.3-0.4-4.9c-0.3-2.6-0.6-5.1-0.8-7.7c-0.2-2.1-0.4-4.1-0.5-6.2
			c-0.2-4.3-2.2-7.6-5.6-10.2c-1.2-0.9-2.4-1.8-3.7-2.8c0,4.2-1.5,7.6-4.5,10.3c-1.8,1.6-3.9,2.8-6.3,3.4c6.2-3,9.9-7.5,8.9-14.8
			c-0.1,0-0.1-0.1-0.2-0.1c-0.1,0.5-0.3,0.9-0.4,1.4c-1.9,6.4-6.8,10-13.5,10c-1.2,0-2.4-0.1-3.6-0.2c0-0.1,0-0.2-0.1-0.2
			c4.3,0.3,8.2-0.4,11.5-3.4c2.3-2.1,3.5-4.8,4.1-8c-0.7,0.2-1.2,0.4-1.8,0.5c-1.5,0.3-3,0.7-4.5,0.8c-1.1,0.1-2.2-0.3-3.3-0.5
			c-1.8-0.3-3.3,0.1-4.8,1.1c-1.2,0.8-2.5,1.7-3.8,2.5c-1,0.6-2.1,1-3.3,0.7c-0.2,0-0.5,0.2-0.6,0.3c-2.2,3.2-3.8,6.6-4.3,10.5
			c-0.3,2.1-0.3,4.2-0.5,6.3c-0.7-6.2-0.7-12.2,3.6-17.4c-0.9-0.1-1.4,0.3-1.9,0.9c-1.1,1.2-1.5,2.7-1.9,4.2c-0.4,2-0.8,4.1-1.2,6.1
			c-0.1,0.6-0.3,1.2-0.6,1.7c-0.7,1.2-0.7,2.5-0.7,3.9c0.1,2,0.3,4,0.4,6.1c0.1,2-0.6,3.7-2.4,4.7c-0.1-1-0.4-2-1.2-2.7
			c-0.7-0.6-1.2-0.7-2-0.2c-0.4,0.2-0.8,0.5-1.1,0.8c-1.1,0-2-0.6-2.6-1.5c-0.6-0.9-1-1.9-1.5-2.9c0.7,0.4,1.5,0.8,2.2,1.2
			c1.3,0.6,1.6,0.4,1.8-1c0.1-1,0-2,0-3c0-1-0.1-2-0.2-3c0-0.3,0-0.5,0-0.8c0.2-2,0.5-4,0.7-5.9c0.1-0.6,0.2-1.2,0.3-1.7
			c0-0.1,0-0.3,0-0.4c0,0-0.1,0-0.1,0c-0.1,0.1-0.1,0.3-0.2,0.4c-1.1,2.3-1.1,4.8-1.2,7.3c-0.1-0.6-0.2-1.2-0.3-1.8
			c-0.3-2.9,0.1-5.7,0.7-8.5c0.4-2.1,1-4.2,1.5-6.3c0.6-2.5,2.1-4.3,4-5.9c1.5-1.3,3.2-2.4,4.8-3.6c0.2-0.2,0.5-0.3,0.8-0.5
			c-0.8-0.2-2.1,0-3.4,0.8c-1,0.6-2,1.4-3,2c0.5-0.6,0.9-1.2,1.4-1.7c2-1.9,4.4-2.9,7-3.4c0.7-0.1,1.2-0.3,1.6-1
			c1.7-3.2,4.5-4.1,7.9-2.7c0.2,0.1,0.3,0.1,0.5,0.2c0,0,0,0.1,0.1,0.1c0,0,0-0.1,0-0.1c0,0-0.1,0-0.1,0c0-1.1-0.7-1.7-1.5-2.2
			c-1.2-0.8-2.6-1.1-4-1.2c-0.3,0-0.5-0.1-0.8-0.1c3.4-0.9,6.4,0,8.4,2.6c1.1-2.5,3.2-3.1,5.7-3c1,0,1.6,0.5,2,1.4
			c0.7,1.7,1.7,1.9,2.9,0.6c1-1.1,1.8-2.3,2.7-3.5c0.7,1,0.7,2.1,0.2,3.3c-0.1,0.3-0.3,0.6-0.4,0.8c0,0-0.1,0.1-0.1,0.1
			c0,0,0.1,0,0.1,0c0,0,0-0.1,0-0.1c0.9,0,1.4-0.6,1.9-1.2c0.8-1.1,0.8-2.3,0.6-3.6c0-0.2-0.1-0.4-0.1-0.6c2.5,1.8,2.9,4.4,1.1,7.3
			c4.3-1,8.2-0.7,11.6,2.4c-1-0.1-1.9-0.3-2.9-0.3c-0.9,0-1.8,0.2-2.7,0.3c2.5,0.2,4.9,0.3,7.2,1.6c-2.5-0.1-4.7,0.6-6.9,1.8
			c0,0.1,0,0.1,0.1,0.1c2.6,0.6,3.9,2.5,4.9,4.8c0.1,0.2,0.2,0.5,0.3,0.7c1.9,1.9,2.7,4.3,3,6.8c0.3,2.2,0.4,4.5,0.4,6.7
			c-0.3-2.2-0.5-4.4-1.5-6.4c-0.1,0-0.1,0-0.2,0c0,0,0.1,0.1,0.1,0.1c0.3,3.2,0.5,6.4,0.8,9.5c0.1,1.8,0.6,3.6,1.4,5.2
			c0.5,0.9,0.5,1.8,0.4,2.8c-0.1,0.9-0.1,1.8,0,2.7c0.2,1.7,0,3.3-0.6,4.9c-1.4-0.1-2.6,0.2-3.7,1
			C-370,445.1-370.6,445.7-371.3,446.2z M-375.7,402.4C-375.7,402.4-375.7,402.4-375.7,402.4c0.1,0.1,0.2,0,0.3,0c0,0,0-0.1,0-0.1
			C-375.5,402.4-375.6,402.4-375.7,402.4z"/>
		<path class="st8" d="M-371.3,446.2c0.7-0.6,1.3-1.1,2-1.7c1.1-0.8,2.3-1.2,3.7-1c0.9,1.5,0.6,3.1,0.4,4.7c-0.3,3-1.5,5.9-2.4,8.8
			c-0.2,0.6-0.7,1.1-1,1.7c-0.1,0.1-0.3,0.2-0.4,0.3c-1.5,1.6-2.9,1.7-4.5,0.1c0.5-1.8,1.1-3.7,1.5-5.5c0.3-1.4,0.5-2.9,0.6-4.3
			C-371.3,448.3-371.3,447.3-371.3,446.2z"/>
		<path class="st9" d="M-373.6,459.1c1.6,1.5,3.1,1.5,4.5-0.1c0.1-0.1,0.3-0.2,0.4-0.3c0,0.1,0,0.1,0,0.2c0,0.3,0,0.6-0.1,1
			c0.4,0,0.8,0,1.2-0.1c0.7-0.3,1.1-0.9,1.2-1.7c0-0.2,0.1-0.3,0.1-0.6c0.9,2-0.8,4.6-3.5,5.7c1.8,0.4,3.3-0.5,3.8-1.7
			c0.3,1.2-0.5,2.9-1.6,3.9c-1.2,1-2.6,1.2-4.1,1.1c1.4,0.9,2.9,1.3,4.4,0.2c0.1,1.2-1.6,3.1-3.4,3.6c-2.8,0.8-5.7-0.4-6.9-2.9
			c0.9-1.5,1.8-3.1,2.6-4.6C-374.5,461.4-374.1,460.3-373.6,459.1z"/>
		<path class="st8" d="M-422.5,442.9c0.4-0.3,0.7-0.5,1.1-0.8c0.8-0.5,1.3-0.4,2,0.2c0.8,0.7,1.1,1.7,1.2,2.7
			c0.1,1.6-0.1,3.3,0.2,4.9c0.2,1.3,1,2.5,1.4,3.7c0.6,1.6,1.1,3.2,1.6,4.8c-1.4,1.2-2.8,1.5-4.5,0.5c-0.1,0-0.2,0-0.3,0
			c-0.9-1.3-1.7-2.7-1.9-4.3c-0.2-1.4-0.4-2.8-0.5-4.2c-0.2-1.6-0.4-3.2-0.6-4.8C-422.9,444.7-423,443.7-422.5,442.9z"/>
		<path class="st10" d="M-419.7,458.8c0.1,0,0.2,0,0.3,0c1.6,1,3.1,0.7,4.5-0.5c0.3,1,0.5,2,1,2.9c1.1,1.8,2.4,3.6,3.6,5.4
			c0.1,0.1,0.1,0.3,0.2,0.4c-2.8,3.6-7.5,3.5-10.6-0.4c2.1,1,3.8,0.8,5.3-1.1c-2.7,0.8-4.3-0.6-5.7-2.4c1.4,0.5,2.7,0.4,3.9-0.7
			c-1.8,0.5-3.1-0.5-4.3-1.7c0.1,0,0.2,0,0.3,0c0.1,0,0.2,0.1,0.4,0c-0.3-0.4-0.7-0.8-1-1.2c0,0,0,0,0.1-0.1
			C-421.1,459.5-420.3,459.6-419.7,458.8z"/>
		<path class="st11" d="M-405.3,468.2c1,0.3,1.9,0.7,2.9,1c0.7,0.2,1.5,0.3,2.2,0.5c0,0,0,0,0,0.1c0,0,0,0,0,0c0,0,0,0-0.1-0.1
			c-0.6-0.7-1.2-1.3-1.8-2c4.4,2.4,9.1,3.4,14.3,2.9c-0.5,0.5-0.8,0.8-1.1,1.2c-3.5,1.2-7.1,0.7-10.6,0.1c-0.2,0-0.4-0.1-0.6-0.1
			c-0.8-0.5-1.7-0.9-2.5-1.4C-403.5,469.8-404.4,469-405.3,468.2C-405.3,468.2-405.3,468.2-405.3,468.2z"/>
		<path class="st10" d="M-421.9,459.3c0,0-0.1-0.1-0.1-0.1C-422,459.2-421.9,459.2-421.9,459.3
			C-421.9,459.3-421.9,459.3-421.9,459.3z"/>
		<path class="st12" d="M-422.8,431.9c0,0.3,0,0.5,0,0.8c-0.1-0.3-0.3-0.6-0.4-0.9C-423.1,431.8-422.9,431.9-422.8,431.9z"/>
		<path class="st12" d="M-422,424.2c0.1-0.1,0.1-0.3,0.2-0.4c0,0,0.1,0,0.1,0c0,0.1,0,0.3,0,0.4C-421.9,424.2-422,424.2-422,424.2z"
			/>
		<path class="st7" d="M-418.4,408c0.1,0,0.1-0.1,0.2-0.1C-418.3,408-418.3,408-418.4,408C-418.4,408-418.4,408-418.4,408z"/>
		<path class="st7" d="M-418.3,408.1c0,0-0.1,0.1-0.1,0.1C-418.5,408.1-418.4,408.1-418.3,408.1C-418.4,408-418.4,408-418.3,408.1z"
			/>
		<path class="st7" d="M-399.3,455.4c-0.1,0-0.3,0.2-0.3,0.1c-0.6-0.5-1-0.2-1.3,0.4c-1.7-0.6-2.9,0.1-3.9,1.4c-0.1,0-0.1,0-0.2-0.1
			c-0.1-1-0.3-2.1-0.3-3.1c0-0.4,0.3-0.9,0.6-1.2c2-1.9,4.2-3.4,6.7-4.7c0.4-0.2,0.8-0.2,1.2-0.3c0.4,0.1,1,0.1,1.3,0.3
			c0.6,0.5,1.1,0.3,1.6,0.1c0.4-0.2,0.7-0.4,1.1-0.6c0.6,0.1,1.1,0.2,1.7,0.2c0.6,0.1,1.2,0.1,1.8,0.3c2.5,0.9,4.5,2.4,6.4,4.2
			c0.3,0.3,0.6,0.7,0.6,1.1c0.1,1.3,0.1,2.5,0.1,3.8c0,0.2-0.2,0.3-0.3,0.5c-0.7-0.4-1.3-0.8-2.1-1.3c0,0-0.1,0.1-0.3,0.1
			c-0.2-0.2-0.3-0.4-0.5-0.6c-0.4-0.8-1.5-1.3-2.7-1.1c-0.1-0.2-0.2-0.4-0.4-0.7c-0.9,0.3-1.6,0.2-2.3-0.3c-0.5-0.3-1.3-0.5-1.8-0.3
			c-1,0.4-1.9,0.2-2.9,0.1c-0.3,0.4-0.6,0.5-1,0c-0.2,0.3-0.3,0.5-0.5,0.8c-0.2-0.2-0.4-0.4-0.6-0.6c-0.3,0.4-0.5,1-1.1,0.5
			C-399,454.9-399.2,455.2-399.3,455.4z"/>
		<path class="st13" d="M-403.4,434.4c0-0.2,0.1-0.4,0.2-0.7c-2-0.2-3.8,0.3-5.4,1.3c-0.6,0.3-1.1,0.7-1.6,1.1c0,0,0,0,0,0
			c1.3-1.9,2.9-3.2,5.3-3.4c0.6-0.1,1.3,0,2.2,0c-0.4-0.7-0.7-1.2-1-1.7c1.7,0.5,3.4,1.1,5.4,1.7c0.2-0.5,0.4-1.1,0.7-1.7
			c0.4,0.5,0.8,0.9,1.1,1.4c0.2,0.4,0.3,0.8,0.5,1.2c0.6,1.3,0.6,2.5,0,3.8c-0.5,1-0.7,2.1-1,3.2c-0.5-1-0.5-2,0-3
			c0.5-1.1,0.1-2.1-0.6-3.2c-0.4,1.5-0.8,2.8-2.2,3.5c-0.2-0.7-0.5-1.3-0.7-1.9c-0.1-0.1-0.1-0.1-0.2-0.2c0,0,0,0,0,0
			c-0.2-0.2-0.3-0.5-0.5-0.6C-402.1,434.9-402.8,434.6-403.4,434.4z"/>
		<path class="st11" d="M-393,447.8c-0.4,0.2-0.7,0.4-1.1,0.6c-0.5,0.3-1,0.4-1.6-0.1c-0.3-0.3-0.8-0.2-1.3-0.3
			c-0.6-1.1-1.3-1.3-2.3-0.7c-0.4,0.3-0.7,0.3-0.9-0.2c-0.3-0.8-0.5-1.6-0.8-2.3c0,0,0,0,0-0.1c0,0,0,0,0,0.1
			c-2,1.4-3.1,3.4-3.7,5.7c-0.1,0-0.1,0-0.2-0.1c0.3-1,0.5-2,0.8-3c0.8-2,2.2-3.4,4.3-4c0.5-0.1,0.7-0.4,0.7-0.9
			c0-0.6,0.4-1.2,0.6-1.9c0.3,1.5,0,2.8-0.9,3.9c-0.2,0.2-0.4,0.4-0.4,0.6c-0.1,0.3-0.1,0.9,0,1c0.3,0.1,0.9,0.2,1.2,0
			c0.4-0.2,0.6-0.7,1-1.2c0.2,0.3,0.5,0.6,0.6,0.9c0.7,1.9,2.5,1.6,3.6,0.6c0.6-0.5,1.1-1.2,1.6-1.8c0.6,0.5,1.1,1.1,1.7,1.6
			c0.4,0.3,1.1,0.8,1.3,0.6c0.5-0.3,0.9-1,1.1-1.6c0.2-0.5,0-1.1,0-1.6c1.6,0.7,4.2,5,4,7.2c-0.8-2.2-1.7-4.3-3.6-5.9
			c0,0.3,0,0.6,0,0.9c0,1.1-0.6,1.7-1.6,1.7c-0.9-0.1-1.9-0.2-2.8-0.4C-392.5,446.9-392.7,446.9-393,447.8z"/>
		<path class="st14" d="M-389.9,431.9c0-0.8,0-1.5,0-2.1c0.7,0,1.1,0.1,1.5,0c2.1-0.3,4.1-0.8,6.2-1.1c2.5-0.3,4.4,1,5.7,3
			c0.3,0.5,0.6,1.1,0.9,1.7l0,0c-0.4-0.3-0.9-0.7-1.3-1c-1.2-0.9-2.4-1.7-3.8-1.8c-1-0.1-2,0.2-3,0.3c-1.4,0.5-2.9,0.9-4.3,1.4
			C-389.2,432.8-389.1,432.9-389.9,431.9z"/>
		<path class="st15" d="M-397.9,431c-0.3,0.6-0.5,1.3-0.7,1.7c-1.9-0.6-3.7-1.2-5.4-1.7c-3.4-1.3-5.9,0.2-8.4,2.5
			c1-2.9,3.6-4.9,5.9-4.9c2.4,0.1,4.7,0.5,7,1.2c0.4,0.1,0.8,0.3,1.2-0.4C-398.1,430-398,430.5-397.9,431z"/>
		<path class="st16" d="M-389.9,431.9c0.8,1,0.8,0.9,1.9,0.5c1.4-0.5,2.8-0.9,4.3-1.4c-0.3,0.6-1.2,0.9-1,1.6
			c1.1,0.1,2.2,0.1,3.2,0.4c1.7,0.5,3.1,1.5,4,3.1l0,0c-0.5-0.3-1-0.6-1.5-1c-1.4-1-3.1-1.3-4.8-1.5c-0.2,0-0.4,0.1-0.7,0.2
			c0,0.2,0.1,0.5,0.1,0.7c-0.4,0.1-0.7,0.2-1.1,0.4c-0.5,0.3-0.9,0.7-1.4,1.1c0,0,0,0,0,0c-0.1,0.1-0.1,0.1-0.2,0.2
			c-0.2,0.6-0.4,1.2-0.7,1.9C-389.3,437.9-390.5,434-389.9,431.9z"/>
		<path class="st17" d="M-387,435.9c0.5-0.4,0.9-0.8,1.4-1.1c0.3-0.2,0.7-0.3,1.1-0.4c1.8-0.2,3.2,0.7,4.4,1.9
			c-0.8-0.3-1.6-0.6-2.5-1c0.3,1,0.2,1.8-0.6,2.3c-0.6,0.3-1.1,0.3-1.7,0c-0.7-0.5-0.8-1.2-0.5-2.1
			C-386,435.6-386.5,435.8-387,435.9z"/>
		<path class="st18" d="M-403.4,434.4c0.6,0.3,1.3,0.5,1.9,0.8c0.2,0.1,0.4,0.4,0.5,0.6c-0.5-0.1-1-0.2-1.5-0.3
			c0.2,1.4-0.3,2.2-1.3,2.3c-1.1,0.1-1.7-0.6-1.7-2.4c-0.8,0.3-1.6,0.6-2.3,0.9C-406.8,435.1-405.2,434.4-403.4,434.4z"/>
		<path class="st19" d="M-399.3,455.4c0.2-0.3,0.3-0.5,0.5-0.9c0.7,0.6,0.8-0.1,1.1-0.5c0.2,0.2,0.3,0.4,0.6,0.6
			c0.2-0.3,0.3-0.5,0.5-0.8c0.4,0.5,0.8,0.3,1,0c1,0.1,1.9,0.3,2.9-0.1c0.5-0.2,1.3-0.1,1.8,0.3c0.8,0.5,1.5,0.7,2.3,0.3
			c0.1,0.3,0.3,0.5,0.4,0.7c1.2-0.1,2.2,0.3,2.7,1.1c-1.2-0.3-2.3-0.5-3.4-0.9c-3-1.1-6.1-0.7-9.1,0
			C-398.5,455.3-398.9,455.3-399.3,455.4z"/>
		<path class="st20" d="M-398.7,438.1c-0.4,1-1.1,1.6-2,2.1c-1.1,0.6-3,0.9-4.2,0.4c2.3-0.1,4.2-1.1,5.9-2.4
			C-398.9,438.1-398.8,438.1-398.7,438.1L-398.7,438.1z"/>
		<path class="st20" d="M-404.5,458.7c0,2.4,1.2,3.9,3.3,4.8C-404.1,463.5-405.7,461.1-404.5,458.7z"/>
		<path class="st20" d="M-389.3,438.1c1,0.6,2,1.3,3,1.8c1,0.4,2.2,0.6,3.2,0.9c-1.5,0.2-3,0.3-4.4-0.6
			C-388.1,439.6-388.7,438.7-389.3,438.1L-389.3,438.1z"/>
		<path class="st21" d="M-390.2,460.5c-2.4-1-4.7-1.1-7.2-0.3C-395.9,458.9-391.3,459.1-390.2,460.5z"/>
		<path class="st22" d="M-402.1,424.1c0,0.1,0,0.2,0.1,0.2c-0.3-0.1-0.7-0.1-1-0.2c0,0,0-0.1,0-0.1
			C-402.7,424.1-402.4,424.1-402.1,424.1z"/>
		<path class="st21" d="M-389.7,460.5c-0.1,0-0.1,0-0.2-0.1C-389.9,460.5-389.8,460.5-389.7,460.5L-389.7,460.5z"/>
		<path class="st21" d="M-397.9,460.3C-397.9,460.3-397.9,460.3-397.9,460.3C-397.9,460.3-397.9,460.3-397.9,460.3
			C-397.9,460.3-397.8,460.3-397.9,460.3C-397.8,460.3-397.9,460.3-397.9,460.3z"/>
		<path class="st13" d="M-410.5,436.2c0,0.1,0,0.1-0.1,0.2C-410.6,436.3-410.5,436.3-410.5,436.2
			C-410.5,436.2-410.5,436.2-410.5,436.2z"/>
		<path class="st11" d="M-383.5,451.4C-383.5,451.5-383.5,451.5-383.5,451.4C-383.5,451.5-383.5,451.5-383.5,451.4
			C-383.5,451.4-383.5,451.4-383.5,451.4C-383.5,451.4-383.5,451.4-383.5,451.4z"/>
		<path class="st11" d="M-405.3,468.2C-405.3,468.2-405.3,468.2-405.3,468.2C-405.3,468.2-405.3,468.2-405.3,468.2
			C-405.3,468.2-405.3,468.2-405.3,468.2z"/>
		<path class="st21" d="M-389.7,460.5C-389.7,460.5-389.7,460.5-389.7,460.5C-389.7,460.6-389.7,460.6-389.7,460.5
			C-389.7,460.6-389.7,460.5-389.7,460.5C-389.7,460.5-389.7,460.5-389.7,460.5z"/>
		<path class="st20" d="M-389.3,438.1C-389.3,438-389.3,438-389.3,438.1C-389.3,438-389.3,438-389.3,438.1
			C-389.3,438-389.3,438-389.3,438.1C-389.3,438.1-389.3,438.1-389.3,438.1z"/>
		<path class="st20" d="M-398.7,438.1C-398.6,438-398.6,438-398.7,438.1C-398.6,438-398.6,438-398.7,438.1
			C-398.7,438.1-398.7,438.1-398.7,438.1z"/>
		<path class="st16" d="M-377.6,436.1C-377.6,436.1-377.5,436.1-377.6,436.1C-377.5,436.1-377.6,436.1-377.6,436.1
			C-377.6,436.1-377.6,436.1-377.6,436.1z"/>
		<path class="st13" d="M-410.5,436.2c0.1-0.1,0.1-0.1,0.2-0.2c0,0,0,0,0,0C-410.4,436.1-410.5,436.2-410.5,436.2
			C-410.5,436.2-410.5,436.2-410.5,436.2z"/>
		<path class="st17" d="M-387.1,436.1c0.1-0.1,0.1-0.1,0.2-0.2C-387,436-387.1,436-387.1,436.1z"/>
		<path class="st18" d="M-401,435.7c0.1,0.1,0.1,0.1,0.2,0.2C-400.9,435.9-400.9,435.8-401,435.7z"/>
		<path class="st14" d="M-375.6,433.4C-375.6,433.5-375.5,433.5-375.6,433.4C-375.5,433.5-375.5,433.5-375.6,433.4
			C-375.5,433.5-375.6,433.5-375.6,433.4C-375.6,433.4-375.6,433.4-375.6,433.4z"/>
		<path class="st6" d="M-400.2,469.8C-400.2,469.8-400.2,469.8-400.2,469.8C-400.2,469.8-400.2,469.8-400.2,469.8
			C-400.2,469.8-400.2,469.8-400.2,469.8C-400.2,469.8-400.2,469.8-400.2,469.8z"/>
		<path class="st6" d="M-401,444.8C-401,444.8-400.9,444.8-401,444.8C-401,444.8-401,444.8-401,444.8
			C-401,444.8-401,444.8-401,444.8z"/>
	</g>
	<g>
		<path class="st0" d="M-414.5,478.3h1.9v8h3.4v1.6h-5.3C-414.5,487.9-414.5,478.3-414.5,478.3z"/>
		<path class="st0" d="M-408.4,482.7c0-0.4,0.1-0.8,0.2-1.1c0.1-0.3,0.3-0.5,0.5-0.7c0.2-0.2,0.5-0.3,0.8-0.4c0.3-0.1,0.6-0.1,1-0.1
			c0.6,0,1,0.1,1.3,0.2c0.3,0.1,0.6,0.3,0.8,0.5c0.2,0.2,0.3,0.4,0.4,0.7c0.1,0.3,0.1,0.6,0.1,0.9v3.8c0,0.3,0,0.6,0,0.8
			c0,0.2,0.1,0.4,0.2,0.6h-1.8c-0.1-0.1-0.1-0.2-0.1-0.4c0-0.1-0.1-0.3-0.1-0.4l0,0c-0.2,0.4-0.5,0.6-0.7,0.7
			c-0.3,0.1-0.6,0.2-1.1,0.2c-0.3,0-0.6-0.1-0.8-0.2c-0.2-0.1-0.4-0.3-0.5-0.5c-0.1-0.2-0.2-0.4-0.3-0.7c-0.1-0.2-0.1-0.5-0.1-0.7
			c0-0.3,0-0.6,0.1-0.9c0.1-0.2,0.2-0.5,0.3-0.6c0.1-0.2,0.3-0.3,0.6-0.4c0.2-0.1,0.5-0.2,0.8-0.3l1-0.3c0.3-0.1,0.5-0.2,0.6-0.3
			c0.1-0.1,0.2-0.3,0.2-0.5c0-0.3-0.1-0.5-0.2-0.6c-0.1-0.2-0.4-0.2-0.7-0.2c-0.3,0-0.5,0.1-0.6,0.3c-0.1,0.2-0.2,0.4-0.2,0.7v0.2
			h-1.7V482.7z M-405.4,484.5c-0.1,0.1-0.3,0.1-0.4,0.1c-0.4,0.1-0.6,0.2-0.8,0.4c-0.2,0.2-0.2,0.4-0.2,0.8c0,0.3,0.1,0.5,0.2,0.7
			s0.3,0.3,0.5,0.3c0.1,0,0.3,0,0.4-0.1c0.1,0,0.3-0.1,0.4-0.2c0.1-0.1,0.2-0.2,0.3-0.3s0.1-0.3,0.1-0.5v-1.4
			C-405.1,484.4-405.3,484.4-405.4,484.5z"/>
		<path class="st0" d="M-396.4,485.4L-396.4,485.4l1.5-7.1h2l-2.2,9.6h-2.5l-2.2-9.6h2.1L-396.4,485.4z"/>
		<path class="st0" d="M-392.6,482.6c0.1-0.5,0.3-0.9,0.5-1.2c0.2-0.3,0.5-0.6,0.9-0.7c0.4-0.2,0.8-0.2,1.3-0.2c0.6,0,1,0.1,1.4,0.2
			c0.4,0.2,0.7,0.4,0.9,0.7c0.2,0.3,0.4,0.7,0.5,1.2c0.1,0.5,0.1,1,0.1,1.7c0,0.6,0,1.2-0.1,1.6c-0.1,0.5-0.3,0.9-0.5,1.2
			c-0.2,0.3-0.5,0.6-0.9,0.7c-0.4,0.2-0.8,0.2-1.3,0.2c-0.6,0-1-0.1-1.4-0.2c-0.4-0.1-0.7-0.4-0.9-0.7c-0.2-0.3-0.4-0.7-0.5-1.2
			s-0.1-1-0.1-1.7C-392.7,483.7-392.7,483.1-392.6,482.6z M-390.9,485.3c0,0.3,0.1,0.6,0.1,0.8c0.1,0.2,0.2,0.4,0.3,0.5
			s0.3,0.2,0.5,0.2c0.4,0,0.6-0.2,0.8-0.6c0.1-0.4,0.2-1,0.2-1.9c0-0.9-0.1-1.5-0.2-1.9c-0.1-0.4-0.4-0.6-0.8-0.6
			c-0.2,0-0.4,0.1-0.5,0.2s-0.2,0.3-0.3,0.5c-0.1,0.2-0.1,0.5-0.1,0.8c0,0.3,0,0.7,0,1C-390.9,484.6-390.9,485-390.9,485.3z"/>
		<path class="st0" d="M-384.2,478.3v9.6h-1.8v-9.6H-384.2z"/>
		<path class="st0" d="M-381.1,480.7v0.8l0,0c0.2-0.3,0.4-0.6,0.7-0.7c0.3-0.1,0.6-0.2,0.9-0.2c0.8,0,1.3,0.3,1.7,0.9
			c0.4,0.6,0.5,1.6,0.5,2.9c0,1.3-0.2,2.3-0.5,2.9c-0.4,0.6-0.9,0.9-1.7,0.9c-0.3,0-0.6-0.1-0.9-0.2c-0.2-0.1-0.5-0.3-0.7-0.6l0,0v3
			h-1.8v-9.5h1.8V480.7z M-380.8,486c0.1,0.4,0.4,0.6,0.8,0.6s0.7-0.2,0.8-0.6c0.1-0.4,0.2-1,0.2-1.8c0-0.8-0.1-1.4-0.2-1.8
			c-0.1-0.4-0.4-0.6-0.8-0.6s-0.7,0.2-0.8,0.6c-0.1,0.4-0.2,1-0.2,1.8C-381,485.1-380.9,485.6-380.8,486z"/>
		<path class="st0" d="M-374.6,485.1c0,0.2,0,0.4,0,0.6c0,0.2,0.1,0.4,0.2,0.5c0.1,0.2,0.2,0.3,0.3,0.4s0.3,0.1,0.4,0.1
			c0.3,0,0.5-0.1,0.7-0.3c0.1-0.2,0.2-0.6,0.3-1h1.7c0,0.8-0.3,1.5-0.7,1.9c-0.4,0.4-1.1,0.7-1.9,0.7c-0.7,0-1.2-0.1-1.6-0.3
			c-0.4-0.2-0.7-0.5-0.8-0.9c-0.2-0.4-0.3-0.8-0.3-1.2c0-0.5-0.1-0.9-0.1-1.4s0-0.9,0.1-1.4c0.1-0.4,0.2-0.8,0.4-1.2
			c0.2-0.3,0.5-0.6,0.9-0.8s0.9-0.3,1.5-0.3c0.5,0,1,0.1,1.3,0.3c0.3,0.2,0.6,0.4,0.8,0.7c0.2,0.3,0.3,0.7,0.4,1.2
			c0.1,0.5,0.1,1,0.1,1.5v0.4h-3.7C-374.6,484.6-374.6,485.1-374.6,485.1z M-372.7,482.7c0-0.2-0.1-0.4-0.1-0.5
			c-0.1-0.1-0.2-0.3-0.3-0.3c-0.1-0.1-0.3-0.1-0.5-0.1c-0.2,0-0.3,0-0.5,0.1c-0.1,0.1-0.2,0.2-0.3,0.3c-0.1,0.1-0.1,0.3-0.2,0.5
			c0,0.2,0,0.3,0,0.5v0.3h1.9C-372.7,483.2-372.7,482.9-372.7,482.7z"/>
	</g>
</g>
</svg>
