<?xml version="1.0" encoding="utf-8"?>
<!-- Generator: Adobe Illustrator 19.1.0, SVG Export Plug-In . SVG Version: 6.00 Build 0)  -->
<!DOCTYPE svg PUBLIC "-//W3C//DTD SVG 1.1//EN" "http://www.w3.org/Graphics/SVG/1.1/DTD/svg11.dtd">
<svg version="1.1" id="Layer_1" xmlns="http://www.w3.org/2000/svg" xmlns:xlink="http://www.w3.org/1999/xlink" x="0px" y="0px"
	 viewBox="0 0 105 157" style="enable-background:new 0 0 105 157;" xml:space="preserve">
<style type="text/css">
	.st0{fill:#FCFCFC;}
	.st1{fill:#C4C4C4;}
	.st2{fill:#E8E8E8;}
	.st3{fill:#141414;}
	.st4{fill:#B71515;}
</style>
<g>
	<polygon class="st0" points="90.5,0 6,0 7.4,151.7 95.8,151.7 	"/>
	<polygon class="st1" points="9.1,157 90.2,157 95.8,151.7 7.2,151.7 	"/>
	<rect x="15.1" y="5" class="st2" width="68.4" height="15.9"/>
	<rect x="26.6" y="9.4" class="st3" width="46.8" height="7.9"/>
	<path class="st4" d="M91.7,18.1H81.4c-1.4,0-2.5-1.1-2.5-2.5v-2.4c0-1.4,1.1-2.5,2.5-2.5h10.3c1.4,0,2.5,1.1,2.5,2.5v2.4
		C94.2,16.9,93.1,18.1,91.7,18.1z"/>
	<path class="st4" d="M16.8,17.7l-11.3,0c-1.4,0-2.5-1.1-2.5-2.5v-2.4c0-1.4,1.1-2.5,2.5-2.5h11.3c1.4,0,2.5,1.1,2.5,2.5v2.4
		C19.3,16.5,18.2,17.7,16.8,17.7z"/>
</g>
</svg>
