<?xml version="1.0" encoding="utf-8"?>
<!-- Generator: Adobe Illustrator 19.1.0, SVG Export Plug-In . SVG Version: 6.00 Build 0)  -->
<!DOCTYPE svg PUBLIC "-//W3C//DTD SVG 1.1//EN" "http://www.w3.org/Graphics/SVG/1.1/DTD/svg11.dtd">
<svg version="1.1" id="Layer_1" xmlns="http://www.w3.org/2000/svg" xmlns:xlink="http://www.w3.org/1999/xlink" x="0px" y="0px"
	 viewBox="0 0 105 157" style="enable-background:new 0 0 105 157;" xml:space="preserve">
<style type="text/css">
	.st0{fill:#FCFCFC;}
	.st1{fill:#C4C4C4;}
	.st2{fill:#E8E8E8;}
	.st3{fill:#141414;}
	.st4{fill:#B71515;}
</style>
<g>
	<polygon class="st0" points="97.5,0 13.5,0 5.9,150.7 93.6,150.7 	"/>
	<polygon class="st1" points="11.6,156.5 93.5,156.5 93.9,150.7 5.9,150.7 	"/>
	<rect x="21.1" y="4.2" class="st2" width="68" height="15.8"/>
	<rect x="32.6" y="8.5" class="st3" width="46.5" height="7.9"/>
	<path class="st4" d="M22.3,17.1H12.2c-1.4,0-2.6-1.2-2.6-2.6v-2.2c0-1.4,1.2-2.6,2.6-2.6h10.1c1.4,0,2.6,1.2,2.6,2.6v2.2
		C24.9,16,23.7,17.1,22.3,17.1z"/>
	<path class="st4" d="M95.3,17.1h-11c-1.4,0-2.5-1.1-2.5-2.5v-2.4c0-1.4,1.1-2.5,2.5-2.5h11c1.4,0,2.5,1.1,2.5,2.5v2.4
		C97.8,16,96.7,17.1,95.3,17.1z"/>
</g>
</svg>
