<?xml version="1.0" encoding="utf-8"?>
<!-- Generator: Adobe Illustrator 19.1.0, SVG Export Plug-In . SVG Version: 6.00 Build 0)  -->
<!DOCTYPE svg PUBLIC "-//W3C//DTD SVG 1.1//EN" "http://www.w3.org/Graphics/SVG/1.1/DTD/svg11.dtd">
<svg version="1.1" id="Layer_1" xmlns="http://www.w3.org/2000/svg" xmlns:xlink="http://www.w3.org/1999/xlink" x="0px" y="0px"
	 viewBox="0 0 105 157" style="enable-background:new 0 0 105 157;" xml:space="preserve">
<style type="text/css">
	.st0{fill:#C4C4C4;}
	.st1{fill:#FCFCFC;}
	.st2{fill:#E8E8E8;}
	.st3{fill:#141414;}
	.st4{fill:#B71515;}
</style>
<g>
	<polygon class="st0" points="95.8,142.7 1.7,142.7 3.6,151.5 95.8,151.5 	"/>
	<polygon class="st1" points="101.6,0 15.8,0 1.7,142.7 95.8,142.7 	"/>
	<rect x="21.7" y="4.6" class="st2" width="73.2" height="16.8"/>
	<rect x="33.9" y="9.2" class="st3" width="50.1" height="8.4"/>
	<path class="st4" d="M23.5,17.6h-10c-1.7,0-3.1-1.4-3.1-3.1v-1.6c0-1.7,1.4-3.1,3.1-3.1h10c1.7,0,3.1,1.4,3.1,3.1v1.6
		C26.5,16.2,25.2,17.6,23.5,17.6z"/>
	<path class="st4" d="M101.5,17.6h-12c-1.4,0-2.5-1.1-2.5-2.5v-2.7c0-1.4,1.1-2.5,2.5-2.5h12c1.4,0,2.5,1.1,2.5,2.5v2.7
		C104,16.5,102.9,17.6,101.5,17.6z"/>
</g>
</svg>
