<?xml version="1.0" encoding="utf-8"?>
<!-- Generator: Adobe Illustrator 19.1.0, SVG Export Plug-In . SVG Version: 6.00 Build 0)  -->
<!DOCTYPE svg PUBLIC "-//W3C//DTD SVG 1.1//EN" "http://www.w3.org/Graphics/SVG/1.1/DTD/svg11.dtd">
<svg version="1.1" id="Layer_1" xmlns="http://www.w3.org/2000/svg" xmlns:xlink="http://www.w3.org/1999/xlink" x="0px" y="0px"
	 viewBox="0 0 105 157" style="enable-background:new 0 0 105 157;" xml:space="preserve">
<style type="text/css">
	.st0{fill:#C4C4C4;}
	.st1{fill:#FCFCFC;}
	.st2{fill:#E8E8E8;}
	.st3{fill:#141414;}
	.st4{fill:#B71515;}
</style>
<g>
	<polygon class="st0" points="103,143.6 1,143.6 4.9,153.3 99.5,153.3 	"/>
	<polygon class="st1" points="98,0 6.5,0 1,143.6 103,143.6 	"/>
	<rect x="15.4" y="5" class="st2" width="73.7" height="16.9"/>
	<rect x="27.7" y="9.7" class="st3" width="50.4" height="8.5"/>
	<path class="st4" d="M98.6,18.1H86.5c-1.4,0-2.5-1.1-2.5-2.5v-2.8c0-1.4,1.1-2.5,2.5-2.5h12.1c1.4,0,2.5,1.1,2.5,2.5v2.8
		C101.1,17,100,18.1,98.6,18.1z"/>
	<path class="st4" d="M17,17.7H4.6c-1.4,0-2.5-1.1-2.5-2.5v-2.8c0-1.4,1.1-2.5,2.5-2.5H17c1.4,0,2.5,1.1,2.5,2.5v2.8
		C19.5,16.6,18.3,17.7,17,17.7z"/>
</g>
</svg>
