<?xml version="1.0" encoding="utf-8"?>
<!-- Generator: Adobe Illustrator 19.0.0, SVG Export Plug-In . SVG Version: 6.00 Build 0)  -->
<svg version="1.1" id="Layer_1" xmlns="http://www.w3.org/2000/svg" xmlns:xlink="http://www.w3.org/1999/xlink" x="0px" y="0px"
	 viewBox="-447 372 105 157" style="enable-background:new -447 372 105 157;" xml:space="preserve">
<style type="text/css">
	.st0{fill:#C4C4C4;}
	.st1{fill:#FCFCFC;}
	.st2{fill:#0D4B9E;}
	.st3{fill:#E8E8E8;}
	.st4{fill:#141414;}
	.st5{fill:#B71515;}
	.st6{fill:#DEA795;}
	.st7{fill:#E3B5A2;}
	.st8{fill:#878589;}
	.st9{fill:#4A4A4A;}
	.st10{fill:#5B595E;}
	.st11{fill:#3C3B3F;}
	.st12{fill:#1C1115;}
	.st13{fill:#C7907E;}
	.st14{fill:#C8907E;}
	.st15{fill:#C68F7D;}
	.st16{fill:#C18B7A;}
	.st17{fill:#C28B7A;}
	.st18{fill:#C58F7E;}
	.st19{fill:#211916;}
	.st20{fill:#221A17;}
	.st21{fill:#C08A7A;}
	.st22{fill:#BF8A79;}
	.st23{fill:#C99280;}
	.st24{fill:#C8917F;}
	.st25{fill:#CA9381;}
	.st26{fill:#CB9482;}
	.st27{fill:#201518;}
	.st28{fill:#DAAD9C;}
	.st29{fill:#1E1316;}
</style>
<g>
	<g>
		<polygon class="st0" points="-346.9,381.1 -443.7,381.1 -441.8,372 -348.6,371.2 		"/>
		<polygon class="st1" points="-344.5,528 -438.1,528 -443.7,381.1 -346.7,381.1 		"/>
		<polygon class="st2" points="-352.5,492.5 -432.5,492.5 -435.5,390.3 -349.7,390.3 		"/>
		<rect x="-429" y="505.5" class="st3" width="75.4" height="17.3"/>
		<rect x="-416.4" y="509.4" class="st4" width="51.6" height="8.7"/>
	</g>
	<path class="st5" d="M-345.5,517.7H-358c-1.4,0-2.5-1.1-2.5-2.5v-2.9c0-1.4,1.1-2.5,2.5-2.5h12.5c1.4,0,2.5,1.1,2.5,2.5v2.9
		C-343,516.6-344.1,517.7-345.5,517.7z"/>
	<path class="st5" d="M-426.4,517.3h-12.7c-1.4,0-2.5-1.1-2.5-2.5v-2.9c0-1.4,1.1-2.5,2.5-2.5h12.7c1.4,0,2.5,1.1,2.5,2.5v2.9
		C-423.9,516.2-425,517.3-426.4,517.3z"/>
	<g>
		<path class="st6" d="M-419.5,433.1c0.1-0.6,0.2-1.2,0.3-1.8c0.2-0.7,0.4-1.3,0.7-1.9c0.3-0.6,0.8-0.9,1.5-0.6
			c0.6,0.8,1.3,1.6,1.8,2.5c0.9,1.8,1,3.8,1.1,5.8c0,0.9,0,1.8,0,2.6c0.1,2,0.2,4,0.3,6c0.1,1.2,0.3,2.5,0.5,3.7
			c-1.3,0-1.8-0.4-2.2-1.8c-0.6-2.2-1.2-4.4-1.9-6.6c-0.2-0.7-0.5-1.4-0.8-2.1c-0.8-1.4-1.2-2.8-1.3-4.3c0-0.1-0.1-0.2-0.1-0.3
			C-419.5,434-419.5,433.5-419.5,433.1z"/>
		<path class="st7" d="M-413.2,449.5c-0.2-1.2-0.4-2.5-0.5-3.7c-0.2-2-0.2-4-0.3-6c0-0.9,0-1.8,0-2.6c0.3,0.1,0.6,0.2,1.1,0.4
			c0.7-2.5,1.3-4.9,1.9-7.4c0.2-0.9,0.5-1.7,1.1-2.5c1.2-1.5,2.1-3.2,2.1-5.3c0-1.6,0.4-3.1,0.8-4.6c0.2-0.8,0.6-1.6,1.6-1.8
			c1.4,2.1,3.1,3.9,6.1,4c0-0.7,0-1.2,0-1.9c0.7,1,1.3,1.8,2,2.6c0.9,1.1,2.8,2.1,3.8,1.5c0.6-0.1,1.5,0,1.9-0.4
			c1.5-1.2,3.3-1.4,5.1-1.5c1.7-0.1,3.4-0.5,4.9-1.5c0.9,0,1.9,0.1,2.8-0.1c1.5-0.3,1.5-0.4,1.9,1.1c0,0.2,0.1,0.3,0.1,0.5
			c0.7,2.8,1.1,5.6,3.1,7.9c0.1,0.2,0.2,0.4,0.3,0.7c0.9,2.1,1.2,4.3,1.2,6.5c0,1.8,0,3.7,0,5.5c0.3,0,0.6,0,0.8,0
			c-0.2,1.9-0.3,3.9-0.5,5.8c-0.3,2.2-0.7,4.4-1.1,6.6c-1,3.2-2.5,6.3-4.4,9c-2,2.9-4.4,5.5-7.3,7.5c-4.2,2.8-8.6,3.4-13.2,1.2
			c-3.2-1.5-6.1-3.4-8.8-5.7c-1.3-1.2-2.2-2.6-2.7-4.2c-1.2-3.7-2.3-7.5-3.5-11.2C-413.1,449.7-413.1,449.6-413.2,449.5z
			 M-386.3,439.9C-386.3,439.8-386.3,439.8-386.3,439.9C-386.3,439.8-386.4,439.8-386.3,439.9C-386.3,439.8-386.3,439.8-386.3,439.9
			c0.1,0.1,0.1,0.1,0.2,0.2c0.1,0.1,0.1,0.1,0.2,0.2c0.8,1.8,4,2.9,5.5,2.1c-1.1-0.3-2.4-0.6-3.6-1c-0.7-0.2-1.3-0.7-1.9-1.1
			c-0.1-0.1-0.1-0.1-0.2-0.2C-386.2,440-386.2,439.9-386.3,439.9z M-397.6,436c0.1,0.1,0.2,0.1,0.3,0.2c0.8,0.5,1.1,1.2,1.2,2.4
			c0.7-0.7,1.2-1.2,1.7-1.7c0.4-1.2,1.3-1.5,2.4-1.4c0.6,0,1.2,0.2,1.7,0.3c0.8,0.2,1.3,0.6,1.3,1.5c0,0.1,0.2,0.2,0.3,0.3
			c0,0.1,0,0.1-0.1,0.2c0.5,0.5,1,1,1.6,1.7c0.1-1.2,0.7-1.9,1.6-2.4c0.2,0,0.3,0,0.5-0.1c0.7-0.1,1.3-0.3,2.1-0.4
			c-0.3,0.9-0.4,1.7,0.4,2.1c0.4,0.2,1.1,0.2,1.6,0c0.8-0.4,0.7-1.2,0.5-2c1.2-0.1,2.2,0.5,3.1,1.1c0.1,0,0.2,0.1,0.4,0.1
			c0.2,0.2,0.4,0.5,0.6,0.7c0.1-0.2,0.1-0.4,0.2-0.6c0.1-0.7,0.1-1.3,0.2-2c0-1.4-1-2.8-2.5-3.2c-1.2-0.3-2.3-0.2-3.5,0.1
			c-1.9,0.6-3.7,1.2-5.6,1.8c-0.1,0-0.3,0.1-0.4,0.1c-0.5,0.5-0.9,0.5-1.6,0.2c-0.6-0.3-0.8-0.7-0.8-1.4c0-1.2-0.1-2.4-0.2-3.6
			c-0.4,1-0.7,1.9-0.9,2.9c-0.2,1.2-0.8,1.7-1.9,2c-0.7,0.2-1.2-0.1-1.7-0.4l0,0c0-0.1-0.1-0.2-0.1-0.3c-0.1-0.2-0.3-0.5-0.5-0.6
			c-1.9-0.8-3.7-1.6-5.6-2.2c-1.1-0.3-2.3-0.3-3.4,0c-1.4,0.3-1.9,1.5-2.4,2.8c0.1,0.9,0.2,1.8,0.4,2.8c0.1-0.3,0.2-0.4,0.3-0.5
			c0.1-0.1,0.1-0.1,0.2-0.2c0,0,0,0,0,0c0.1,0,0.2-0.1,0.3-0.1c0.1-0.1,0.2-0.2,0.3-0.4l0,0c0.3-0.1,0.5-0.2,0.8-0.2
			c0.7-0.2,1.5-0.4,2.5-0.6c-0.5,1-0.5,1.6,0.1,2.2c0.4,0.4,1,0.5,1.6,0.3c0.9-0.4,1-1.2,0.7-2.1c0.8,0.2,1.5,0.3,2.2,0.4
			c0,0,0,0,0,0C-397.7,435.8-397.6,435.9-397.6,436z M-408.7,441c0.8-0.3,1.7-0.6,2.6-0.9C-407.1,439.9-408.1,440-408.7,441
			C-408.7,441-408.7,441-408.7,441C-408.7,441-408.7,441-408.7,441z M-373.7,438.2c-0.7,0.2-1.3,0.3-2.1,0.5
			C-374.9,439.3-374.2,439.1-373.7,438.2c0.1,0,0.1-0.1,0.1-0.2c0,0,0,0-0.1,0C-373.7,438.1-373.7,438.2-373.7,438.2z M-373.4,441
			C-373.4,441-373.4,441-373.4,441C-373.4,441-373.4,441-373.4,441C-373.4,441-373.4,441-373.4,441c-0.2-0.3-0.5-0.6-0.8-0.8
			c-0.8-0.6-1.5-0.6-2.1,0.1C-375.3,440.5-374.4,440.7-373.4,441z M-396.9,438.9c-0.1,0-0.3,0.1-0.4,0.1c-1.8,1.3-3.9,1.9-6.3,1.5
			c1,0.6,2,0.7,2.9,0.6C-399.1,440.9-397.8,440.3-396.9,438.9C-396.9,438.9-396.9,438.9-396.9,438.9
			C-396.9,438.9-396.9,438.8-396.9,438.9C-396.9,438.8-396.9,438.9-396.9,438.9z M-403.2,459c-0.7,0.7-1.3,1.4-1.9,2
			c2.1,0.3,3.8-2,3.1-4.3c0.1-0.3,0.2-0.6,0.3-0.7c0.4,0,0.7,0.1,1,0.1c0.5,1.1,1.4,1.8,2.5,2.2c1.2,0.3,2.3,0.8,3.5,1
			c1.3,0.2,2.6,0.1,3.9,0c1.1-0.1,2.3-0.4,3.4-0.6c1.2-0.3,2.2-0.9,2.9-1.9c0.6-0.3,0.7,0.3,0.8,0.5c0.4,0.7,0.6,1.5,1,2.3
			c0.1,0,0.3-0.1,0.4-0.1c1.5-1.6,1.8-3.4,1.1-5.4c0-0.1-0.1-0.2-0.1-0.3l0,0c0-0.2,0-0.4,0-0.6c-0.7-2.7-1.7-5.4-3.1-7.8
			c-0.4-0.7-1.1-1.3-1.7-2c0,0-0.1,0-0.1-0.1c0,0,0,0.1,0.1,0.1c0,0.2,0,0.3,0.1,0.5c0.6,1.2,1,2.4,0.6,3.7c0,0.1,0.1,0.3,0.2,0.4
			c0.5,0.5,1,1,1.4,1.5c0.6,0.9,1,1.9,1.5,2.9c-1.7-1.9-3.8-3.1-6.4-2.9c0.3-0.2,0.5-0.4,0.8-0.5c0.6-0.3,1.3-0.7,2.1-1
			c-0.7-0.6-1.3-0.5-1.9-0.1c-0.6,0.4-1.1,1-1.7,1.5c-1.5,1.3-3.7,0.8-4.6-1c-0.3-0.6-0.7-1.2-1.1-1.6c-0.7-0.7-1.6-0.8-2.3-0.4
			c0.7,0.6,1.3,1.2,2,1.7c-1.6,0-3.2,0.3-4.5,1.2c-0.8,0.6-1.6,1.2-2.4,1.9c0-0.2,0-0.4,0.1-0.5c1.3-1.9,2.5-3.9,4.5-5.3
			c0.1-0.1,0.3-0.2,0.3-0.3c0.3-1.3,1.1-2.2,2.2-3c-0.8,0.2-1.5,0.5-2.1,1c-1.7,1.2-2.8,2.9-3.7,4.7c-0.8,1.4-1.4,2.9-2,4.3
			c-0.2,0.4-0.5,0.8-0.7,1.1c-0.8,1.1-0.8,2.3-0.4,3.5c0.4,0.7,0.8,1.5,1.1,2.2C-403.3,458.9-403.2,458.9-403.2,459z M-399.7,460
			c-0.1,0-0.1-0.1-0.2-0.1c0,0,0,0,0,0.1C-399.8,459.9-399.7,460-399.7,460c0.1,0.2,0.2,0.4,0.3,0.5c0.8,0.9,1.3,1.8,0.7,3.1
			c4.7-1,9.2-0.3,13.8,0.8c-0.9-0.9-1.5-1.9-0.8-3.3C-390.5,461.5-395.2,461.7-399.7,460z M-385.9,469.4c-1.6,0.1-3.1,0.3-4.6,0.4
			c-1.5,0-3-0.1-4.5-0.3c-1.5-0.2-2.9-0.6-4.6-1C-395.3,471.8-389.6,472.1-385.9,469.4z M-380.9,441.4c3.1,0.9,4.8-0.5,4.3-2.4
			C-377.3,441-379.1,441.2-380.9,441.4z M-402.3,440.1c0-0.1,0-0.2,0.1-0.2c-1.8-0.2-3.6-0.5-4.2-2.7c-0.4,1.2,0,2.3,1.1,2.6
			C-404.4,440-403.3,440-402.3,440.1z M-382,459.6c-0.7,1.5,0.2,3.5,1.4,3.2C-381.1,461.8-381.5,460.7-382,459.6z M-409.8,438.9
			c1-0.2,1.9-0.4,2.8-0.5C-407.8,437.5-408.8,437.7-409.8,438.9z M-407.1,436.9c-0.8-0.2-1.4-0.5-2.2-0.7
			C-408.7,437.1-408.2,437.3-407.1,436.9z M-374.9,442.9c-0.3-0.8-1.3-1.2-2.2-1C-376.5,442.2-375.7,442.5-374.9,442.9z"/>
		<path class="st8" d="M-371.5,440.9c-0.2,0-0.5,0-0.8,0c0-1.9,0-3.7,0-5.5c0.1-2.3-0.3-4.4-1.2-6.5c-0.1-0.2-0.2-0.5-0.3-0.7
			c-1.9-2.3-2.4-5.2-3.1-7.9c0-0.2-0.1-0.3-0.1-0.5c-0.4-1.5-0.4-1.4-1.9-1.1c-0.9,0.2-1.9,0-2.8,0.1c0.6-0.6,1.1-1.3,0.9-2.4
			c-0.3,0.2-0.4,0.3-0.6,0.5l0,0c0.4-0.8,0.8-1.6,1.1-2.4c0,0,0,0,0.1,0c0,0,0,0,0,0c0,0,0,0.1-0.1,0.1c-0.4,0.2-0.8,0.3-1.3,0.5
			c-0.7,0.3-1.4,0.6-2,0.8c0.8-1.7,2.3-2.7,3.8-3.7c-2.6,0.2-5.1,0.7-7.3,2.2l0,0c0.1-1.2,0.9-2,1.8-2.7c0.6-0.5,1.3-0.9,2-1.4
			c-2.6,0.3-5,0.9-6.9,2.9c0-1.4,0.7-2.5,1.2-3.6c0,0,0-0.1,0.1-0.1c0,0-0.1,0-0.1,0.1c-0.2,0.1-0.5,0.2-0.7,0.3
			c-2.3,1.6-3.9,3.6-3.8,6.7c-1-1.3-1.2-2.7-1.2-4.1c-0.8,0.8-1.1,1.7-1.2,2.7c-0.1,2.7,0.8,5,2.3,7.2c-1.1,0.6-2.9-0.4-3.8-1.5
			c-0.7-0.8-1.3-1.7-2-2.6c0,0.7,0,1.2,0,1.9c-3-0.1-4.6-1.9-6.1-4c-1,0.2-1.5,1-1.6,1.8c-0.4,1.5-0.7,3.1-0.8,4.6
			c0,2.1-0.9,3.7-2.1,5.3c-0.6,0.8-0.8,1.6-1.1,2.5c-0.6,2.5-1.3,4.9-1.9,7.4c-0.5-0.2-0.8-0.3-1.1-0.4c-0.2-2-0.2-4-1.1-5.8
			c-0.5-0.9-1.2-1.7-1.8-2.5c0.4-1.9,0.7-3.7,1.1-5.6c0.1-0.7,0.3-1.5,0.4-2.2c0.2-2.9,0.3-5.8,0.5-8.7c0.1-1.2,0.8-2.1,1.5-3
			c0.4-0.4,0.8-0.8,1-1.3c0-0.3,0-0.7,0.2-0.9c1-1.2,2-2.3,3.1-3.4c0.3-0.3,0.6-0.6,0.9-0.8c-0.1-0.1-0.2-0.1-0.3-0.2
			c0.9-0.8,1.7-1.8,2.7-2.4c2-1.3,4.1-2.4,6.2-3.5c0,0,0.1,0,0.1-0.1c0,0-0.1-0.1-0.1-0.1c-0.1-0.1-0.2-0.1-0.2-0.2
			c3.8-0.4,7.5-0.5,11.3,0.3c0.8,0.2,1.6,0.1,2.3-0.3c0.3-0.2,0.7-0.3,1.1-0.5c0,0,0.1,0,0.1,0.1c-0.3,0.3-0.5,0.5-0.8,0.8
			c0,0,0,0,0,0.1c0,0,0,0,0-0.1c0.7-0.1,1.4-0.2,2.2-0.3c0,0,0,0.1,0.1,0.1c-0.3,0.2-0.7,0.5-1.1,0.8c0.6,0.2,1,0.3,1.5,0.5
			c4.1,1.3,7.4,3.8,10.4,6.8c1.3,1.3,2.4,2.9,3.7,4.3c1.8,2.1,2.5,4.6,2.7,7.3c0.1,1.2,0.2,2.5,0.1,3.7c0,0.7-0.3,1.3-0.4,1.9
			c-0.1,0.9-0.2,1.9-0.2,2.8c0,0.8,0.2,1.6,0.5,2.4c0.9,2.1,0.7,4.2,0,6.3c-0.3,0.2-0.6,0.4-0.8,0.7c-0.7,1.1-1.4,2.2-2.1,3.3
			C-370.3,438.4-370.9,439.7-371.5,440.9z"/>
		<path class="st6" d="M-371.5,440.9c0.6-1.2,1.2-2.5,1.8-3.6c0.6-1.1,1.4-2.2,2.1-3.3c0.2-0.3,0.5-0.5,0.8-0.7
			c0.2,0.6,0.6,1.3,0.7,1.9c0.2,2.2,0.1,4.4-0.8,6.5c-0.3,0.8-0.9,1.4-1.2,2.1c-1.1,2.5-2,5-3,7.5c-0.1,0.3-0.2,0.7-0.4,1
			c-0.3,0.7-0.8,1.1-1.6,1c0.4-2.2,0.8-4.4,1.1-6.6C-371.8,444.7-371.7,442.8-371.5,440.9z"/>
		<path class="st8" d="M-385.4,395.8c0.1,0,0.1-0.1,0.2-0.1C-385.3,395.8-385.3,395.9-385.4,395.8
			C-385.3,395.9-385.4,395.9-385.4,395.8z"/>
		<path class="st9" d="M-388.9,409.4c-0.5,1.2-1.2,2.3-1.2,3.6c1.9-2,4.3-2.6,6.9-2.9c-0.7,0.5-1.3,0.9-2,1.4
			c-0.9,0.7-1.7,1.5-1.8,2.7c0,0,0,0,0,0.1c0,0,0,0,0-0.1c2.2-1.5,4.7-2,7.3-2.2c-1.5,0.9-3,1.9-3.8,3.7c0.7-0.3,1.3-0.6,2-0.8
			c0.4-0.2,0.8-0.3,1.3-0.5l0,0c-0.4,0.8-0.8,1.6-1.1,2.4c0,0,0,0.1-0.1,0.1c0,0,0.1,0,0.1-0.1c0.2-0.1,0.3-0.3,0.6-0.5
			c0.1,1-0.3,1.7-0.9,2.4c-1.5,0.9-3.1,1.3-4.9,1.5c-1.8,0.1-3.6,0.3-5.1,1.5c-0.4,0.4-1.3,0.3-1.9,0.4c-1.5-2.2-2.4-4.5-2.3-7.2
			c0-1,0.4-1.9,1.2-2.7c0,1.5,0.1,2.8,1.2,4.1c-0.1-3.1,1.5-5.1,3.8-6.7C-389.4,409.6-389.1,409.5-388.9,409.4L-388.9,409.4z"/>
		<path class="st10" d="M-404.5,456.6c-0.4-1.2-0.4-2.4,0.4-3.5c0.3-0.4,0.5-0.8,0.7-1.1c0.2-0.3,0.4-0.5,0.7-0.8
			c0.1-0.1,0.1-0.1,0.2-0.2l0,0c0.8-0.6,1.6-1.3,2.4-1.9c1.4-0.9,2.9-1.2,4.5-1.2c0.8,0.1,1.2,0.7,1.6,1.2c0.3,0.4,0.7,1,1.1,1.1
			c1.2,0.3,2.5,0.6,3.5-0.6c0.1-0.1,0.4-0.2,0.5-0.3c2.7-0.2,4.7,1,6.4,2.9c0,0,0,0,0,0c0.1,0.1,0.1,0.1,0.2,0.2
			c0.3,0.4,0.5,0.8,0.8,1.2c0,0,0,0,0,0c0,0.1,0.1,0.2,0.1,0.3c0.7,2,0.4,3.9-1.1,5.4c0.5-1.4,1.1-2.8,0.5-4.4
			c-0.1,0.5-0.2,0.9-0.3,1.5c-0.5-1.2-0.8-2.2-1.9-2.8c0,0.4-0.1,0.7-0.1,1.1c-0.7-0.7-1.4-1.4-2.1-2.1c-0.1,0.4-0.2,0.6-0.2,0.9
			c-0.6-0.5-1.2-1-1.8-1.5c-0.1,0.3-0.1,0.6-0.2,0.8c-0.4-0.4-0.8-0.7-1.2-1.1c-0.7,1.1-1,0.1-1.5-0.2c-0.1,0.2-0.3,0.4-0.4,0.5
			c-0.3-0.2-0.6-0.6-0.8-0.6c-0.7,0-1.4,0.2-2.1,0.3c-0.1-0.2-0.1-0.3-0.2-0.5c-0.7,0.4-1.3,0.7-2,1.1c-0.1-0.4-0.2-0.8-0.3-1.2
			c-0.6,0.5-1.1,0.9-1.6,1.4c-0.1-0.3-0.2-0.6-0.3-1c-0.6,0.7-1.2,1.3-1.8,2c-0.1-0.3-0.1-0.6-0.1-0.8c-1.2,0.4-1,1.6-1.8,2.3
			c-0.1-0.3-0.1-0.5-0.2-0.9c-0.4,0.7-0.6,1.2-0.9,1.7c-0.1-0.3-0.1-0.5-0.2-0.7c-0.1,0-0.1,0-0.2,0
			C-404.2,455.7-404.4,456.2-404.5,456.6z"/>
		<path class="st11" d="M-387,454.8c-0.6-0.2-1.1-0.4-1.8-0.6c0,0-0.2,0.1-0.4,0.2c-0.2-0.3-0.3-0.5-0.4-0.7
			c-0.2,0.2-0.5,0.3-0.8,0.5c-0.2-0.3-0.3-0.5-0.4-0.8c-0.2,0.1-0.3,0.3-0.5,0.4c-0.2-0.2-0.5-0.5-0.7-0.8c-0.5,0.6-1.1,0.4-1.8,0.3
			c-0.8-0.1-1.7,0.2-2.6,0.3c-0.6,0.1-1.1,0.2-1.8,0.4c0,0-0.1,0.2-0.1,0.3c-0.6-0.1-1.1,0.1-1.4,0.7c-0.1,0.1-0.3,0.3-0.3,0.3
			c-0.7-0.2-0.6,0.3-0.7,0.7c-0.3,0-0.6-0.1-1-0.1c-0.1,0.1-0.2,0.4-0.3,0.7c-0.1,0.3-0.2,0.6-0.3,0.8c-0.1-0.2-0.3-0.3-0.5-0.5
			c-0.3,0.5-0.5,1,0,1.4c-0.1,0-0.1,0-0.2,0c-0.1,0.1-0.2,0.1-0.3,0.2c-0.4-0.7-0.8-1.5-1.1-2.2c0.1-0.4,0.3-0.9,0.4-1.3
			c0.1,0,0.1,0,0.2,0c0.1,0.2,0.1,0.4,0.2,0.7c0.3-0.6,0.5-1,0.9-1.7c0.1,0.4,0.1,0.6,0.2,0.9c0.7-0.7,0.6-2,1.8-2.3
			c0,0.3,0.1,0.5,0.1,0.8c0.6-0.7,1.2-1.3,1.8-2c0.1,0.4,0.2,0.7,0.3,1c0.5-0.5,1-0.9,1.6-1.4c0.1,0.4,0.2,0.7,0.3,1.2
			c0.7-0.4,1.3-0.7,2-1.1c0.1,0.2,0.1,0.4,0.2,0.5c0.7-0.1,1.4-0.3,2.1-0.3c0.3,0,0.5,0.4,0.8,0.6c0.1-0.1,0.2-0.3,0.4-0.5
			c0.5,0.3,0.7,1.3,1.5,0.2c0.4,0.4,0.8,0.7,1.2,1.1c0.1-0.3,0.1-0.5,0.2-0.8c0.7,0.5,1.2,1,1.8,1.5c0.1-0.3,0.1-0.5,0.2-0.9
			c0.7,0.7,1.3,1.3,2.1,2.1c0-0.4,0.1-0.7,0.1-1.1c1.1,0.5,1.5,1.6,1.9,2.8c0.1-0.6,0.2-1,0.3-1.5c0.6,1.6-0.1,3-0.5,4.4
			c-0.2,0-0.3,0.1-0.4,0.1c-0.3-0.8-0.6-1.6-1-2.3c-0.1-0.2-0.3-0.9-0.8-0.5c-0.2-0.9-0.9-1.3-1.7-1.7
			C-386.6,455-386.8,454.9-387,454.8z"/>
		<path class="st12" d="M-387.6,434.7c1.9-0.6,3.7-1.2,5.6-1.8c1.1-0.4,2.3-0.5,3.5-0.1c1.5,0.4,2.6,1.8,2.5,3.2
			c-1.4-1.2-3-1.8-4.9-1.2c-0.9,0.3-1.9,0.6-2.8,0.9c-0.1,0.1-0.2,0.1-0.3,0.2c0.1,0,0.2,0,0.3,0c0.8,0,1.7,0,2.5,0
			c1.6,0.1,3.1,0.3,4.1,1.7c-0.1,0.1-0.1,0.1-0.2,0.2c-1-0.6-1.9-1.2-3.1-1.1c0.2,0.8,0.3,1.6-0.5,2c-0.4,0.2-1.1,0.2-1.6,0
			c-0.8-0.4-0.7-1.2-0.4-2.1c-0.8,0.1-1.4,0.3-2.1,0.4c-0.1-0.1-0.2-0.1-0.3-0.2c0.1-0.1,0.2-0.2,0.4-0.5c-1.4,0.5-2.5,1-3.7,1.4
			c0-0.1,0-0.1,0.1-0.2C-388.3,436.5-387.9,435.6-387.6,434.7z M-384.7,436.2C-384.7,436.1-384.8,436.1-384.7,436.2
			C-384.8,436.1-384.8,436.1-384.7,436.2C-384.8,436.2-384.8,436.2-384.7,436.2C-384.8,436.2-384.7,436.2-384.7,436.2z"/>
		<path class="st12" d="M-397.8,435.8c-0.7-0.1-1.4-0.3-2.2-0.4c0.2,0.9,0.2,1.7-0.7,2.1c-0.6,0.3-1.1,0.2-1.6-0.3
			c-0.6-0.6-0.6-1.2-0.1-2.2c-1,0.2-1.7,0.4-2.5,0.6c-0.3,0.1-0.5,0.2-0.8,0.2c0.1-0.2,0.2-0.5,0.4-0.6c1.2-0.8,2.6-0.8,4-0.7
			c0.7,0.1,1.3,0.2,1.9,0.2c-0.9-0.6-1.9-1-2.9-1.4c-1-0.4-2-0.5-3,0c-0.6,0.3-1.2,0.6-1.8,0.9c0.4-1.2,1-2.5,2.4-2.8
			c1.1-0.2,2.4-0.3,3.4,0c1.9,0.6,3.8,1.4,5.6,2.2c0.2,0.1,0.3,0.4,0.5,0.6c0,0.1,0.1,0.2,0.1,0.3c0,0,0,0,0,0
			c0.2,0.7,0.4,1.5,0.5,2.2c-0.3-0.1-0.5-0.2-0.8-0.3c-0.9-0.4-1.8-0.8-2.6-1.2c0,0,0-0.1,0-0.1c0,0,0,0-0.1,0c0,0,0.1,0.1,0.1,0.1
			C-397.8,435.5-397.8,435.6-397.8,435.8z M-398.6,434.8c0,0.1,0,0.1,0,0.2c0.1,0,0.2,0,0.3,0c0,0,0-0.1,0-0.1
			C-398.4,434.9-398.5,434.8-398.6,434.8z"/>
		<path class="st13" d="M-399.7,460c4.5,1.7,9.2,1.6,14,1.1c-0.7,1.4-0.1,2.3,0.8,3.3c-4.6-1-9.1-1.7-13.8-0.8
			c0.6-1.3,0.1-2.2-0.7-3.1C-399.5,460.4-399.6,460.2-399.7,460L-399.7,460z"/>
		<path class="st14" d="M-385.9,469.4c-3.7,2.7-9.3,2.4-13.8-0.9c1.6,0.4,3.1,0.8,4.6,1c1.5,0.2,3,0.3,4.5,0.3
			C-389,469.8-387.5,469.6-385.9,469.4z"/>
		<path class="st15" d="M-394.5,436.8c-0.2-0.7-0.4-1.5-0.5-2.2c0.6,0.3,1,0.6,1.7,0.4c1.1-0.3,1.7-0.8,1.9-2c0.1-1,0.5-1.9,0.9-2.9
			c0.1,1.2,0.2,2.4,0.2,3.6c0,0.7,0.2,1.1,0.8,1.4c0.6,0.3,1.1,0.3,1.6-0.2c0.1-0.1,0.2-0.1,0.4-0.1c-0.3,0.9-0.7,1.8-1,2.7
			c-0.1-0.1-0.3-0.2-0.3-0.3c0-0.9-0.5-1.3-1.3-1.5c-0.6-0.1-1.1-0.3-1.7-0.3c-1.1-0.1-2,0.2-2.4,1.4
			C-394.4,436.8-394.4,436.8-394.5,436.8z"/>
		<path class="st13" d="M-381.5,453.7c-0.3-0.4-0.5-0.8-0.8-1.2c-0.1-0.1-0.1-0.1-0.2-0.2c0,0,0,0,0,0c-0.5-1-0.9-1.9-1.5-2.9
			c-0.4-0.6-0.9-1-1.4-1.5c-0.1-0.1-0.3-0.3-0.2-0.4c0.4-1.4,0-2.6-0.6-3.7c-0.1-0.1-0.1-0.3-0.1-0.5l0,0c0.6,0.7,1.2,1.3,1.7,2
			c1.4,2.4,2.4,5.1,3.1,7.8C-381.4,453.3-381.5,453.5-381.5,453.7z"/>
		<path class="st16" d="M-407,434.2c0.6-0.3,1.2-0.7,1.8-0.9c1-0.4,2-0.3,3,0c1,0.4,2,0.8,2.9,1.4c-0.6-0.1-1.3-0.2-1.9-0.2
			c-1.4-0.1-2.8-0.1-4,0.7c-0.2,0.1-0.2,0.4-0.4,0.6c0,0,0,0,0,0c-0.1,0-0.2,0-0.4,0c-0.1,0.1-0.2,0.3-0.3,0.4c0,0,0,0,0,0
			c-0.1,0.1-0.1,0.1-0.2,0.2c-0.1,0.1-0.1,0.2-0.3,0.5C-406.8,435.9-406.9,435.1-407,434.2z"/>
		<path class="st17" d="M-383.7,435.7c0.9-0.3,1.9-0.5,2.8-0.9c1.9-0.6,3.5-0.1,4.9,1.2c-0.1,0.7-0.1,1.4-0.2,2
			c0,0.2-0.1,0.4-0.2,0.6c-0.2-0.3-0.4-0.5-0.6-0.7c0-0.1-0.1-0.2-0.1-0.4c-1-1.4-2.5-1.6-4.1-1.7c-0.8,0-1.7,0-2.5,0
			C-383.7,435.8-383.7,435.7-383.7,435.7z"/>
		<path class="st14" d="M-402.7,451.2c-0.2,0.3-0.4,0.5-0.7,0.8c0.7-1.4,1.3-2.9,2-4.3c1-1.8,2.1-3.5,3.7-4.7c0.6-0.5,1.4-0.7,2.1-1
			c-1,0.8-1.9,1.7-2.2,3c0,0.1-0.2,0.2-0.3,0.3c-2,1.4-3.2,3.3-4.5,5.3c-0.1,0.1-0.1,0.4-0.1,0.5c0,0,0,0,0,0
			C-402.6,451-402.7,451.1-402.7,451.2z"/>
		<path class="st18" d="M-388.9,449.4c-0.2,0.1-0.4,0.2-0.5,0.3c-1,1.1-2.3,0.8-3.5,0.6c-0.4-0.1-0.8-0.7-1.1-1.1
			c-0.4-0.6-0.8-1.2-1.6-1.2c-0.7-0.6-1.3-1.1-2-1.7c0.7-0.5,1.6-0.3,2.3,0.4c0.5,0.5,0.8,1.1,1.1,1.6c0.9,1.8,3.1,2.3,4.6,1
			c0.6-0.5,1.1-1,1.7-1.5c0.5-0.4,1.2-0.5,1.9,0.1c-0.8,0.4-1.4,0.7-2.1,1C-388.4,449-388.6,449.2-388.9,449.4z"/>
		<path class="st19" d="M-387,454.8c0.2,0.1,0.4,0.2,0.6,0.3c0.8,0.4,1.5,0.8,1.7,1.7c-0.7,1-1.7,1.6-2.9,1.9c0-0.6-0.1-1.2-0.1-1.7
			C-387.4,456.2-387.2,455.5-387,454.8z"/>
		<path class="st20" d="M-400.8,456.1c0.1-0.4,0-0.9,0.7-0.7c0.1,0,0.3-0.1,0.3-0.3c0.3-0.6,0.8-0.8,1.4-0.7
			c0.2,0.6,0.3,1.2,0.5,1.8c-0.4,0.5-0.2,1.3-0.5,2C-399.4,457.9-400.4,457.3-400.8,456.1z"/>
		<path class="st14" d="M-402.4,457.6c0.1-0.3,0.2-0.6,0.3-0.8c0.8,2.4-0.9,4.6-3.1,4.3c0.6-0.6,1.3-1.3,1.9-2
			c0-0.2,0.1-0.3,0.1-0.5c0.1,0,0.1,0,0.2,0C-402.7,458.2-402.6,457.9-402.4,457.6z"/>
		<path class="st21" d="M-394.5,436.8c0,0,0.1,0,0.1,0c-0.5,0.5-1,1.1-1.7,1.7c-0.1-1.1-0.4-1.9-1.2-2.4c-0.1-0.1-0.1-0.2-0.2-0.3
			c-0.1,0-0.2-0.1-0.3-0.1c0,0,0,0,0,0c0-0.1-0.1-0.3-0.1-0.4l0,0c0.9,0.4,1.7,0.8,2.6,1.2C-395,436.6-394.7,436.7-394.5,436.8z"/>
		<path class="st22" d="M-388.7,437.7c1.2-0.4,2.4-0.9,3.7-1.4c-0.2,0.3-0.3,0.4-0.4,0.5c-0.1,0.1-0.1,0.2-0.2,0.3
			c-0.9,0.5-1.4,1.1-1.6,2.4C-387.7,438.7-388.2,438.2-388.7,437.7z"/>
		<path class="st23" d="M-396.9,438.9c-0.9,1.4-2.2,2.1-3.8,2.2c-0.9,0.1-1.9,0-2.9-0.6c2.4,0.4,4.5-0.2,6.3-1.5
			C-397.2,439-397,438.9-396.9,438.9L-396.9,438.9z"/>
		<path class="st24" d="M-386,440.2c0.6,0.4,1.2,0.9,1.9,1.1c1.2,0.4,2.5,0.7,3.6,1C-382,443.1-385.1,442-386,440.2
			C-386,440.2-386,440.2-386,440.2z"/>
		<path class="st25" d="M-380.9,441.4c1.9-0.1,3.6-0.4,4.3-2.4C-376.1,440.8-377.8,442.2-380.9,441.4z"/>
		<path class="st23" d="M-402.3,440.1c-1-0.1-2.1-0.2-3.1-0.4c-1.1-0.3-1.6-1.4-1.1-2.6c0.6,2.3,2.4,2.5,4.2,2.7
			C-402.3,440-402.3,440.1-402.3,440.1z"/>
		<path class="st25" d="M-382,459.6c0.5,1.1,0.9,2.1,1.4,3.2C-381.8,463.1-382.7,461.1-382,459.6z"/>
		<path class="st23" d="M-373.4,441c-0.9-0.3-1.9-0.5-2.8-0.8c0.5-0.7,1.3-0.7,2.1-0.1C-373.9,440.4-373.7,440.7-373.4,441
			L-373.4,441z"/>
		<path class="st23" d="M-409.8,438.9c1-1.2,1.9-1.4,2.8-0.5C-407.9,438.5-408.8,438.7-409.8,438.9z"/>
		<path class="st26" d="M-373.7,438.3c-0.4,0.9-1.1,1-2.1,0.5C-375.1,438.5-374.4,438.4-373.7,438.3L-373.7,438.3z"/>
		<path class="st23" d="M-407.1,436.9c-1.1,0.4-1.6,0.2-2.2-0.7C-408.6,436.4-407.9,436.7-407.1,436.9z"/>
		<path class="st26" d="M-374.9,442.9c-0.8-0.4-1.5-0.7-2.2-1C-376.2,441.7-375.2,442.1-374.9,442.9z"/>
		<path class="st26" d="M-408.7,441c0.6-0.9,1.5-1.1,2.6-0.9C-407,440.4-407.8,440.7-408.7,441L-408.7,441z"/>
		<path class="st27" d="M-406.3,436.3c0.1-0.1,0.2-0.3,0.3-0.4c0,0.1,0,0.2,0.1,0.3C-406,436.3-406.1,436.3-406.3,436.3z"/>
		<path class="st12" d="M-405.9,436.2c0-0.1,0-0.2-0.1-0.3c0.1,0,0.2,0,0.4,0C-405.7,436-405.8,436.1-405.9,436.2z"/>
		<path class="st28" d="M-403.1,458.6c0,0.2-0.1,0.3-0.1,0.5c-0.1-0.1-0.1-0.2-0.2-0.2C-403.3,458.7-403.2,458.6-403.1,458.6z"/>
		<path class="st29" d="M-385.5,437c0.1-0.1,0.1-0.2,0.2-0.3c0.1,0.1,0.2,0.1,0.3,0.2C-385.2,436.9-385.3,437-385.5,437z"/>
		<path class="st29" d="M-377.1,437.6c0,0.1,0.1,0.2,0.1,0.4c-0.1,0-0.2-0.1-0.4-0.1C-377.2,437.7-377.2,437.6-377.1,437.6z"/>
		<path class="st27" d="M-397.4,435.9c0.1,0.1,0.1,0.2,0.2,0.3c-0.1-0.1-0.2-0.1-0.3-0.2C-397.5,436-397.5,435.9-397.4,435.9z"/>
		<path class="st13" d="M-381.3,454c0-0.1-0.1-0.2-0.1-0.3C-381.4,453.8-381.4,453.9-381.3,454z"/>
		<path class="st26" d="M-373.7,438.2c0-0.1,0-0.1,0.1-0.2c0,0,0.1,0,0.1,0C-373.7,438.1-373.7,438.2-373.7,438.2
			C-373.7,438.3-373.7,438.2-373.7,438.2z"/>
		<path class="st12" d="M-397.4,435.9c-0.1,0-0.1,0.1-0.2,0.1c0-0.1-0.1-0.2-0.1-0.2C-397.6,435.8-397.5,435.8-397.4,435.9z"/>
		<path class="st13" d="M-399.7,460c-0.1,0-0.1,0-0.2-0.1c0,0,0,0,0-0.1C-399.8,459.9-399.7,459.9-399.7,460
			C-399.7,460-399.7,460-399.7,460z"/>
		<path class="st15" d="M-395,434.6c0-0.1-0.1-0.2-0.1-0.3C-395.1,434.3-395,434.4-395,434.6z"/>
		<path class="st13" d="M-386.3,443.2C-386.3,443.2-386.4,443.2-386.3,443.2C-386.3,443.2-386.3,443.2-386.3,443.2
			C-386.3,443.2-386.3,443.2-386.3,443.2z"/>
		<path class="st23" d="M-373.4,441C-373.4,441-373.4,441-373.4,441C-373.4,441-373.4,441-373.4,441C-373.4,441-373.4,441-373.4,441
			C-373.4,441-373.4,441-373.4,441z"/>
		<path class="st26" d="M-408.7,441C-408.7,441-408.7,441-408.7,441C-408.7,441-408.7,441-408.7,441C-408.7,441-408.7,441-408.7,441
			z"/>
		<path class="st24" d="M-386.1,440c0.1,0.1,0.1,0.1,0.2,0.2c0,0,0,0,0,0C-386,440.1-386.1,440.1-386.1,440L-386.1,440z"/>
		<path class="st24" d="M-386.1,440c-0.1-0.1-0.1-0.1-0.2-0.2l0,0C-386.2,439.9-386.2,440-386.1,440C-386.1,440-386.1,440-386.1,440
			z"/>
		<path class="st24" d="M-386.3,439.9C-386.3,439.8-386.3,439.8-386.3,439.9C-386.4,439.8-386.3,439.8-386.3,439.9
			C-386.3,439.8-386.3,439.8-386.3,439.9C-386.3,439.9-386.3,439.9-386.3,439.9z"/>
		<path class="st23" d="M-396.9,438.9C-396.9,438.9-396.9,438.8-396.9,438.9C-396.9,438.8-396.9,438.9-396.9,438.9
			C-396.9,438.9-396.9,438.9-396.9,438.9C-396.9,438.9-396.9,438.9-396.9,438.9z"/>
		<path class="st27" d="M-406.4,436.5c0.1-0.1,0.1-0.1,0.2-0.2C-406.3,436.4-406.4,436.4-406.4,436.5z"/>
		<path class="st9" d="M-388.9,409.4C-388.9,409.4-388.8,409.4-388.9,409.4C-388.8,409.4-388.8,409.4-388.9,409.4
			C-388.9,409.4-388.9,409.4-388.9,409.4z"/>
		<path class="st9" d="M-380.2,414.4C-380.2,414.4-380.1,414.4-380.2,414.4C-380.1,414.4-380.1,414.4-380.2,414.4
			C-380.1,414.4-380.2,414.4-380.2,414.4C-380.2,414.4-380.2,414.4-380.2,414.4z"/>
		<path class="st8" d="M-386.9,414.3C-387,414.3-387,414.3-386.9,414.3C-387,414.3-387,414.3-386.9,414.3
			C-386.9,414.3-386.9,414.3-386.9,414.3z"/>
		<path class="st8" d="M-381.3,416.8C-381.3,416.9-381.4,416.9-381.3,416.8C-381.4,416.9-381.3,416.9-381.3,416.8
			C-381.3,416.8-381.3,416.8-381.3,416.8z"/>
		<path class="st7" d="M-382.4,452.3c0.1,0.1,0.1,0.1,0.2,0.2C-382.3,452.4-382.4,452.3-382.4,452.3z"/>
		<path class="st7" d="M-402.7,451.2c0.1-0.1,0.1-0.1,0.2-0.2C-402.6,451-402.7,451.1-402.7,451.2z"/>
		<path class="st28" d="M-402.4,457.6c-0.2,0.3-0.3,0.6-0.5,0.9c-0.5-0.5-0.3-0.9,0-1.4C-402.7,457.3-402.5,457.4-402.4,457.6z"/>
		<path class="st29" d="M-383.7,435.7c0,0,0,0.1,0,0.1c-0.1,0-0.2,0-0.3,0C-383.9,435.8-383.8,435.7-383.7,435.7z"/>
		<path class="st29" d="M-384.7,436.2C-384.7,436.2-384.8,436.2-384.7,436.2C-384.8,436.2-384.8,436.2-384.7,436.2
			C-384.8,436.1-384.8,436.1-384.7,436.2C-384.8,436.1-384.7,436.1-384.7,436.2z"/>
		<path class="st27" d="M-398.6,434.8c0.1,0,0.2,0.1,0.2,0.1c0,0,0,0.1,0,0.1c-0.1,0-0.2,0-0.3,0
			C-398.6,434.9-398.6,434.8-398.6,434.8z"/>
		<path class="st21" d="M-397.9,435.3C-397.9,435.3-398,435.3-397.9,435.3c-0.1-0.1,0-0.1,0-0.1
			C-397.9,435.3-397.9,435.3-397.9,435.3C-397.9,435.4-397.9,435.3-397.9,435.3z"/>
	</g>
	<g>
		<path class="st1" d="M-399.1,479.5h-2.2v8.5h-2.1v-8.5h-2.2v-1.7h6.5V479.5z"/>
		<path class="st1" d="M-395.4,487.1c-0.2,0.4-0.5,0.7-0.8,0.8c-0.3,0.2-0.7,0.2-1.1,0.2c-0.6,0-1.1-0.2-1.5-0.5
			c-0.4-0.3-0.5-0.9-0.5-1.7v-5.7h2v5.3c0,0.4,0.1,0.7,0.2,0.8c0.1,0.2,0.3,0.2,0.6,0.2c0.7,0,1-0.4,1-1.3v-5.1h2v7.7h-1.9V487.1
			L-395.4,487.1z"/>
		<path class="st1" d="M-388.5,482.5c0-0.2-0.1-0.3-0.1-0.5c-0.1-0.1-0.2-0.3-0.3-0.4s-0.3-0.1-0.5-0.1c-0.2,0-0.4,0.1-0.6,0.2
			c-0.2,0.1-0.3,0.3-0.3,0.5c-0.1,0.2-0.1,0.5-0.2,0.8c0,0.3,0,0.7,0,1.2s0,0.9,0,1.2c0,0.3,0.1,0.6,0.2,0.8
			c0.1,0.2,0.2,0.4,0.3,0.5c0.1,0.1,0.3,0.1,0.5,0.1c0.3,0,0.6-0.1,0.7-0.4c0.2-0.3,0.2-0.7,0.2-1.4h1.9c0,1-0.2,1.8-0.7,2.3
			s-1.2,0.8-2.3,0.8c-0.5,0-0.9-0.1-1.3-0.2s-0.7-0.3-0.9-0.6c-0.2-0.3-0.4-0.7-0.6-1.2c-0.1-0.5-0.2-1.2-0.2-1.9
			c0-0.8,0.1-1.4,0.2-2c0.2-0.5,0.4-0.9,0.6-1.2c0.3-0.3,0.6-0.5,1-0.6c0.4-0.1,0.8-0.2,1.3-0.2c0.9,0,1.6,0.3,2.1,0.8
			s0.7,1.3,0.7,2.2h-1.9C-388.5,482.9-388.5,482.7-388.5,482.5z"/>
		<path class="st1" d="M-385.6,482.5c0-0.4,0.1-0.8,0.2-1.1c0.1-0.3,0.3-0.5,0.6-0.7c0.2-0.2,0.5-0.3,0.9-0.4
			c0.3-0.1,0.7-0.1,1.1-0.1c0.6,0,1.1,0.1,1.4,0.2c0.4,0.1,0.6,0.3,0.8,0.5c0.2,0.2,0.3,0.5,0.4,0.8c0.1,0.3,0.1,0.6,0.1,1v4
			c0,0.4,0,0.6,0,0.8s0.1,0.4,0.2,0.6h-1.9c-0.1-0.1-0.1-0.3-0.2-0.4c0-0.1-0.1-0.3-0.1-0.4l0,0c-0.2,0.4-0.5,0.7-0.8,0.8
			c-0.3,0.1-0.7,0.2-1.2,0.2c-0.3,0-0.6-0.1-0.9-0.2c-0.3-0.1-0.4-0.3-0.6-0.5c-0.1-0.2-0.2-0.4-0.3-0.7c-0.1-0.3-0.1-0.5-0.1-0.8
			c0-0.4,0-0.7,0.1-0.9c0.1-0.3,0.2-0.5,0.4-0.7c0.2-0.2,0.4-0.3,0.6-0.5c0.2-0.1,0.5-0.2,0.9-0.3l1.1-0.3c0.3-0.1,0.5-0.2,0.6-0.3
			c0.1-0.1,0.2-0.3,0.2-0.6s-0.1-0.5-0.2-0.7c-0.1-0.2-0.4-0.3-0.7-0.3s-0.5,0.1-0.7,0.3c-0.2,0.2-0.2,0.4-0.2,0.7v0.2h-1.8
			L-385.6,482.5L-385.6,482.5z M-382.4,484.4c-0.2,0.1-0.3,0.1-0.4,0.1c-0.4,0.1-0.7,0.2-0.9,0.4c-0.2,0.2-0.3,0.5-0.3,0.8
			c0,0.3,0.1,0.5,0.2,0.8c0.1,0.3,0.3,0.3,0.6,0.3c0.1,0,0.3,0,0.4-0.1c0.1,0,0.3-0.1,0.4-0.2c0.1-0.1,0.2-0.2,0.3-0.4
			c0.1-0.2,0.1-0.3,0.1-0.5v-1.5C-382.1,484.3-382.3,484.3-382.4,484.4z"/>
	</g>
</g>
</svg>
