<?xml version="1.0" encoding="utf-8"?>
<!-- Generator: Adobe Illustrator 19.0.0, SVG Export Plug-In . SVG Version: 6.00 Build 0)  -->
<svg version="1.1" id="Layer_1" xmlns="http://www.w3.org/2000/svg" xmlns:xlink="http://www.w3.org/1999/xlink" x="0px" y="0px"
	 viewBox="-447 372 105 157" style="enable-background:new -447 372 105 157;" xml:space="preserve">
<style type="text/css">
	.st0{fill:#FCFCFC;}
	.st1{fill:#C4C4C4;}
	.st2{fill:#0D4B9E;}
	.st3{fill:#E8E8E8;}
	.st4{fill:#141414;}
	.st5{fill:#B71515;}
	.st6{fill:#C2C2C7;}
	.st7{fill:#E7AC97;}
	.st8{fill:#F8BDA4;}
	.st9{fill:#CF9481;}
	.st10{fill:#907C6B;}
	.st11{fill:#907C6A;}
	.st12{fill:#D09581;}
	.st13{fill:#CE9480;}
	.st14{fill:#CE9380;}
	.st15{fill:#281E1A;}
	.st16{fill:#281F1A;}
	.st17{fill:#D09682;}
	.st18{fill:#CF9581;}
	.st19{fill:#D19683;}
	.st20{fill:#D19682;}
	.st21{fill:#D09582;}
	.st22{fill:#D39884;}
	.st23{fill:#D49985;}
	.st24{fill:#D19783;}
	.st25{fill:#D29784;}
</style>
<g>
	<g>
		<polygon class="st0" points="-353.4,527.5 -436.6,527.5 -439.4,379.8 -353.4,379.8 		"/>
		<polygon class="st1" points="-437.6,374.7 -355.7,374.2 -353.3,379.8 -439.5,379.8 		"/>
		<polygon class="st2" points="-358.1,495.1 -431.7,495.1 -434.2,387.4 -358.1,387.4 		"/>
		<rect x="-428.2" y="507.6" class="st3" width="66.6" height="15.5"/>
		<rect x="-418.4" y="511.1" class="st4" width="45.6" height="7.7"/>
	</g>
	<path class="st5" d="M-353.9,518.9h-10.8c-1.4,0-2.5-1.1-2.5-2.5v-2.2c0-1.4,1.1-2.5,2.5-2.5h10.7c1.4,0,2.5,1.1,2.5,2.5v2.2
		C-351.4,517.8-352.6,518.9-353.9,518.9z"/>
	<path class="st5" d="M-425.2,518.5H-436c-1.4,0-2.5-1.1-2.5-2.5v-2.2c0-1.4,1.1-2.5,2.5-2.5h10.9c1.4,0,2.5,1.1,2.5,2.5v2.2
		C-422.7,517.4-423.8,518.5-425.2,518.5z"/>
	<g>
		<g>
			<path class="st6" d="M-392.3,391.8c0.2,0.1,0.3,0.3,0.5,0.3c1.8,0.3,3.4,1.1,4.5,2.6c0.2,0.2,0.6,0.3,0.9,0.4
				c1.6,0.1,3.3,0.2,4.9,0.4c2.4,0.3,4.3,1.6,6,3.1c0.8,0.7,1.4,1.4,2.1,2.2c1,1.1,1.5,2.5,1.9,4c0.7,2.3,1.5,4.4,3.1,6.3
				c0.7,0.9,1,2.2,1.2,3.4c0.4,2.3,0.5,4.6,0.9,6.8c0.3,1.6,0.7,3.3,1.1,4.9c0.2,0.8,0.2,1.6-0.4,2.3c-0.3,0-0.6,0.1-0.9,0.1
				c-1.6,0.2-2.1,0.7-1.9,2.3c0,0.2,0,0.3,0,0.5c0,1.8,0,3.6,0,5.4c0,1.1,0,1.1-1.2,1.2c-0.2-2.1-0.4-4.1-0.5-6.2
				c-0.1-2.3-0.6-4.4-1.4-6.5c-0.8-2.1-1.4-4.2-1.3-6.5c0.1-2.2,0-4.4-0.2-6.6c-0.2-1.9-0.7-3.7-1.9-5.2c-1-1.3-2.1-2.6-3-3.9
				c-2.2-3.1-5.2-5.1-9-6c-0.6-0.1-1.1-0.2-1.7-0.3c-1.3-0.2-2.4,0.5-3.5,1c-2.2,1-4.6,1.7-7,0.6c-1-0.4-1.9-0.9-2.9-0.9
				c-1.6-0.1-3.1,0.1-4.4,1.2c-0.7,0.6-1.5,1.2-2.3,1.7c-1.9,1.1-3.3,2.7-4.3,4.6c-1.5,2.7-1.9,5.8-2,8.8c-0.1,1.8,0.1,3.6,0.1,5.4
				c0.1,2.2-0.3,4.2-1,6.3c-0.7,2.4-0.9,5-1.1,7.5c-0.2,1.8,0,3.7,0,5.5c-0.2,0.1-0.5,0.2-0.6,0.2c-0.4-0.2-0.8-0.4-0.9-1
				c-0.4-1.9-0.8-3.8-1.3-5.7c-0.4-1.2-1.2-2.2-2.4-2.7c-0.3-1.1-0.6-2.2-0.8-3.2c-0.3-1.5-0.7-3-1-4.5c0-0.3,0-0.6,0-0.8
				c1.3,0,1.6-0.4,1.6-1.6c0-0.4,0-0.8,0-1.2c0.8-4.4,2-8.8,3.9-12.9c0.7-1.4,1.4-2.7,2.2-4.1c-0.2,0-0.4,0-0.6,0
				c0-0.1,0-0.2,0.1-0.2c0.1-0.2,0.3-0.3,0.5-0.5c3.9-3.6,8.5-5,13.7-5.3c0.7,0,1.4-0.1,1.8-0.8c0.2-0.4,0.7-0.8,1.1-1
				c1-0.5,2.1-1,3.2-1.4c1,0,2.1,0,3.1,0c0.3,0,0.7,0,1,0C-392.5,391.8-392.4,391.8-392.3,391.8z"/>
			<path class="st7" d="M-422.4,429.4c1.3,0.5,2.1,1.5,2.4,2.7c0.6,1.9,1,3.8,1.3,5.7c0.1,0.6,0.5,0.8,0.9,1
				c0.1,0.1,0.4-0.1,0.6-0.2c0.2,3.7,0.4,7.5,0.7,11.2c-2.1,0.3-3.3-0.2-4.2-2.2c-0.9-2-1.5-4.2-2-6.3c-0.6-2.4-0.9-4.9-1.4-7.3
				c0-0.1-0.1-0.2-0.2-0.3c0-0.6,0-1.2,0-1.8c0.2-0.5,0.3-1,0.5-1.4C-423.5,429.8-423.1,429.4-422.4,429.4z"/>
			<path class="st8" d="M-416.4,449.9c-0.2-3.7-0.4-7.5-0.7-11.2c0-1.8-0.1-3.7,0-5.5c0.2-2.5,0.4-5.1,1.1-7.5c0.6-2.1,1-4.1,1-6.3
				c-0.1-1.8-0.2-3.6-0.1-5.4c0.2-3,0.5-6.1,2-8.8c1.1-1.9,2.4-3.5,4.3-4.6c0.8-0.5,1.6-1.1,2.3-1.7c1.3-1.1,2.8-1.3,4.4-1.2
				c1.1,0,2,0.5,2.9,0.9c2.4,1.1,4.7,0.4,7-0.6c1.1-0.5,2.2-1.2,3.5-1c0.6,0.1,1.1,0.2,1.7,0.3c3.7,0.9,6.7,2.9,9,6
				c1,1.3,2,2.6,3,3.9c1.2,1.5,1.7,3.3,1.9,5.2c0.2,2.2,0.3,4.4,0.2,6.6c-0.1,2.3,0.5,4.4,1.3,6.5c0.8,2.1,1.3,4.2,1.4,6.5
				c0.1,2.1,0.3,4.1,0.5,6.2c0,0.7,0,1.5,0,2.2c0,1.6,0,3.1-0.2,4.7c-0.1,1.3-0.4,2.6-0.6,3.8c-0.5,1.2-1,2.4-1.6,3.6
				c-1,2.1-2.2,4.2-3.2,6.3c-2,4.4-5.6,7.2-9.2,10c-0.3,0.3-0.8,0.4-1.2,0.6c-0.6,0.4-1.3,0.6-1.8,1.1c-2.2,2.6-4.9,2.5-7.8,1.6
				c-0.2-0.1-0.4-0.2-0.6-0.2c-2.6-1.2-5.3-2.3-7.8-3.7c-3.1-1.8-5.7-4.3-8-7.1c-1.2-1.4-2.2-3-3.2-4.6
				C-416,454.3-416.2,452.1-416.4,449.9z M-384.1,465.9c-0.1,0.1-0.2,0.1-0.3,0.2c-0.2,0-0.4,0.1-0.6,0.1c-3.3,1.4-6.7,1.6-10.1,1.1
				c-1.6-0.3-3.1-0.6-4.8-1c2.2,1.9,4.7,3.1,7.5,3.2c2.6,0.1,4.9-0.8,6.9-2.3c0.4-0.3,0.7-0.7,1.1-1.1
				C-384.3,466-384.2,466-384.1,465.9C-384,465.9-384,465.8-384.1,465.9C-384,465.8-384,465.9-384.1,465.9z M-376.1,431.4
				C-376.1,431.4-376.1,431.3-376.1,431.4C-376.2,431.3-376.2,431.3-376.1,431.4C-376.2,431.3-376.2,431.4-376.1,431.4
				c0.9,1.3,2.2,0.9,3.6,1c-0.9-0.2-1.6-0.4-2.3-0.6C-375.3,431.7-375.7,431.5-376.1,431.4z M-413.9,430.2
				C-414,430.2-414,430.2-413.9,430.2C-414,430.2-414,430.2-413.9,430.2c0.9,1.1,1.9,1.3,3.2,0.7
				C-411.8,430.7-412.9,430.5-413.9,430.2z M-372.2,429.7c-1.1,0.3-2.2,0.6-3.3,0.8c0.7,0.1,1.4,0.2,2.1,0
				C-372.9,430.5-372.6,430-372.2,429.7C-372.2,429.7-372.1,429.7-372.2,429.7C-372.1,429.7-372.1,429.7-372.2,429.7
				C-372.1,429.7-372.2,429.7-372.2,429.7z M-386.2,432.5C-386.2,432.5-386.3,432.5-386.2,432.5
				C-386.3,432.5-386.2,432.5-386.2,432.5c0.1,0.3,0.2,0.6,0.3,0.9c1.2,2.2,5.5,3.3,7.6,2.4C-381.3,435.6-384,434.7-386.2,432.5z
				 M-385.2,431.7C-385.2,431.7-385.3,431.7-385.2,431.7C-385.3,431.7-385.2,431.7-385.2,431.7c0.3,0.3,0.5,0.7,0.8,1
				c1.5,1.3,5.4,1,6.9,0c-0.8,0-1.5,0-2.3,0c-0.8,0-1.5,0-2.3-0.2C-383.1,432.3-384.2,432-385.2,431.7z M-384.5,428.1
				c0,0.1,0.1,0.1,0.1,0.2c0,0.1-0.1,0.3-0.1,0.4c-0.2,0.9,0,1.6,0.8,2.1c0.7,0.5,1.6,0.5,2.2,0c0.7-0.5,1-1.2,0.8-2.1
				c0-0.2-0.1-0.4-0.1-0.6c0.1-0.1,0.1-0.1,0.2-0.2c1.2,0.7,2.3,1.3,3.5,2c-1.3-2.7-6.3-3.8-9.3-1.7c-0.1-0.8,0.6-1.2,1.2-1.5
				c2-0.9,4-0.9,5.9,0.3c0.9,0.5,1.6,1.2,2.6,2c-0.8-1.7-1.7-2.8-3.3-3.2c-1.4-0.3-3-0.4-4.4-0.6c0.3-0.5,0.7-1.1,1-1.7
				c2.8-0.1,5.4,0.7,7.8,2.5c-0.3-1.7-1-2.9-2.1-3.8c-2.1-1.7-4.5-2-7.1-2c-1.7,0-2.3,0.5-2.7,2.2c-0.1,0.5-0.1,1-0.2,1.5
				c-1.9,2.6-1.2,5.3,0.3,6.5c0.1-0.4,0.2-0.8,0.4-1.2C-386.2,428.8-385.3,428.5-384.5,428.1z M-399.1,429.6
				c0.1,0.4,0.2,0.8,0.3,1.3c0.4-0.5,0.7-0.8,0.9-1.2c1.1-1.9,0.7-3.8-0.6-5.5c-0.2-0.9-0.4-1.9-0.7-2.8c-0.2-0.6-0.8-0.9-1.5-0.9
				c-1.2,0.1-2.4,0-3.6,0.2c-2.7,0.4-4.8,1.6-6,4.2c-0.1,0.3-0.2,0.7-0.3,1.1c2.4-1.7,5-2.3,7.8-2.3c0.3,0.6,0.7,1.2,1.1,1.9
				c-1.1,0-2.2-0.1-3.2,0c-1,0.2-1.9,0.6-2.8,1.1c-0.8,0.5-1.5,1.3-1.6,2.4c0.4-0.2,0.6-0.6,0.9-0.9c2.1-2.1,4.8-2.6,7.3-1.4
				c0.6,0.3,1.3,0.7,1.2,1.6c-3.1-2.1-8.5-0.9-9.5,2c2.6-1.9,2.9-2.1,3.9-2.1c-0.4,1.2-0.2,2,0.6,2.6c0.6,0.5,1.6,0.5,2.3,0.1
				c0.8-0.5,1-1.3,0.7-2.9C-400.9,428.8-400,429.2-399.1,429.6z M-411.3,420.5c0.1-0.1,0.3-0.2,0.4-0.3c2.1-2,4.6-3,7.5-3
				c2,0,4,0.5,6,1c1.5,0.4,3.1,0.9,4.6,0.8c2.3-0.1,4.5-0.7,6.8-1.2c1.9-0.4,3.8-0.7,5.7,0.1c0.9,0.4,1.7,0.9,2.7,1.4
				c-0.1-0.2-0.1-0.4-0.2-0.4c-0.9-0.6-1.7-1.2-2.6-1.6c-2.5-1.1-5-0.9-7.6-0.4c-2.2,0.4-4.4,1-6.6,1c-2.6-0.1-5.2-0.8-7.8-1.1
				c-2.2-0.3-4.4-0.4-6.4,0.8C-410,418.3-411,419.1-411.3,420.5C-411.3,420.5-411.3,420.5-411.3,420.5
				C-411.3,420.5-411.3,420.5-411.3,420.5z M-380.6,449.4c-0.7-4.6-2.5-8.7-6.2-11.8c0.4,2.5,0.4,2.6-0.4,3.3
				c-0.1-0.1-0.1-0.2-0.2-0.3c-0.9-1.2-2.8-1.6-3.7,0c-0.2,0.3-0.4,0.6-0.7,0.8c-0.8,0.7-1.4,0.6-2.5-0.4c-1-0.9-1.4-0.9-2.4,0
				c-0.1,0.1-0.2,0.2-0.4,0.3c-0.5,0.3-1.1,0.1-1.2-0.5c-0.1-0.9-0.2-1.8-0.3-2.6c-1.3,1-3.9,7.4-3.6,9.5c1-2.5,1.9-4.9,2.9-7.3
				c0.2,2.2,1.7,3.3,3.8,2.9c0.7-0.2,1.5-0.1,2.2-0.2c0.4,0,0.9,0,1.3-0.1c0.9,0,1.8-0.2,2.7-0.1c2.5,0.3,3.8-1,3.3-3.5
				c0-0.1,0-0.2,0-0.6C-383.7,442.3-381.9,445.7-380.6,449.4z M-400.9,452c0.7,0,1.3,0.1,1.9,0c2.3-0.5,4.7-1,7.1-0.8
				c1.2,0.1,2.4-0.3,3.6-0.3c1.6,0,3.2,0.3,4.9,0.4c-0.2-0.6-0.6-0.9-1.4-0.9c-3-0.1-6,0.3-8.9-0.1c-0.2,0-0.5,0-0.7,0.1
				c-1.6,0.5-3.2,0.9-4.9,0.8C-400,451-400.5,451.2-400.9,452z M-387.7,453.3c-2.9,0.8-5.7,0.9-8.7,0.4
				C-393.6,455.9-390,455.9-387.7,453.3z M-408.6,433.2c2.7,1.3,7,1,7.8-1.1C-403.3,433.1-405.9,433.3-408.6,433.2z M-407.8,436.4
				c4.7,0.5,7.2-1.1,8.1-3.8C-402,435.2-404.8,436-407.8,436.4z M-391.1,444.9c-0.1,0.8-0.1,1.4-0.3,1.9c-0.1,0.3-0.4,0.6-0.6,0.9
				c-0.3-0.3-0.7-0.5-0.8-0.8c-0.2-0.5-0.3-1-0.5-1.5c-0.1,0.6,0,1.1-0.1,1.7c-0.1,0.9,0.6,1.3,1.1,1.6c0.2,0.1,0.8-0.2,1.1-0.4
				c0.7-0.3,0.9-0.8,0.6-1.5C-390.8,446.3-390.9,445.7-391.1,444.9z M-396.2,434.1c1.4-1.8,1.3-5.7,0.3-7.1
				C-396,429.3-396.1,431.7-396.2,434.1z M-395.2,458c2.4-1,4.9-0.9,7.5-0.1C-389.1,456.5-393.5,456-395.2,458z M-413.1,432.8
				c1.3,0.2,2.4,0.1,3.4-1.2C-411,432-412.1,432.4-413.1,432.8z M-387.4,457.9C-387.4,457.9-387.4,457.9-387.4,457.9
				C-387.4,457.9-387.4,457.9-387.4,457.9C-387.3,457.9-387.4,457.9-387.4,457.9C-387.4,457.9-387.4,457.9-387.4,457.9z"/>
			<path class="st7" d="M-370.5,448.7c0.2-1.3,0.5-2.6,0.6-3.8c0.1-1.5,0.1-3.1,0.2-4.7c0-0.7,0-1.5,0-2.2c1.2-0.1,1.2-0.1,1.2-1.2
				c0-1.8,0-3.6,0-5.4c0-0.2,0-0.3,0-0.5c-0.2-1.6,0.3-2.1,1.9-2.3c0.3,0,0.6-0.1,0.9-0.1c0.3,0.8,0.8,1.5,0.8,2.3
				c0.3,3.2-0.5,6.2-1.3,9.2c-0.5,2-1,3.9-1.7,5.8C-368.4,447.1-369.1,448.2-370.5,448.7z"/>
			<path class="st9" d="M-380.6,449.4c-1.3-3.6-3-7-5.2-10.4c0,0.3,0,0.5,0,0.6c0.6,2.4-0.8,3.8-3.3,3.5c-0.9-0.1-1.8,0.1-2.7,0.1
				c-0.4,0-0.9,0-1.3,0.1c-0.7,0-1.5,0-2.2,0.2c-2.1,0.5-3.6-0.6-3.8-2.9c-1,2.4-1.9,4.8-2.9,7.3c-0.3-2.1,2.3-8.5,3.6-9.5
				c0.1,0.8,0.1,1.7,0.3,2.6c0.1,0.6,0.6,0.8,1.2,0.5c0.1-0.1,0.2-0.2,0.4-0.3c0.9-0.9,1.3-0.9,2.4,0c1.1,0.9,1.7,1,2.5,0.4
				c0.3-0.2,0.5-0.5,0.7-0.8c0.9-1.6,2.8-1.2,3.7,0c0.1,0.1,0.2,0.2,0.2,0.3c0.8-0.7,0.8-0.8,0.4-3.3
				C-383.1,440.7-381.3,444.7-380.6,449.4z"/>
			<path class="st10" d="M-387.7,423.8c0-0.5,0-1,0.2-1.5c0.4-1.7,1-2.2,2.7-2.2c2.6,0,5,0.4,7.1,2c1.1,0.9,1.8,2.1,2.1,3.8
				c-2.4-1.8-5-2.6-7.8-2.5c-0.2,0-0.4-0.1-0.5-0.1C-385.2,423.5-386.4,423.7-387.7,423.8z"/>
			<path class="st11" d="M-402.7,423.9c-2.8-0.1-5.4,0.6-7.8,2.3c0.1-0.4,0.2-0.8,0.3-1.1c1.1-2.6,3.3-3.8,6-4.2
				c1.2-0.2,2.4-0.1,3.6-0.2c0.7-0.1,1.3,0.3,1.5,0.9c0.3,0.9,0.5,1.8,0.7,2.8c-0.2,0-0.3-0.1-0.5-0.1
				C-400.2,424.1-401.4,424-402.7,423.9z"/>
			<path class="st12" d="M-411.3,420.5c0.3-1.4,1.3-2.2,2.5-2.9c2-1.2,4.2-1.1,6.4-0.8c2.6,0.3,5.2,1.1,7.8,1.1c2.2,0,4.4-0.6,6.6-1
				c2.6-0.4,5.1-0.6,7.6,0.4c0.9,0.4,1.8,1.1,2.6,1.6c0.1,0.1,0.1,0.2,0.2,0.4c-0.9-0.5-1.8-1-2.7-1.4c-1.9-0.8-3.8-0.5-5.7-0.1
				c-2.2,0.5-4.5,1-6.8,1.2c-1.5,0.1-3.1-0.4-4.6-0.8c-2-0.5-3.9-1.1-6-1c-2.9,0-5.4,1-7.5,3C-411,420.3-411.2,420.4-411.3,420.5
				L-411.3,420.5z"/>
			<path class="st13" d="M-387.7,423.8c1.3-0.2,2.5-0.3,3.8-0.5c0.2,0,0.3,0.1,0.5,0.1c-0.4,0.6-0.7,1.2-1,1.7
				c1.5,0.2,3,0.3,4.4,0.6c1.6,0.4,2.5,1.6,3.3,3.2c-1-0.8-1.8-1.5-2.6-2c-1.9-1.2-3.9-1.2-5.9-0.3c-0.6,0.3-1.2,0.7-1.2,1.5
				c0,0-0.1,0-0.1,0c-0.1,0.1-0.2,0.1-0.3,0.2c-0.1,0.2-0.2,0.5-0.3,0.7c-0.1,0.4-0.2,0.8-0.4,1.2
				C-388.9,429.1-389.6,426.4-387.7,423.8z"/>
			<path class="st14" d="M-402.7,423.9c1.3,0.1,2.5,0.2,3.8,0.3c0.2,0,0.3,0,0.5,0.1c1.3,1.7,1.6,3.5,0.6,5.5
				c-0.2,0.4-0.5,0.7-0.9,1.2c-0.1-0.6-0.2-1-0.3-1.3c-0.1-0.2-0.2-0.4-0.3-0.6c-0.1-0.1-0.1-0.1-0.2-0.2c-0.1,0-0.1,0-0.1-0.1
				c0-0.9-0.6-1.3-1.2-1.6c-2.5-1.2-5.2-0.7-7.3,1.4c-0.3,0.3-0.5,0.6-0.9,0.9c0.1-1.1,0.8-1.9,1.6-2.4c0.8-0.5,1.8-0.9,2.8-1.1
				c1-0.2,2,0,3.2,0C-402,425.1-402.4,424.5-402.7,423.9z"/>
			<path class="st9" d="M-384.4,466.1c-0.3,0.4-0.7,0.8-1.1,1.1c-2.1,1.5-4.4,2.4-6.9,2.3c-2.9-0.1-5.3-1.3-7.5-3.2
				c1.7,0.3,3.2,0.7,4.8,1c3.5,0.6,6.9,0.4,10.1-1.1C-384.8,466.1-384.6,466.1-384.4,466.1C-384.4,466.1-384.4,466.1-384.4,466.1z"
				/>
			<path class="st15" d="M-399.8,428.7c0,0.1,0.1,0.1,0.1,0.1c0.1,0.1,0.1,0.1,0.2,0.2c0.1,0.2,0.2,0.4,0.3,0.6
				c-0.9-0.4-1.8-0.8-2.8-1.2c0.4,1.6,0.2,2.4-0.7,2.9c-0.7,0.4-1.6,0.4-2.3-0.1c-0.8-0.6-1-1.4-0.6-2.6c-0.9,0-1.3,0.2-3.9,2.1
				C-408.2,427.8-402.9,426.5-399.8,428.7z"/>
			<path class="st16" d="M-387,429.2c0.1-0.2,0.2-0.5,0.3-0.7c0.1-0.1,0.2-0.1,0.3-0.2c0,0,0.1,0,0.1,0c3-2,8.1-1,9.3,1.7
				c-1.2-0.7-2.3-1.3-3.5-2c-0.1,0.1-0.1,0.1-0.2,0.2c0,0.2,0.1,0.4,0.1,0.6c0.1,0.9-0.1,1.6-0.8,2.1c-0.7,0.5-1.6,0.4-2.2,0
				c-0.7-0.5-0.9-1.3-0.8-2.1c0-0.1,0.1-0.3,0.1-0.4c0-0.1,0-0.1,0.1-0.2c-0.1,0-0.1,0-0.2,0C-385.3,428.5-386.2,428.8-387,429.2z"
				/>
			<path class="st17" d="M-400.9,452c0.4-0.8,0.9-1,1.6-0.9c1.7,0.1,3.3-0.3,4.9-0.8c0.2-0.1,0.5-0.1,0.7-0.1c3,0.4,6,0,8.9,0.1
				c0.8,0,1.2,0.3,1.4,0.9c-1.7-0.2-3.3-0.4-4.9-0.4c-1.2,0-2.4,0.4-3.6,0.3c-2.4-0.2-4.8,0.3-7.1,0.8
				C-399.6,452.1-400.2,452-400.9,452z"/>
			<path class="st18" d="M-387.7,453.3c-2.3,2.6-5.9,2.6-8.7,0.4C-393.4,454.2-390.6,454.1-387.7,453.3z"/>
			<path class="st19" d="M-385.2,431.7c1.1,0.3,2.1,0.6,3.2,0.8c0.7,0.1,1.5,0.2,2.3,0.2c0.8,0,1.5,0,2.3,0c-1.5,1-5.5,1.2-6.9,0
				C-384.7,432.4-385,432.1-385.2,431.7L-385.2,431.7z"/>
			<path class="st20" d="M-408.6,433.2c2.7,0.2,5.3-0.1,7.8-1.1C-401.6,434.2-405.9,434.5-408.6,433.2z"/>
			<path class="st19" d="M-386.2,432.5c2.2,2.1,4.9,3.1,8,3.3c-2.1,0.9-6.4-0.2-7.6-2.4C-386,433.2-386.1,432.9-386.2,432.5
				L-386.2,432.5z"/>
			<path class="st21" d="M-407.8,436.4c3-0.4,5.9-1.2,8.1-3.8C-400.6,435.3-403.2,436.9-407.8,436.4z"/>
			<path class="st21" d="M-391.1,444.9c0.2,0.8,0.3,1.4,0.5,1.9c0.3,0.7,0.1,1.2-0.6,1.5c-0.4,0.2-0.9,0.5-1.1,0.4
				c-0.6-0.3-1.3-0.7-1.1-1.6c0.1-0.5,0-1.1,0.1-1.7c0.2,0.5,0.3,1,0.5,1.5c0.2,0.3,0.6,0.5,0.8,0.8c0.2-0.3,0.5-0.6,0.6-0.9
				C-391.2,446.3-391.2,445.7-391.1,444.9z"/>
			<path class="st22" d="M-396.2,434.1c0.1-2.4,0.2-4.8,0.3-7.1C-394.8,428.4-394.8,432.3-396.2,434.1z"/>
			<path class="st20" d="M-395.2,458c1.7-2.1,6.1-1.5,7.5-0.1C-390.3,457.1-392.8,457.1-395.2,458z"/>
			<path class="st23" d="M-413.1,432.8c1.1-0.4,2.1-0.7,3.4-1.2C-410.7,432.8-411.8,432.9-413.1,432.8z"/>
			<path class="st24" d="M-372.2,429.7c-0.4,0.3-0.7,0.8-1.2,0.9c-0.7,0.1-1.4,0-2.1,0C-374.4,430.3-373.3,430-372.2,429.7
				L-372.2,429.7z"/>
			<path class="st23" d="M-413.9,430.2c1.1,0.3,2.2,0.5,3.2,0.7C-412,431.5-413.1,431.3-413.9,430.2L-413.9,430.2z"/>
			<path class="st25" d="M-376.1,431.4c0.4,0.1,0.9,0.3,1.3,0.4c0.7,0.2,1.4,0.4,2.3,0.6C-373.9,432.3-375.3,432.7-376.1,431.4
				C-376.1,431.4-376.1,431.4-376.1,431.4z"/>
			<path class="st20" d="M-387.4,457.9C-387.4,457.9-387.4,457.9-387.4,457.9C-387.4,457.9-387.3,457.9-387.4,457.9
				C-387.4,457.9-387.4,457.9-387.4,457.9C-387.4,457.9-387.4,457.9-387.4,457.9z"/>
			<path class="st9" d="M-384.4,466.1c0.1-0.1,0.2-0.1,0.3-0.2l0,0C-384.2,466-384.3,466-384.4,466.1
				C-384.4,466.1-384.4,466.1-384.4,466.1z"/>
			<path class="st19" d="M-386.2,432.6C-386.2,432.5-386.3,432.5-386.2,432.6C-386.3,432.5-386.2,432.5-386.2,432.6
				C-386.2,432.5-386.2,432.6-386.2,432.6z"/>
			<path class="st19" d="M-385.2,431.7C-385.2,431.7-385.3,431.7-385.2,431.7C-385.3,431.7-385.2,431.7-385.2,431.7
				C-385.2,431.7-385.2,431.7-385.2,431.7z"/>
			<path class="st25" d="M-376.1,431.4C-376.2,431.4-376.2,431.3-376.1,431.4C-376.2,431.3-376.2,431.3-376.1,431.4
				C-376.1,431.3-376.1,431.4-376.1,431.4C-376.1,431.4-376.1,431.4-376.1,431.4z"/>
			<path class="st23" d="M-413.9,430.2C-414,430.2-414,430.2-413.9,430.2C-414,430.2-414,430.2-413.9,430.2
				C-413.9,430.2-413.9,430.2-413.9,430.2z"/>
			<path class="st12" d="M-411.3,420.5C-411.3,420.5-411.3,420.5-411.3,420.5C-411.3,420.5-411.3,420.5-411.3,420.5
				C-411.3,420.5-411.3,420.5-411.3,420.5z"/>
			<path class="st24" d="M-372.2,429.7C-372.2,429.7-372.1,429.7-372.2,429.7C-372.1,429.7-372.1,429.7-372.2,429.7
				C-372.1,429.7-372.2,429.7-372.2,429.7C-372.2,429.7-372.2,429.7-372.2,429.7z"/>
			<path class="st9" d="M-384.1,465.9C-384,465.9-384,465.8-384.1,465.9C-384,465.8-384,465.9-384.1,465.9
				C-384.1,465.9-384.1,465.9-384.1,465.9z"/>
			<path class="st8" d="M-386.4,428.3c-0.1,0.1-0.2,0.1-0.3,0.2C-386.6,428.4-386.5,428.3-386.4,428.3z"/>
			<path class="st8" d="M-399.4,428.9c-0.1-0.1-0.1-0.1-0.2-0.2C-399.6,428.8-399.5,428.9-399.4,428.9z"/>
			<path class="st8" d="M-384.5,428.1c0.1,0,0.1,0,0.2,0c0,0.1,0,0.1-0.1,0.2C-384.4,428.2-384.4,428.2-384.5,428.1z"/>
		</g>
	</g>
	<g>
		<path class="st0" d="M-413.3,485.9c0,0.2,0,0.4,0.1,0.6c0,0.2,0.1,0.4,0.2,0.5s0.2,0.2,0.4,0.3c0.2,0.1,0.4,0.1,0.7,0.1
			c0.3,0,0.6-0.1,0.8-0.3c0.2-0.2,0.4-0.5,0.4-0.9c0-0.2,0-0.4-0.1-0.6c-0.1-0.2-0.2-0.3-0.3-0.4c-0.1-0.1-0.3-0.2-0.6-0.4
			c-0.2-0.1-0.5-0.2-0.8-0.3c-0.4-0.2-0.8-0.3-1.2-0.5c-0.3-0.2-0.6-0.4-0.8-0.6c-0.2-0.2-0.4-0.5-0.5-0.8c-0.1-0.3-0.2-0.7-0.2-1.1
			c0-1,0.3-1.7,0.8-2.2c0.6-0.5,1.3-0.7,2.3-0.7c0.4,0,0.9,0,1.2,0.1c0.4,0.1,0.7,0.3,1,0.5c0.3,0.2,0.5,0.5,0.6,0.8
			c0.2,0.3,0.2,0.8,0.2,1.2v0.3h-1.9c0-0.5-0.1-0.8-0.3-1.1c-0.2-0.3-0.4-0.4-0.8-0.4c-0.2,0-0.4,0-0.6,0.1
			c-0.1,0.1-0.3,0.2-0.4,0.3s-0.1,0.2-0.2,0.4c0,0.1,0,0.3,0,0.4c0,0.3,0.1,0.6,0.2,0.8s0.4,0.4,0.8,0.6l1.6,0.7
			c0.4,0.2,0.7,0.3,0.9,0.5c0.2,0.2,0.4,0.4,0.6,0.6c0.1,0.2,0.2,0.4,0.3,0.7c0.1,0.3,0.1,0.5,0.1,0.8c0,1.1-0.3,1.8-0.9,2.3
			c-0.6,0.5-1.5,0.7-2.6,0.7c-1.1,0-2-0.2-2.4-0.7c-0.5-0.5-0.7-1.2-0.7-2.1v-0.4h2v0.2H-413.3z"/>
		<path class="st0" d="M-407.8,483.3c0-0.4,0.1-0.8,0.2-1.1c0.1-0.3,0.3-0.5,0.6-0.7c0.2-0.2,0.5-0.3,0.8-0.4c0.3-0.1,0.7-0.1,1-0.1
			c0.6,0,1,0.1,1.4,0.2c0.4,0.1,0.6,0.3,0.8,0.5c0.2,0.2,0.3,0.5,0.4,0.7c0.1,0.3,0.1,0.6,0.1,0.9v4c0,0.4,0,0.6,0,0.8
			c0,0.2,0.1,0.4,0.2,0.6h-1.7c-0.1-0.1-0.1-0.3-0.1-0.4c0-0.1-0.1-0.3-0.1-0.4l0,0c-0.2,0.4-0.5,0.6-0.8,0.8
			c-0.3,0.1-0.7,0.2-1.1,0.2c-0.3,0-0.6-0.1-0.9-0.2c-0.2-0.1-0.4-0.3-0.6-0.5c-0.1-0.2-0.2-0.4-0.3-0.7s-0.1-0.5-0.1-0.8
			c0-0.4,0-0.7,0.1-0.9c0.1-0.3,0.2-0.5,0.3-0.7c0.2-0.2,0.4-0.3,0.6-0.5c0.2-0.1,0.5-0.2,0.9-0.3l1.1-0.3c0.3-0.1,0.5-0.2,0.6-0.3
			c0.1-0.1,0.2-0.3,0.2-0.6c0-0.3-0.1-0.5-0.2-0.7c-0.1-0.2-0.4-0.2-0.7-0.2c-0.3,0-0.5,0.1-0.7,0.3c-0.1,0.2-0.2,0.4-0.2,0.7v0.2
			h-1.7L-407.8,483.3L-407.8,483.3z M-404.6,485.2c-0.1,0.1-0.3,0.1-0.4,0.1c-0.4,0.1-0.7,0.2-0.8,0.4c-0.2,0.2-0.3,0.5-0.3,0.8
			s0.1,0.5,0.2,0.7c0.1,0.2,0.3,0.3,0.6,0.3c0.1,0,0.3,0,0.4-0.1c0.1,0,0.3-0.1,0.4-0.2c0.1-0.1,0.2-0.2,0.3-0.4
			c0.1-0.1,0.1-0.3,0.1-0.5v-1.5C-404.4,485-404.5,485.1-404.6,485.2z"/>
		<path class="st0" d="M-399.1,478.7v3.2l0,0c0.2-0.3,0.4-0.5,0.7-0.7c0.3-0.1,0.6-0.2,0.9-0.2c0.8,0,1.4,0.3,1.8,0.9
			c0.4,0.6,0.6,1.6,0.6,3s-0.2,2.4-0.6,3c-0.4,0.6-1,0.9-1.8,0.9c-0.4,0-0.7-0.1-1-0.2s-0.5-0.4-0.7-0.7l0,0v0.8h-1.8v-10H-399.1
			L-399.1,478.7z M-398.9,486.8c0.1,0.4,0.4,0.6,0.8,0.6s0.7-0.2,0.8-0.6c0.1-0.4,0.2-1,0.2-1.9c0-0.8-0.1-1.4-0.2-1.9
			c-0.1-0.4-0.4-0.6-0.8-0.6s-0.7,0.2-0.8,0.6s-0.2,1-0.2,1.9C-399.1,485.7-399,486.4-398.9,486.8z"/>
		<path class="st0" d="M-392.3,485.8c0,0.2,0,0.4,0,0.7s0.1,0.4,0.2,0.6c0.1,0.2,0.2,0.3,0.3,0.4c0.1,0.1,0.3,0.1,0.4,0.1
			c0.3,0,0.6-0.1,0.7-0.4c0.1-0.2,0.3-0.6,0.3-1.1h1.7c0,0.9-0.3,1.5-0.7,2s-1.1,0.7-2,0.7c-0.7,0-1.2-0.1-1.6-0.4
			c-0.4-0.2-0.7-0.5-0.9-0.9c-0.2-0.4-0.3-0.8-0.3-1.3s-0.1-1-0.1-1.4c0-0.5,0-1,0.1-1.5c0.1-0.5,0.2-0.9,0.4-1.2
			c0.2-0.4,0.5-0.7,0.9-0.9c0.4-0.2,0.9-0.3,1.6-0.3c0.6,0,1,0.1,1.4,0.3c0.4,0.2,0.6,0.4,0.8,0.8c0.2,0.3,0.3,0.7,0.4,1.2
			c0.1,0.5,0.1,1,0.1,1.6v0.4h-3.8v0.6H-392.3z M-390.4,483.3c0-0.2-0.1-0.4-0.1-0.6c-0.1-0.2-0.2-0.3-0.3-0.4
			c-0.1-0.1-0.3-0.1-0.5-0.1c-0.2,0-0.4,0-0.5,0.1c-0.1,0.1-0.2,0.2-0.3,0.4c-0.1,0.1-0.1,0.3-0.2,0.5c0,0.2,0,0.4,0,0.5v0.3h2
			C-390.4,483.8-390.4,483.5-390.4,483.3z"/>
		<path class="st0" d="M-385.5,478.7v10h-1.9v-10H-385.5z"/>
		<path class="st0" d="M-382.1,478.7v10h-1.9v-10H-382.1z"/>
		<path class="st0" d="M-380.8,483.3c0-0.4,0.1-0.8,0.2-1.1c0.1-0.3,0.3-0.5,0.6-0.7c0.2-0.2,0.5-0.3,0.8-0.4c0.3-0.1,0.7-0.1,1-0.1
			c0.6,0,1,0.1,1.4,0.2c0.4,0.1,0.6,0.3,0.8,0.5c0.2,0.2,0.3,0.5,0.4,0.7c0.1,0.3,0.1,0.6,0.1,0.9v4c0,0.4,0,0.6,0,0.8
			c0,0.2,0.1,0.4,0.2,0.6h-1.7c-0.1-0.1-0.1-0.3-0.1-0.4c0-0.1-0.1-0.3-0.1-0.4l0,0c-0.2,0.4-0.5,0.6-0.8,0.8
			c-0.3,0.1-0.7,0.2-1.1,0.2c-0.3,0-0.6-0.1-0.9-0.2c-0.2-0.1-0.4-0.3-0.6-0.5c-0.1-0.2-0.2-0.4-0.3-0.7s-0.1-0.5-0.1-0.8
			c0-0.4,0-0.7,0.1-0.9c0.1-0.2,0.2-0.5,0.3-0.7c0.2-0.2,0.4-0.3,0.6-0.5c0.2-0.1,0.5-0.2,0.9-0.3l1.1-0.3c0.3-0.1,0.5-0.2,0.6-0.3
			c0.1-0.1,0.2-0.3,0.2-0.6c0-0.3-0.1-0.5-0.2-0.7c-0.1-0.2-0.4-0.2-0.7-0.2c-0.3,0-0.5,0.1-0.7,0.3c-0.1,0.2-0.2,0.4-0.2,0.7v0.2
			h-1.7v-0.1H-380.8z M-377.7,485.2c-0.1,0.1-0.3,0.1-0.4,0.1c-0.4,0.1-0.7,0.2-0.8,0.4c-0.2,0.2-0.3,0.5-0.3,0.8s0.1,0.5,0.2,0.7
			c0.1,0.2,0.3,0.3,0.6,0.3c0.1,0,0.3,0,0.4-0.1c0.1,0,0.3-0.1,0.4-0.2c0.1-0.1,0.2-0.2,0.3-0.4c0.1-0.1,0.1-0.3,0.1-0.5v-1.5
			C-377.4,485-377.5,485.1-377.7,485.2z"/>
	</g>
</g>
</svg>
