<?xml version="1.0" encoding="utf-8"?>
<!-- Generator: Adobe Illustrator 19.0.0, SVG Export Plug-In . SVG Version: 6.00 Build 0)  -->
<svg version="1.1" id="Layer_1" xmlns="http://www.w3.org/2000/svg" xmlns:xlink="http://www.w3.org/1999/xlink" x="0px" y="0px"
	 viewBox="-447 372 105 157" style="enable-background:new -447 372 105 157;" xml:space="preserve">
<style type="text/css">
	.st0{fill:#C4C4C4;}
	.st1{fill:#FCFCFC;}
	.st2{fill:#0D4B9E;}
	.st3{fill:#E8E8E8;}
	.st4{fill:#141414;}
	.st5{fill:#B71515;}
	.st6{fill:#2A1F12;}
	.st7{fill:#DEA795;}
	.st8{fill:#E3B5A2;}
	.st9{fill:#717174;}
	.st10{fill:#727274;}
	.st11{fill:#C8917F;}
	.st12{fill:#5E5D60;}
	.st13{fill:#5D5C60;}
	.st14{fill:#C68F7D;}
	.st15{fill:#C8907E;}
	.st16{fill:#141212;}
	.st17{fill:#131112;}
	.st18{fill:#151313;}
	.st19{fill:#C7907E;}
	.st20{fill:#C99280;}
	.st21{fill:#CA9381;}
	.st22{fill:#CE9987;}
	.st23{fill:#CC9784;}
</style>
<g>
	<g>
		<polygon class="st0" points="-343,381.1 -439.9,381.1 -439.9,372 -346.7,372 		"/>
		<polygon class="st1" points="-350.4,528 -444.2,528 -439.7,381.1 -343,381.1 		"/>
		<polygon class="st2" points="-356.2,492.5 -436.2,492.5 -436.2,390 -349.7,390 		"/>
		<rect x="-434" y="505.1" class="st3" width="75.4" height="17.3"/>
		<rect x="-421.4" y="509" class="st4" width="51.6" height="8.7"/>
	</g>
	<path class="st5" d="M-349.4,518.2H-361c-1.4,0-2.5-1.1-2.5-2.5v-2.9c0-1.4,1.1-2.5,2.5-2.5h11.6c1.4,0,2.5,1.1,2.5,2.5v2.9
		C-346.9,517-348,518.2-349.4,518.2z"/>
	<path class="st5" d="M-430.6,517.7h-12.7c-1.4,0-2.5-1.1-2.5-2.5v-2.9c0-1.4,1.1-2.5,2.5-2.5h12.7c1.4,0,2.5,1.1,2.5,2.5v2.9
		C-428.1,516.6-429.2,517.7-430.6,517.7z"/>
	<g>
		<g>
			<path class="st6" d="M-391.3,396.5c0.9,0,1.7,0,2.6,0c0.1,0.1,0.3,0.1,0.4,0.2c1.3,0.2,2.6,0.2,3.8,0.5c2.1,0.5,4,1.3,5.2,3.3
				c0.1,0.2,0.4,0.3,0.6,0.2c2.3-0.1,4.5,0.4,6.2,2c1.2,1.1,2.3,2.4,3.4,3.6c0.9,0.9,1.4,2.1,1.7,3.3c1,4.7,0.9,9.5,0.6,14.2
				c-1-0.2-1.7,0.2-2.2,1.1c-0.3,0.5-0.7,1-1.1,1.5c-0.8-0.9-1.4-1.6-2.1-2.4c-0.5-0.8-1.1-1.5-1.6-2.3c-1-1.8-2.3-3.5-2.9-5.5
				c-0.9-2.8-2.7-4.7-4.8-6.5c-1,0.9-2.1,1.3-3.4,1.5c-4.9,0.5-9.3,2.2-13.5,4.8c-3.9,2.5-8.2,4.2-13.1,5c1.4-1.2,2.5-2.2,3.7-3.3
				c0.1-0.1,0.1-0.1,0.2-0.2c0,0,0-0.1,0-0.1c-0.1,0-0.2,0.1-0.3,0.1c-1.5,0.8-3,1.5-4.4,2.3c-2.4,1.2-4.5,2.7-6.3,4.6
				c-0.8,0.8-1.4,1.7-1.6,2.9c-0.2-0.5-0.4-0.9-0.5-1.4c-0.7-3.6-0.2-7,1-10.4c2.7-7.9,7.7-13.7,15.6-16.7c3.3-1.3,6.7-1.6,10.2-2
				C-393.1,396.7-392.2,396.6-391.3,396.5z"/>
			<path class="st7" d="M-421.3,434.5c0.1-0.3,0.2-0.7,0.4-0.9c0.3-0.3,0.7-0.6,1-0.9c0.6,0.4,1.3,0.8,1.7,1.4c0.6,1,1,2.2,1.5,3.3
				c0.3,0.8,0.4,1.6,0.7,2.4c0.3,2.6,0.6,5.1,0.9,7.7c0.2,1.5,0.5,3,0.7,4.5c-2.3,0.1-3.3-0.8-3.5-3.1c-0.2-1.8-0.4-3.7-0.6-5.5
				c0-0.3-0.1-0.7-0.3-1c-1.4-1.8-1.7-4-2.1-6.1c0-0.2-0.1-0.4-0.2-0.6C-421.3,435.2-421.3,434.8-421.3,434.5z"/>
			<path class="st8" d="M-414.6,451.9c-0.2-1.5-0.5-3-0.7-4.5c-0.3-2.5-0.6-5.1-0.9-7.7c1-0.7,1-0.7,0.7-2.1
				c-0.4-1.9-0.4-3.9,0.2-5.8c1.4-3.9,2.2-8,2.9-12.1c1.5-0.8,3-1.5,4.4-2.3c0,0,0.1,0.1,0.1,0.1c-1.2,1-2.4,2.1-3.7,3.3
				c4.8-0.8,9.1-2.5,13.1-5c4.2-2.6,8.6-4.3,13.5-4.8c1.3-0.1,2.4-0.6,3.4-1.5c2.1,1.8,3.9,3.7,4.8,6.5c0.6,1.9,1.9,3.7,2.9,5.5
				c0.5,0.8,1,1.6,1.6,2.3c0,1.3,0,2.6,0.2,3.8c0.3,2.2,0.7,4.4,1.3,6.5c0.3,1,1,1.8,1.6,2.7c-0.1,0.9-0.1,1.9-0.2,2.8
				c-0.2,1.8-0.3,3.6-0.6,5.4c-0.3,1.9-0.7,3.8-1,5.7c-0.4,1.7-1,3.5-1.2,5.2c-0.4,2.5-1.5,4.5-3.1,6.4c-0.8,0.9-1.8,1.6-2.7,2.5
				c-0.8,0.9-1.6,1.9-2.3,2.8c-1.4,1.8-3,3.3-5.1,4.3c-2.8,1.4-5.6,1.1-8.4,0.3c-3.6-1-6.6-2.9-9.4-5.4c-3.7-3.3-6.9-7.2-9.9-11.1
				c-0.7-0.9-0.8-2.1-1.2-3.2C-414.4,452.5-414.5,452.2-414.6,451.9z M-399.7,464.8C-399.7,464.8-399.7,464.7-399.7,464.8
				C-399.7,464.7-399.7,464.8-399.7,464.8c0,0.1,0.1,0.2,0.2,0.3c0,0.1,0,0.2,0.1,0.3c1.7,2,3.8,3.2,6.3,3.7c2,0.4,4,0.4,6,0.1
				c1.2-0.2,2.4-0.6,3.6-1c0.9-0.4,1.4-1.2,1.6-2.2c-0.9,0.5-1.6,1-2.5,1.4c-1.8,0.8-3.8,0.9-5.7,0.8c-3.2,0-6.1-1.1-8.7-2.9
				c-0.2-0.1-0.5-0.2-0.7-0.3C-399.6,465-399.6,464.9-399.7,464.8z M-410.1,435.8C-410.1,435.7-410.1,435.7-410.1,435.8
				C-410.1,435.7-410.1,435.7-410.1,435.8c0.8,0.6,1.6,0.7,2.4,0.1C-408.5,435.8-409.3,435.8-410.1,435.8z M-383.6,461.2
				C-383.6,461.3-383.6,461.3-383.6,461.2C-383.6,461.3-383.6,461.3-383.6,461.2c-0.8-0.5-1.5-1-2.3-1.4c-2.5-1.1-5.1-1.6-7.7-0.5
				c-0.9,0.4-1.7,1-2.5,1.6c-0.1,0-0.1,0-0.2,0.1c0,0,0,0,0,0.1c0.1,0,0.1-0.1,0.2-0.1c0.2,0,0.4-0.1,0.6-0.1
				c2.8-0.9,5.6-1.2,8.5-0.5C-385.9,460.5-384.8,460.9-383.6,461.2z M-385.6,431.1c0.1,0,0.1-0.1,0.2-0.1c3.4-0.9,6.7-1.4,10.2-0.6
				c-0.3-1.5-1.3-2.4-3-2.7c-2.5-0.4-4.9-0.1-7.4,0.4c-0.2,0.1-0.6,0.3-0.6,0.5c-0.4,1-0.7,2-1,2.9c-1.7,2.5-1,5.4,1.6,6.8
				c-0.5-1.4-0.6-2.7,0.3-3.9c0.6-0.3,1.2-0.6,2-1c-0.4,1.2-0.2,2,0.7,2.6c0.7,0.5,1.4,0.4,2.1,0c1.1-0.7,1-1.7,0.5-3
				c1.3,0.5,2.5,0.9,3.6,1.3c-0.1-0.1-0.1-0.2-0.2-0.3c-0.2-0.2-0.4-0.4-0.6-0.5c-1.7-1.2-3.6-1.5-5.5-0.9c-1.1,0.3-2.1,0.8-2.5,2
				c-0.7-0.4-0.8-1.1-0.1-1.6c0.6-0.4,1.4-0.8,2.1-0.9c0.8-0.2,1.7-0.2,2.6-0.3c-1-0.6-2.8-0.5-4.9,0.1l0,0
				C-385.6,431.4-385.6,431.2-385.6,431.1C-385.6,431.1-385.6,431.1-385.6,431.1z M-397.3,434.7c-2-3-7.1-2.5-8.9-0.1
				c0.7-0.3,1.2-0.5,1.7-0.7c0.6-0.2,1.2-0.3,1.9-0.5c-0.1,0.4-0.2,0.6-0.2,0.8c-0.2,0.8,0,1.6,0.7,2.1c0.7,0.5,1.4,0.6,2.1,0.2
				c1-0.5,1.1-1.4,0.9-2.4c0,0,0.1-0.1,0.1-0.1c0.6,0.4,1.2,0.7,1.9,1.1c0.8,1.1,0.5,2.4,0.3,3.7c2.8-2.6,3.3-4.2,1.5-6.8
				c-0.3-0.8-0.6-1.6-0.8-2.4c-0.2-0.7-0.6-1-1.3-1.1c-1.7-0.2-3.4-0.4-5.2-0.4c-1.3,0-2.6,0.1-3.7,0.9c-0.6,0.5-1.1,1-1.1,1.9
				c3.5-0.8,6.9-0.3,10.3,0.7c0,0.2,0,0.4,0.1,0.7c-1.6-0.9-3.2-0.7-4.9-0.2c0.4,0.1,0.8,0,1.3,0.1c1.3,0.1,2.5,0.5,3.5,1.4
				C-396.6,433.9-396.7,434.3-397.3,434.7z M-383.3,452.7c0.2,0,0.3,0,0.5,0.1c-0.1,0.2-0.2,0.4-0.3,0.5c1.5,0.2,2.1-0.2,2-1.6
				c-0.1-1-0.4-2-0.6-3c-0.1,0-0.2,0-0.3,0c0.2,1.2,0.2,2.4-0.3,3.5c-2.5-1.3-5.1-0.9-7.6-1c-2.6,0-5.2-0.1-7.6,1
				c-0.1-0.1-0.1-0.2-0.1-0.3c-0.1-1.7-0.2-3.4,0.5-5c0.1-0.3,0-0.7,0.1-1c0.3,0,0.6,0,0.9-0.2c1.3-0.6,2.3-0.3,3.5,0.4
				c0.6,0.4,1.6,0.6,2.3,0.4c1.2-0.3,2.3-0.9,3.4-1.4c0.2-0.1,0.7-0.1,0.9,0.1c0.6,0.7,1.4,0.6,1.9-0.2c0.1-0.3,0.2-0.5,0.4-1
				c1.7,1.6,3.3,3,4.9,4.5c-0.3-1.1-1.1-1.9-2-2.6c-1.1-0.9-2.1-1.9-2.8-3.2c-0.4-0.8-0.8-1.6-1.2-2.4c-0.1,0-0.1,0.1-0.2,0.1
				c0,0.3,0.1,0.6,0.1,1c-0.2-0.1-0.4-0.1-0.6-0.2c0,0,0,0-0.1,0c0,0,0,0,0.1,0c0.2,0.4,0.5,0.8,0.6,1.3c0.3,0.7,0.5,1.5,0.1,1.9
				c-1,0-1.8-0.1-2.5,0c-0.5,0.1-1,0.6-1.5,0.8c-0.8,0.3-1.6,0.8-2.3,0.8c-0.6,0-1.3-0.6-1.9-0.9c-0.8-0.5-1.5-1.2-2.6-0.7
				c-0.4,0.1-1,0.3-1.1,0.1c-0.3-0.3-0.4-0.9-0.3-1.3c0.1-0.9,0.4-1.7,0.7-2.7c-0.3,0.1-0.4,0.1-0.5,0.2c-1,0.6-1.4,1.6-1.8,2.6
				c-1,2.3-1.7,4.7-3.2,6.8c-0.1,0.1-0.2,0.3-0.2,0.4c0.3,0,0.4-0.2,0.6-0.3c1.5-1.3,2.4-3,3-4.8c0.2-0.6,0.5-1.1,0.8-1.7
				c0.1,0,0.2,0,0.2,0.1c-0.1,0.9,0.2,1.6,0.8,2.3c-0.3,0.1-0.7,0.2-0.9,0.4c-1,1.6-1.2,3.3-0.6,5c0.3,0.8,1.1,1.4,0.2,2.5
				c0.7-0.3,1.2-0.5,1.6-0.7c0.2,0.1,0.3,0.3,0.5,0.3c2.5,0.2,5,0.4,7.5,0.5C-386.9,454-385,453.8-383.3,452.7z M-406.9,436.9
				c-0.1,0.1-0.2,0.2-0.2,0.2c0.3,0.4,0.4,0.9,0.8,1.1c1.2,0.7,2.5,0.4,3.8,0C-404.2,438.1-405.7,438-406.9,436.9z M-375.5,436.5
				c-0.7,0.3-1.4,0.7-2.1,0.9c-0.7,0.2-1.5,0.3-2.3,0.4C-377.3,438.6-375.5,437.9-375.5,436.5z M-374.9,434.3
				c1.4,0.4,2.3-0.2,2.2-1.3C-373.4,433.4-374.2,433.9-374.9,434.3z M-407.7,434.8c-0.8-0.4-1.5-0.8-2.2-1.1
				C-409.7,434.8-408.9,435.2-407.7,434.8z M-372.6,435.3c-0.7,0-1.6,0-2.6,0C-373.9,435.9-373.2,435.9-372.6,435.3z M-386.1,440.8
				C-386.1,440.8-386,440.8-386.1,440.8C-386,440.8-386,440.8-386.1,440.8C-386,440.8-386.1,440.8-386.1,440.8
				C-386.1,440.8-386.1,440.8-386.1,440.8z M-386.3,440.5C-386.4,440.5-386.4,440.5-386.3,440.5
				C-386.4,440.5-386.4,440.5-386.3,440.5C-386.4,440.5-386.3,440.5-386.3,440.5z"/>
			<path class="st9" d="M-412.3,419.9c-0.7,4.1-1.5,8.2-2.9,12.1c-0.7,1.9-0.7,3.8-0.2,5.8c0.3,1.3,0.3,1.3-0.7,2.1
				c-0.2-0.8-0.4-1.6-0.7-2.4c-0.4-1.1-0.8-2.3-1.5-3.3c-0.3-0.6-1.1-0.9-1.7-1.4c-0.1-1.8-0.2-3.6-0.2-5.3c0.1-1.2,0.8-2.1,1.6-2.9
				C-416.8,422.5-414.7,421-412.3,419.9z"/>
			<path class="st10" d="M-369.2,437.1c-0.5-0.9-1.3-1.7-1.6-2.7c-0.6-2.1-1-4.3-1.3-6.5c-0.2-1.3-0.1-2.5-0.2-3.8
				c0.7,0.8,1.3,1.5,2.1,2.4c0.4-0.5,0.8-1,1.1-1.5c0.5-0.8,1.2-1.3,2.2-1.1c0.1,2.7,0.2,5.3,0.3,8
				C-367.5,433.6-368.3,435.3-369.2,437.1z"/>
			<path class="st8" d="M-407.9,417.6c0.1,0,0.2-0.1,0.3-0.1c0,0,0,0.1,0,0.1c-0.1,0.1-0.1,0.1-0.2,0.2
				C-407.8,417.7-407.9,417.6-407.9,417.6z"/>
			<path class="st7" d="M-369.2,437.1c0.9-1.7,1.7-3.4,2.6-5.2c0.3,1.1,0.8,2.2,0.9,3.3c0.3,2.7-0.3,5.4-1,8.1
				c-0.5,1.9-1,3.9-1.4,5.8c-0.4,1.6-1.1,2.1-2.9,1.9c0.3-1.9,0.8-3.8,1-5.7c0.3-1.8,0.4-3.6,0.6-5.4
				C-369.3,438.9-369.3,438-369.2,437.1z"/>
			<path class="st11" d="M-385.7,441.2c0.2,0.1,0.4,0.1,0.6,0.2c0-0.3-0.1-0.7-0.1-1c0.1,0,0.1-0.1,0.2-0.1c0.4,0.8,0.8,1.6,1.2,2.4
				c0.7,1.3,1.7,2.3,2.8,3.2c0.9,0.8,1.7,1.5,2,2.6c-1.6-1.4-3.2-2.9-4.9-4.5c-0.2,0.5-0.2,0.7-0.4,1c-0.4,0.9-1.3,0.9-1.9,0.2
				c-0.1-0.2-0.6-0.2-0.9-0.1c-1.2,0.4-2.3,1.1-3.4,1.4c-0.7,0.2-1.7,0-2.3-0.4c-1.2-0.7-2.2-1-3.5-0.4c-0.2,0.1-0.6,0.1-0.9,0.2
				c0,0,0,0,0,0c-0.6-0.6-0.9-1.3-0.8-2.3c-0.1,0-0.2,0-0.2-0.1c-0.3,0.6-0.6,1.1-0.8,1.7c-0.6,1.8-1.5,3.5-3,4.8
				c-0.2,0.1-0.3,0.3-0.6,0.3c0.1-0.1,0.1-0.3,0.2-0.4c1.5-2,2.3-4.5,3.2-6.8c0.4-1,0.8-2.1,1.8-2.6c0.1-0.1,0.3-0.1,0.5-0.2
				c-0.3,1-0.5,1.8-0.7,2.7c-0.1,0.4,0.1,1,0.3,1.3c0.2,0.2,0.8,0.1,1.1-0.1c1.1-0.5,1.8,0.2,2.6,0.7c0.6,0.4,1.2,0.9,1.9,0.9
				c0.8,0,1.6-0.5,2.3-0.8c0.5-0.2,1-0.7,1.5-0.8c0.7-0.1,1.5,0,2.5,0c0.3-0.5,0.2-1.2-0.1-1.9C-385.3,442-385.5,441.6-385.7,441.2
				L-385.7,441.2z"/>
			<path class="st12" d="M-387.2,431.4c0.3-1,0.6-2,1-2.9c0.1-0.2,0.4-0.4,0.6-0.5c2.4-0.5,4.9-0.7,7.4-0.4c1.7,0.3,2.7,1.2,3,2.7
				c-3.5-0.8-6.9-0.3-10.2,0.6c-0.1,0-0.1,0.1-0.2,0.1c0,0,0,0,0,0C-386.1,431.2-386.7,431.3-387.2,431.4z"/>
			<path class="st13" d="M-397.1,431.5c-3.4-1-6.7-1.5-10.3-0.7c0-0.9,0.5-1.5,1.1-1.9c1.1-0.8,2.4-1,3.7-0.9c1.7,0,3.4,0.3,5.2,0.4
				c0.7,0.1,1.1,0.4,1.3,1.1c0.2,0.8,0.5,1.6,0.8,2.4C-396,431.8-396.5,431.7-397.1,431.5z"/>
			<path class="st14" d="M-397.1,446c0,0.4,0.1,0.7-0.1,1c-0.7,1.6-0.6,3.3-0.5,5c0,0.1,0.1,0.2,0.1,0.3c2.4-1.1,5-1,7.6-1
				c2.5,0,5.1-0.4,7.6,1c0.6-1.1,0.5-2.3,0.3-3.5c0.1,0,0.2,0,0.3,0c0.2,1,0.6,2,0.6,3c0.1,1.4-0.4,1.8-2,1.6
				c0.1-0.2,0.2-0.3,0.3-0.5c-0.2,0-0.4,0-0.5-0.1c-0.2-0.1-0.3-0.1-0.5-0.2c-3.2-0.1-6.4-0.2-9.6-0.1c-1.1,0-2.3,0.5-3.4,0.7
				c-0.4,0.2-0.9,0.4-1.6,0.7c0.8-1.1,0-1.7-0.2-2.5c-0.6-1.8-0.3-3.5,0.6-5C-397.8,446.2-397.4,446.1-397.1,446
				C-397.1,446-397.1,446-397.1,446z"/>
			<path class="st15" d="M-399.5,465.1c0.2,0.1,0.5,0.2,0.7,0.3c2.6,1.9,5.5,2.9,8.7,2.9c2,0,3.9,0,5.7-0.8c0.8-0.4,1.6-0.9,2.5-1.4
				c-0.3,0.9-0.7,1.8-1.6,2.2c-1.2,0.4-2.4,0.8-3.6,1c-2,0.3-4,0.3-6-0.1c-2.5-0.6-4.6-1.8-6.3-3.7
				C-399.5,465.3-399.5,465.2-399.5,465.1C-399.5,465.1-399.5,465.1-399.5,465.1z"/>
			<path class="st16" d="M-399.2,434c0.2,1,0,1.9-0.9,2.4c-0.7,0.4-1.4,0.3-2.1-0.2c-0.6-0.5-0.9-1.3-0.7-2.1
				c0.1-0.2,0.1-0.4,0.2-0.8c-0.7,0.2-1.3,0.3-1.9,0.5c-0.5,0.2-1.1,0.4-1.7,0.7c1.8-2.4,7-3,8.9,0.1c0,0.1,0,0.2,0.1,0.3
				c-0.6-0.4-1.2-0.7-1.9-1.1c-0.1,0-0.1,0-0.2,0C-399.3,433.9-399.2,434-399.2,434z"/>
			<path class="st17" d="M-385.2,434.3c0.4-1.2,1.4-1.7,2.5-2c2-0.5,3.9-0.3,5.5,0.9c0.2,0.2,0.4,0.3,0.6,0.5
				c0.1,0.1,0.1,0.2,0.2,0.3c-1.2-0.4-2.3-0.8-3.6-1.3c0.5,1.3,0.6,2.3-0.5,3c-0.7,0.4-1.4,0.5-2.1,0c-0.9-0.6-1.1-1.4-0.7-2.6
				C-384,433.6-384.6,434-385.2,434.3C-385.2,434.3-385.2,434.3-385.2,434.3z"/>
			<path class="st18" d="M-396.8,453.2c1.1-0.3,2.3-0.7,3.4-0.7c3.2-0.1,6.4,0.1,9.6,0.1c0.2,0,0.3,0.1,0.5,0.2
				c-1.7,1-3.6,1.2-5.5,1.2c-2.5,0-5-0.3-7.5-0.5C-396.5,453.5-396.6,453.3-396.8,453.2z"/>
			<path class="st19" d="M-397.3,435c0-0.1,0-0.2-0.1-0.3c0.6-0.3,0.7-0.8,0.2-1.2c-1-0.9-2.2-1.3-3.5-1.4c-0.4,0-0.8,0-1.3-0.1
				c1.6-0.5,3.2-0.7,4.9,0.2c0-0.3,0-0.5-0.1-0.7c0.6,0.1,1.1,0.3,1.7,0.4c1.8,2.6,1.3,4.2-1.5,6.8
				C-396.8,437.4-396.4,436.1-397.3,435z"/>
			<path class="st19" d="M-387.2,431.4c0.5-0.1,1-0.2,1.6-0.4c0,0.2,0,0.3,0,0.5c0,0.1-0.1,0.1-0.1,0.2c0,0,0,0,0.1,0
				c0-0.1,0-0.1,0.1-0.2c2.1-0.6,3.9-0.7,4.9-0.1c-0.8,0.1-1.7,0.1-2.6,0.3c-0.7,0.2-1.4,0.5-2.1,0.9c-0.7,0.4-0.6,1.1,0.1,1.6
				c0,0,0,0,0,0c-0.9,1.2-0.8,2.5-0.3,3.9C-388.2,436.9-388.9,433.9-387.2,431.4z"/>
			<path class="st15" d="M-396.2,460.9c0.8-0.5,1.6-1.2,2.5-1.6c2.6-1.1,5.2-0.6,7.7,0.5c0.8,0.4,1.5,0.9,2.3,1.4l0,0
				c-1.1-0.3-2.2-0.7-3.4-1c-2.9-0.7-5.7-0.4-8.5,0.5C-395.7,460.9-395.9,460.9-396.2,460.9L-396.2,460.9z"/>
			<path class="st20" d="M-406.9,436.9c1.2,1.1,2.8,1.3,4.3,1.4c-1.3,0.4-2.5,0.7-3.8,0c-0.4-0.2-0.5-0.7-0.8-1.1
				C-407.1,437-407,436.9-406.9,436.9z"/>
			<path class="st20" d="M-375.5,436.5c0.1,1.4-1.8,2.1-4.4,1.3c0.8-0.1,1.6-0.2,2.3-0.4C-376.9,437.1-376.3,436.8-375.5,436.5z"/>
			<path class="st21" d="M-374.9,434.3c0.7-0.4,1.5-0.9,2.2-1.3C-372.6,434.1-373.5,434.6-374.9,434.3z"/>
			<path class="st20" d="M-407.7,434.8c-1.2,0.4-2,0-2.2-1.1C-409.2,434-408.5,434.4-407.7,434.8z"/>
			<path class="st22" d="M-372.6,435.3c-0.6,0.6-1.3,0.6-2.6,0C-374.1,435.3-373.3,435.3-372.6,435.3z"/>
			<path class="st23" d="M-410.1,435.8c0.8,0,1.6,0.1,2.4,0.1C-408.5,436.4-409.3,436.4-410.1,435.8L-410.1,435.8z"/>
			<path class="st15" d="M-399.7,464.8c0.1,0.1,0.1,0.2,0.2,0.3c0,0,0,0,0,0C-399.6,465-399.6,464.9-399.7,464.8L-399.7,464.8z"/>
			<path class="st15" d="M-396.1,460.9c-0.1,0-0.1,0.1-0.2,0.1c0,0,0,0,0-0.1C-396.3,461-396.2,460.9-396.1,460.9
				C-396.2,460.9-396.1,460.9-396.1,460.9z"/>
			<path class="st11" d="M-386.1,440.8C-386.1,440.8-386.1,440.8-386.1,440.8C-386.1,440.8-386,440.8-386.1,440.8
				C-386,440.8-386,440.8-386.1,440.8C-386,440.8-386.1,440.8-386.1,440.8z"/>
			<path class="st11" d="M-386.3,440.5C-386.3,440.5-386.4,440.5-386.3,440.5C-386.4,440.5-386.4,440.5-386.3,440.5
				C-386.4,440.5-386.4,440.5-386.3,440.5z"/>
			<path class="st11" d="M-385.7,441.2C-385.8,441.2-385.8,441.2-385.7,441.2C-385.8,441.2-385.7,441.2-385.7,441.2
				C-385.7,441.2-385.7,441.2-385.7,441.2z"/>
			<path class="st23" d="M-410.1,435.8C-410.1,435.7-410.1,435.7-410.1,435.8C-410.1,435.7-410.1,435.7-410.1,435.8
				C-410.1,435.8-410.1,435.8-410.1,435.8z"/>
			<path class="st19" d="M-385.6,431.1c0.1,0,0.1-0.1,0.2-0.1C-385.5,431-385.5,431-385.6,431.1z"/>
			<path class="st15" d="M-383.6,461.2C-383.6,461.3-383.6,461.3-383.6,461.2C-383.6,461.3-383.6,461.3-383.6,461.2
				C-383.6,461.2-383.6,461.2-383.6,461.2z"/>
			<path class="st15" d="M-399.7,464.8C-399.7,464.8-399.7,464.7-399.7,464.8C-399.7,464.7-399.7,464.8-399.7,464.8
				C-399.7,464.8-399.7,464.8-399.7,464.8z"/>
			<path class="st8" d="M-399.2,434c0,0-0.1-0.1-0.1-0.1c0.1,0,0.1,0,0.2,0C-399.1,433.9-399.2,434-399.2,434z"/>
			<path class="st8" d="M-385.6,431.6c0,0.1,0,0.1-0.1,0.2c0,0,0,0-0.1,0C-385.6,431.7-385.6,431.6-385.6,431.6
				C-385.6,431.6-385.6,431.6-385.6,431.6z"/>
		</g>
	</g>
	<g>
		<path class="st1" d="M-417.3,479.6c-0.2-0.3-0.5-0.5-1-0.5c-0.3,0-0.5,0.1-0.6,0.2c-0.2,0.1-0.3,0.4-0.4,0.7
			c-0.1,0.3-0.2,0.7-0.2,1.2s-0.1,1.1-0.1,1.8c0,0.8,0,1.4,0.1,1.9s0.1,0.8,0.2,1.1c0.1,0.3,0.2,0.4,0.4,0.5
			c0.2,0.1,0.4,0.1,0.6,0.1c0.2,0,0.4,0,0.5-0.1c0.2-0.1,0.3-0.2,0.4-0.4c0.1-0.2,0.2-0.4,0.3-0.8c0.1-0.3,0.1-0.8,0.1-1.3h2.1
			c0,0.6,0,1.1-0.1,1.6s-0.2,0.9-0.5,1.3c-0.2,0.4-0.6,0.7-1,0.9s-1,0.3-1.7,0.3c-0.8,0-1.4-0.1-1.8-0.4c-0.5-0.2-0.8-0.6-1.1-1.1
			c-0.2-0.5-0.4-1-0.5-1.7c-0.1-0.6-0.1-1.4-0.1-2.1c0-0.8,0-1.5,0.1-2.1c0.1-0.7,0.2-1.2,0.5-1.7c0.2-0.5,0.6-0.8,1.1-1.1
			c0.5-0.3,1.1-0.4,1.8-0.4c0.7,0,1.3,0.1,1.7,0.4c0.4,0.2,0.7,0.5,1,0.9c0.2,0.4,0.3,0.8,0.4,1.2s0.1,0.8,0.1,1.2h-2
			C-417,480.5-417.1,479.9-417.3,479.6z"/>
		<path class="st1" d="M-413.8,482.5c0-0.4,0.1-0.8,0.2-1.1c0.1-0.3,0.3-0.5,0.6-0.7c0.2-0.2,0.5-0.3,0.9-0.4
			c0.3-0.1,0.7-0.1,1.1-0.1c0.6,0,1.1,0.1,1.4,0.2c0.4,0.1,0.6,0.3,0.8,0.5c0.2,0.2,0.3,0.5,0.4,0.8c0.1,0.3,0.1,0.6,0.1,1v4
			c0,0.4,0,0.6,0,0.8s0.1,0.4,0.2,0.6h-1.9c-0.1-0.1-0.1-0.3-0.2-0.4c0-0.1-0.1-0.3-0.1-0.4l0,0c-0.2,0.4-0.5,0.7-0.8,0.8
			c-0.3,0.1-0.7,0.2-1.2,0.2c-0.3,0-0.6-0.1-0.9-0.2c-0.2-0.1-0.4-0.3-0.6-0.5c-0.1-0.2-0.2-0.4-0.3-0.7c-0.1-0.3,0.1-0.6,0.1-0.9
			c0-0.4,0-0.7,0.1-0.9c0.1-0.3,0.2-0.5,0.4-0.7c0.2-0.2,0.4-0.3,0.6-0.5c0.2-0.1,0.5-0.2,0.9-0.3l1.1-0.3c0.3-0.1,0.5-0.2,0.6-0.3
			c0.1-0.1,0.2-0.3,0.2-0.6c0-0.3-0.1-0.5-0.2-0.7c-0.1-0.2-0.4-0.3-0.7-0.3s-0.5,0.1-0.7,0.3c-0.2,0.2-0.2,0.4-0.2,0.7v0.2
			L-413.8,482.5L-413.8,482.5L-413.8,482.5z M-410.6,484.4c-0.2,0.1-0.3,0.1-0.4,0.1c-0.4,0.1-0.7,0.2-0.9,0.4
			c-0.2,0.2-0.3,0.5-0.3,0.8c0,0.3,0.1,0.5,0.2,0.8c0.1,0.3,0.3,0.3,0.6,0.3c0.1,0,0.3,0,0.4-0.1c0.1,0,0.3-0.1,0.4-0.2
			c0.1-0.1,0.2-0.2,0.3-0.4c0.1-0.2,0.1-0.3,0.1-0.5v-1.5C-410.3,484.3-410.5,484.3-410.6,484.4z"/>
		<path class="st1" d="M-405,480.3v0.8l0,0c0.2-0.4,0.5-0.6,0.8-0.8c0.3-0.2,0.7-0.2,1.1-0.2c0.5,0,0.8,0.1,1.2,0.3
			c0.4,0.2,0.5,0.5,0.6,0.9l0,0c0.2-0.4,0.4-0.7,0.7-0.9c0.3-0.2,0.7-0.3,1.2-0.3c0.7,0,1.1,0.2,1.5,0.6c0.3,0.4,0.5,1,0.5,1.7v5.6
			h-2v-5.4c0-0.3-0.1-0.6-0.2-0.7c-0.1-0.2-0.3-0.3-0.6-0.3c-0.3,0-0.6,0.1-0.8,0.3c-0.2,0.2-0.3,0.5-0.3,1v5.1h-2v-5.4
			c0-0.3-0.1-0.6-0.2-0.7s-0.3-0.3-0.6-0.3c-0.3,0-0.6,0.1-0.8,0.3c-0.2,0.2-0.3,0.5-0.3,1v5.1h-2v-7.7H-405z"/>
		<path class="st1" d="M-396.1,482.5c0-0.4,0.1-0.8,0.2-1.1c0.1-0.3,0.3-0.5,0.6-0.7c0.2-0.2,0.5-0.3,0.9-0.4
			c0.3-0.1,0.7-0.1,1.1-0.1c0.6,0,1.1,0.1,1.4,0.2c0.4,0.1,0.6,0.3,0.8,0.5c0.2,0.2,0.3,0.5,0.4,0.8c0.1,0.3,0.1,0.6,0.1,1v4
			c0,0.4,0,0.6,0,0.8s0.1,0.4,0.2,0.6h-1.9c-0.1-0.1-0.1-0.3-0.2-0.4c0-0.1-0.1-0.3-0.1-0.4l0,0c-0.2,0.4-0.5,0.7-0.8,0.8
			c-0.3,0.1-0.7,0.2-1.2,0.2c-0.3,0-0.6-0.1-0.9-0.2c-0.2-0.1-0.4-0.3-0.6-0.5c-0.1-0.2-0.2-0.4-0.3-0.7c-0.1-0.3-0.1-0.5-0.1-0.8
			c0-0.4,0-0.7,0.1-0.9c0.1-0.3,0.2-0.5,0.4-0.7c0.2-0.2,0.4-0.3,0.6-0.5c0.2-0.1,0.5-0.2,0.9-0.3l1.1-0.3c0.3-0.1,0.5-0.2,0.6-0.3
			c0.1-0.1,0.2-0.3,0.2-0.6s-0.1-0.5-0.2-0.7c-0.1-0.2-0.4-0.3-0.7-0.3s-0.5,0.1-0.7,0.3c-0.2,0.2-0.2,0.4-0.2,0.7v0.2h-1.8v-0.2
			H-396.1z M-392.9,484.4c-0.2,0.1-0.3,0.1-0.4,0.1c-0.4,0.1-0.7,0.2-0.9,0.4c-0.2,0.2-0.3,0.5-0.3,0.8c0,0.3,0.1,0.5,0.2,0.8
			c0.1,0.3,0.3,0.3,0.6,0.3c0.1,0,0.3,0,0.4-0.1c0.1,0,0.3-0.1,0.4-0.2c0.1-0.1,0.2-0.2,0.3-0.4c0.1-0.2,0.1-0.3,0.1-0.5v-1.5
			C-392.6,484.3-392.7,484.3-392.9,484.4z"/>
		<path class="st1" d="M-385.5,482.5c0-0.2-0.1-0.3-0.1-0.5c-0.1-0.1-0.2-0.3-0.3-0.4s-0.3-0.1-0.5-0.1c-0.2,0-0.4,0.1-0.6,0.2
			c-0.2,0.1-0.3,0.3-0.3,0.5c-0.1,0.2-0.1,0.5-0.2,0.8c0,0.3,0,0.7,0,1.2s0,0.9,0,1.2c0,0.3,0.1,0.6,0.2,0.8
			c0.1,0.2,0.2,0.4,0.3,0.5c0.1,0.1,0.3,0.1,0.5,0.1c0.3,0,0.6-0.1,0.7-0.4c0.2-0.3,0.2-0.7,0.2-1.4h1.9c0,1-0.2,1.8-0.7,2.3
			s-1.2,0.8-2.3,0.8c-0.5,0-0.9-0.1-1.3-0.2s-0.7-0.3-0.9-0.6c-0.2-0.3-0.4-0.7-0.6-1.2c-0.1-0.5-0.2-1.2-0.2-1.9
			c0-0.8,0.1-1.4,0.2-2c0.2-0.5,0.4-0.9,0.6-1.2c0.3-0.3,0.6-0.5,1-0.6c0.4-0.1,0.8-0.2,1.3-0.2c0.9,0,1.6,0.3,2.1,0.8
			s0.7,1.3,0.7,2.2h-1.9C-385.5,482.9-385.5,482.7-385.5,482.5z"/>
		<path class="st1" d="M-380.6,477.8v3.3l0,0c0.4-0.7,1-1,1.9-1c0.6,0,1.1,0.2,1.5,0.5c0.3,0.3,0.5,0.9,0.5,1.7v5.7h-2v-5.3
			c0-0.4-0.1-0.7-0.2-0.8c-0.1-0.2-0.3-0.2-0.6-0.2c-0.7,0-1,0.4-1,1.3v5.1h-2v-10.2h1.9V477.8z"/>
		<path class="st1" d="M-375.5,482.4c0.1-0.5,0.3-0.9,0.5-1.3c0.2-0.3,0.6-0.6,0.9-0.8c0.4-0.2,0.9-0.3,1.4-0.3
			c0.6,0,1.1,0.1,1.5,0.2c0.4,0.2,0.7,0.4,0.9,0.8c0.2,0.3,0.4,0.8,0.5,1.3c0.1,0.5,0.1,1.1,0.1,1.8c0,0.7-0.1,1.2-0.2,1.7
			s-0.3,0.9-0.5,1.3c-0.2,0.3-0.6,0.6-0.9,0.8c-0.4,0.2-0.9,0.2-1.4,0.2c-0.6,0-1.1-0.1-1.5-0.2c-0.4-0.2-0.7-0.4-0.9-0.7
			c-0.2-0.3-0.4-0.8-0.5-1.3s-0.1-1.1-0.1-1.8C-375.7,483.5-375.6,482.9-375.5,482.4z M-373.7,485.2c0,0.3,0.1,0.6,0.1,0.9
			c0.1,0.2,0.2,0.4,0.3,0.6c0.1,0.1,0.3,0.2,0.6,0.2c0.4,0,0.7-0.2,0.8-0.6c0.2-0.4,0.2-1.1,0.2-2.1s-0.1-1.7-0.2-2.1
			c-0.2-0.4-0.4-0.6-0.8-0.6c-0.2,0-0.4,0.1-0.6,0.2c-0.1,0.1-0.3,0.3-0.3,0.6c-0.1,0.2-0.1,0.5-0.1,0.9c0,0.3,0,0.7,0,1.1
			C-373.7,484.7-373.7,484.9-373.7,485.2z"/>
	</g>
</g>
</svg>
