<?xml version="1.0" encoding="utf-8"?>
<!-- Generator: Adobe Illustrator 19.0.0, SVG Export Plug-In . SVG Version: 6.00 Build 0)  -->
<svg version="1.1" id="Layer_1" xmlns="http://www.w3.org/2000/svg" xmlns:xlink="http://www.w3.org/1999/xlink" x="0px" y="0px"
	 viewBox="-447 372 105 157" style="enable-background:new -447 372 105 157;" xml:space="preserve">
<style type="text/css">
	.st0{fill:#FCFCFC;}
	.st1{fill:#C4C4C4;}
	.st2{fill:#0D4B9E;}
	.st3{fill:#E8E8E8;}
	.st4{fill:#141414;}
	.st5{fill:#B71515;}
	.st6{fill:#DEA795;}
	.st7{fill:#E3B5A2;}
	.st8{fill:#C58E7C;}
	.st9{fill:#211815;}
	.st10{fill:#C8907E;}
	.st11{fill:#231A16;}
	.st12{fill:#C8917F;}
	.st13{fill:#C78F7D;}
	.st14{fill:#C7907E;}
	.st15{fill:#C99280;}
	.st16{fill:#C99380;}
	.st17{fill:#CA9381;}
</style>
<g>
	<g>
		<polygon class="st0" points="-351.6,528.3 -439.3,528.3 -439.3,375.6 -347.1,375.6 		"/>
		<polygon class="st1" points="-348.6,372 -438.2,372 -439.3,375.6 -346.4,375.6 		"/>
		<polygon class="st2" points="-357.7,493.3 -435,493.3 -435,386.3 -352.3,386.3 		"/>
		<rect x="-432.3" y="507.6" class="st3" width="71.4" height="16.3"/>
		<rect x="-420.3" y="511.2" class="st4" width="48.8" height="8.1"/>
	</g>
	<path class="st5" d="M-350.7,520h-10.8c-1.4,0-2.5-1.1-2.5-2.5v-3c0-1.4,1.1-2.5,2.5-2.5h10.9c1.4,0,2.5,1.1,2.5,2.5v3
		C-348.2,518.9-349.3,520-350.7,520z"/>
	<path class="st5" d="M-426.9,519.6h-11.9c-1.4,0-2.5-1.1-2.5-2.5v-3c0-1.4,1.1-2.5,2.5-2.5h11.9c1.4,0,2.5,1.1,2.5,2.5v3
		C-424.4,518.5-425.5,519.6-426.9,519.6z"/>
	<g>
		<g>
			<path class="st6" d="M-415.9,449.5c-0.5-0.4-1.2-0.8-1.4-1.3c-0.8-1.8-1.4-3.7-2-5.6c-0.9-3.1-1.8-6.2-2.7-9.2
				c0-0.2-0.1-0.3-0.2-0.4c0-0.5,0-1.1,0-1.6c0.7-1.3,1.1-1.5,2.2-1.1c0.1,0.3,0.2,0.7,0.3,1c0.8,3.9,1.6,7.8,2.5,11.7
				C-416.8,445-416.4,447.2-415.9,449.5z"/>
			<path class="st7" d="M-415.9,449.5c-0.5-2.2-1-4.4-1.4-6.6c-0.8-3.9-1.6-7.8-2.5-11.7c-0.1-0.3-0.2-0.7-0.3-1
				c-0.2-2.1-0.4-4.2-0.5-6.3c-0.1-1.7,0-3.4,0.1-5.1c0.2-2.6,0.6-5.1,1.5-7.6c2.8-8.2,8.5-13,16.8-15.2c2-0.5,4-0.9,6-0.7
				c6,0.5,11.8,1.7,16.8,5.2c4.4,3,7.2,7.2,8.6,12.2c0.9,3.3,1.2,6.7,1.1,10.1c0,0.8-0.2,1.6-0.2,2.4c0,0.2,0.1,0.4,0.1,0.5
				c-0.1,0.7-0.4,1.5-0.4,2.2c0,6,0.2,11.9-0.9,17.8c-0.5,3.2-1.2,6.3-2.4,9.3c-0.9,2.5-2.9,3.8-5.2,4.8c-0.1,0-0.2,0.1-0.3,0.1
				c-1.9,0.3-3.1,1.6-4.5,2.7c-2.2,1.9-4.8,2.8-7.7,3.1c-3.8,0.5-7.4-0.2-11-1.4c-0.5-0.2-1-0.2-1.6-0.2c-1.7-0.2-3.2-0.9-4.5-2
				c-3.6-3-6-6.9-7.5-11.3C-415.7,450.4-415.8,449.9-415.9,449.5z M-379.2,415C-379.2,415-379.2,415-379.2,415
				C-379.2,415-379.2,415-379.2,415C-379.2,415-379.2,415-379.2,415c0,0-0.1-0.1-0.1-0.1c0,0,0,0,0-0.1c0,0,0,0,0,0c0,0,0,0,0.1,0.1
				C-379.3,414.9-379.3,414.9-379.2,415z M-386.7,433.7c-0.1,0-0.1-0.1-0.2-0.1c0,0,0,0,0,0.1C-386.9,433.7-386.8,433.7-386.7,433.7
				c0.8,0.4,1.6,1,2.5,1.3c2.1,0.7,4.2,1.1,6.1,0.7c-1.9-0.4-3.9-0.8-6-1.3C-385,434.3-385.9,434-386.7,433.7z M-415.2,417.6
				c1.1-0.5,2.1-1.1,3.2-1.6c3.2-1.4,6.4-2.4,10-2c0.3,0,0.5,0,1,0c-1-0.4-2.8-0.5-4.4-0.5c-2.5,0.1-4.9,0.8-7,2.1
				C-413.4,416.1-414.2,416.9-415.2,417.6c-0.1,0-0.1,0-0.2,0.1c0,0,0,0,0,0.1C-415.3,417.6-415.2,417.6-415.2,417.6z M-380,417
				C-380,417-379.9,417-380,417C-379.9,417-379.9,417-380,417c-0.2-0.2-0.4-0.5-0.6-0.7c-1.7-1.3-3.7-1.9-5.8-1.9
				c-2.7,0-5.2,0.7-7.8,1.5c-1.2,0.4-2.5,0.7-3.7,0.8c-2.4,0.1-4.7-0.2-7.1-0.2c-2.1,0-4.1,0.4-6,1.2c-1.7,0.7-3.1,1.7-4,3.4
				c-0.1,0.1-0.2,0.2-0.2,0.3c0,0,0.1,0.1,0.1,0.1c0-0.1,0.1-0.3,0.1-0.4c0.3-0.2,0.6-0.4,0.8-0.6c2.2-2.2,4.8-3.4,8-3.3
				c1.9,0.1,3.8,0.2,5.7,0.3c2.7,0.1,5.2-0.5,7.7-1.3c3.7-1.3,7.4-1.3,11,0.2C-381.2,416.5-380.6,416.8-380,417z M-388.1,427.2
				c0,0,0.1,0.1,0.1,0.1c-0.1,0.2-0.2,0.3-0.2,0.5c-0.3,0.9,0,1.9,0.8,2.4c0.7,0.5,1.9,0.5,2.5-0.2c0.3-0.4,0.6-1,0.6-1.6
				c0.1-0.8-0.4-1.3-1.1-1.7c0.3,0,0.6,0,0.9,0.1c1.5,0.4,2.7,1.3,3.8,2.4c0.1,0.1,0.3,0.2,0.4,0.3c1.1-0.8,2.1-1.5,3.2-2.3
				c0.1-0.1,0.1-0.3,0.1-0.5c-0.2-0.6-0.3-1.3-0.6-1.9c-1.1-2.3-2.7-4-5.4-4.4c-2.5-0.3-4.9-0.1-7.2,1c-0.9,0.4-1.6,1.1-2.3,1.7
				c-0.3,0.2-0.2,0.8-0.3,1.3c-0.1,0.5-0.1,1.1-0.4,1.5c-1,2-0.5,3.8,0.9,5.5c1.1,1.3,2.4,2.3,4.1,2.8c0,0,0,0,0.1,0c0,0,0,0-0.1,0
				c-0.2-0.2-0.4-0.4-0.5-0.6c-0.7-1-1.4-1.9-2.1-2.9c-0.2-0.3-0.1-0.8-0.2-1.2C-389.9,428.8-389,428-388.1,427.2z M-383.6,446.1
				c0,0.1,0.1,0.1,0.1,0.2C-383.5,446.2-383.5,446.2-383.6,446.1c-0.1-0.5-0.2-0.9-0.4-1.4c-0.9-2.3-2-4.4-3.8-6
				c-0.7-0.6-1.4-1.1-2.4-1.4c1.4,2,1,4.8-0.5,5c-0.3-1-0.7-1.1-1.8-0.9c-0.8,0.2-1.3,0.6-1.9,1.2c-0.2,0.3-0.6,0.6-0.9,0.6
				c-1,0.1-2,0.1-2.9-0.5c-0.3-0.2-0.6-0.4-0.9-0.5c-0.7-0.3-1.4,0.1-1.6,0.8l0,0c-1.4-0.4-1.5-1.6-1.7-2.9c-1.5,1.8-2.2,3.8-2.8,6
				c0.8-1.5,1.6-3,2.5-4.4c0.1,0,0.1,0,0.2,0.1c0.2,1.2,1,1.8,2,2.1c0.2,0.1,0.5,0.1,0.6,0c0.8-0.7,1.5-0.6,2.4-0.1
				c1,0.5,2.2,0.7,3.1,0c0.9-0.8,1.8-0.7,2.8-0.4c1.3,0.4,2.7-0.6,2.7-2c0-0.5-0.1-1-0.1-1.6c0,0,0,0,0,0c0.2,0.1,0.5,0.3,0.6,0.4
				C-386.5,441.9-384.9,443.9-383.6,446.1z M-400.3,426.1c0-0.4,0.1-0.8-0.1-1.1c-0.3-0.5-0.7-1-1.2-1.3c-2.9-1.8-6-2.2-9.2-1.5
				c-2.5,0.6-4.9,3.5-5.2,6c0,0.1,0.1,0.2,0.1,0.3c0,0.1,0,0.2,0,0.2c1.1,0.8,2.2,1.6,3.3,2.4c1-1.1,2.1-2.1,3.6-2.6
				c-0.4,1.7-0.2,2.5,0.7,3c0.7,0.5,1.7,0.4,2.3-0.2c1-0.9,0.9-1.9,0.2-3.1c0.5,0.2,0.8,0.3,1,0.5c0.9,0.7,1.7,1.5,2.5,2.2
				c0.3,0.6,0.1,1.1-0.2,1.6c-0.3,0.5-0.6,0.9-0.9,1.4c-0.5,0.6-1,1.2-1.5,1.7c1.9-0.8,3.5-1.8,4.6-3.5c0.8-1.3,1-2.6,0.5-4.1
				C-399.8,427.5-400.1,426.8-400.3,426.1z M-398.5,456.4c3.7,3.3,8.1,2.3,10-0.7C-391.9,454.9-395.2,455.1-398.5,456.4z
				 M-385.7,450.9c-1.4,0.4-2.6-0.2-3.9-0.5c-1.4-0.3-2.7-0.6-3.9,0.4c-0.9,0.7-1.8,0.6-2.7,0.2c-0.8-0.4-1.5-0.2-2.2,0.2
				c-0.3,0.2-0.6,0.4-1,0.6c-0.8,0.5-1.6,1.1-2.6,1c-0.2,0-0.4,0.2-0.7,0.2c0.2,0.2,0.3,0.3,0.5,0.3c0.6-0.1,1.2-0.1,1.8-0.2
				c1.6-0.2,3.1-0.3,4.7-0.5c0.6-0.1,1.3-0.1,1.9-0.3c1.1-0.2,2.1-0.5,3.2-0.6c1.3-0.1,2.5,0.1,3.8,0.1
				C-386.2,451.9-385.8,451.6-385.7,450.9z M-380,414.4c-1.3-3.1-10.2-4.7-13.2-2.4C-388.4,410.9-384,411.5-380,414.4z
				 M-384.3,452.4c-0.3,3.4,1.3,6.3,2.7,6.4C-382.5,456.7-383.4,454.5-384.3,452.4z M-415,437.2c3.2,0.3,6.2-0.1,8.8-2
				C-409,436.3-412,436.9-415,437.2z M-394.6,447.4c-0.1,0-0.2,0-0.3,0c-0.2,0.6-0.5,1.2-0.6,1.8c-0.1,0.5,0.6,1.3,1,1.2
				c0.6-0.1,1-0.9,0.8-1.5C-394,448.4-394.3,447.9-394.6,447.4z M-404.3,453.6c-0.1,2.4-0.2,4.5-0.3,6.9
				C-403.4,458.1-403.4,456-404.3,453.6z M-404.7,460.7C-404.7,460.6-404.7,460.6-404.7,460.7C-404.7,460.6-404.7,460.6-404.7,460.7
				C-404.7,460.7-404.7,460.7-404.7,460.7C-404.7,460.7-404.7,460.7-404.7,460.7z M-393.5,412C-393.5,412-393.5,412-393.5,412
				C-393.5,412-393.5,412-393.5,412C-393.5,412-393.5,412-393.5,412C-393.5,412-393.5,412-393.5,412z"/>
			<path class="st6" d="M-371,445.7c1-5.9,0.9-11.9,0.9-17.8c0-0.7,0.3-1.5,0.4-2.2c0.5-0.2,1.1-0.5,1.6-0.6
				c1.6-0.3,2.9,0.9,2.8,2.6c-0.1,2-0.4,4.1-0.9,6.1c-0.7,2.8-1.6,5.6-2.5,8.4C-369.1,443.6-369.8,444.8-371,445.7z"/>
			<path class="st8" d="M-376.9,426.8c0,0.2,0,0.4-0.1,0.5c-1,0.8-2.1,1.5-3.2,2.3c-0.3-1.4-1-2.5-2.3-3.2c-1.3-0.7-2.8-0.9-4.2-0.7
				c-2.2,0.3-3.9,2-4,3.9c0,0.4,0,0.9,0.2,1.2c0.6,1,1.4,1.9,2.1,2.9c0.2,0.2,0.3,0.4,0.5,0.6l0,0c-1.7-0.5-3-1.5-4.1-2.8
				c-1.3-1.6-1.8-3.4-0.9-5.5c0.2-0.5,0.2-1,0.4-1.5c2-0.3,4-0.8,6-0.9c3.5-0.2,6.8,0.6,9.5,3.1C-377.1,426.8-377,426.8-376.9,426.8
				z"/>
			<path class="st8" d="M-412.6,431.1c-1.1-0.8-2.2-1.6-3.3-2.4c0,0,0-0.1,0-0.2c0.6-0.5,1.1-1.1,1.8-1.5c4.4-2.6,9.1-2.2,13.8-0.9
				c0.2,0.7,0.5,1.4,0.7,2.1c0.4,1.4,0.2,2.8-0.5,4.1c-1.1,1.7-2.7,2.7-4.6,3.5c0.5-0.6,1-1.1,1.5-1.7c0.3-0.4,0.6-0.9,0.9-1.4
				c0.3-0.5,0.4-1.1,0.2-1.6c0-1.3-0.8-2.2-1.8-2.9c-2-1.4-5.3-1.3-7.2,0.3C-412,429.1-412.5,430-412.6,431.1z"/>
			<path class="st9" d="M-376.9,426.8c-0.1,0-0.2,0-0.2,0c-2.7-2.5-6-3.3-9.5-3.1c-2,0.1-4,0.6-6,0.9c0.1-0.4,0-1,0.3-1.3
				c0.7-0.7,1.5-1.3,2.3-1.7c2.3-1.1,4.7-1.3,7.2-1c2.6,0.3,4.3,2.1,5.4,4.4C-377.3,425.5-377.1,426.2-376.9,426.8z"/>
			<path class="st9" d="M-400.3,426.1c-4.7-1.3-9.4-1.7-13.8,0.9c-0.7,0.4-1.2,1-1.8,1.5c0-0.1-0.1-0.2-0.1-0.3
				c0.3-2.5,2.7-5.4,5.2-6c3.2-0.7,6.4-0.3,9.2,1.5c0.5,0.3,0.9,0.8,1.2,1.3C-400.2,425.2-400.3,425.7-400.3,426.1z"/>
			<path class="st10" d="M-400.6,442.9c0.2-0.7,0.9-1.1,1.6-0.8c0.3,0.1,0.7,0.3,0.9,0.5c0.9,0.6,1.9,0.6,2.9,0.5
				c0.3,0,0.6-0.3,0.9-0.6c0.5-0.6,1.1-1,1.9-1.2c1-0.3,1.4-0.1,1.8,0.9c1.5-0.3,1.9-3,0.5-5c1,0.3,1.8,0.8,2.4,1.4
				c1.8,1.7,2.9,3.8,3.8,6c0.2,0.4,0.3,0.9,0.4,1.4l0,0c-1.3-2.2-2.9-4.2-4.7-6.1c-0.2-0.2-0.4-0.3-0.6-0.4c0,0,0,0-0.1-0.1
				c0,0,0,0,0.1,0.1c0,0.5,0.2,1,0.1,1.6c0,1.4-1.4,2.4-2.7,2c-1-0.3-1.9-0.3-2.8,0.4c-0.9,0.8-2.1,0.6-3.1,0
				c-0.9-0.5-1.6-0.5-2.4,0.1c-0.1,0.1-0.4,0.1-0.6,0c-1-0.3-1.8-1-2-2.1c-0.1,0-0.1,0-0.2-0.1c-0.8,1.5-1.6,3-2.5,4.4
				c0.6-2.1,1.3-4.2,2.8-6C-402,441.3-402,442.5-400.6,442.9C-400.6,443-400.6,443-400.6,442.9C-400.6,443-400.6,443-400.6,442.9z"
				/>
			<path class="st11" d="M-390.8,429.6c0.1-1.9,1.8-3.6,4-3.9c1.4-0.2,2.9,0,4.2,0.7c1.3,0.7,2,1.8,2.3,3.2
				c-0.2-0.1-0.3-0.2-0.4-0.3c-1.1-1.1-2.3-2-3.8-2.4c-0.3-0.1-0.6-0.1-0.9-0.1c0.7,0.4,1.1,1,1.1,1.7c-0.1,0.6-0.3,1.2-0.6,1.6
				c-0.6,0.7-1.8,0.7-2.5,0.2c-0.8-0.5-1.1-1.5-0.8-2.4c0.1-0.2,0.2-0.3,0.2-0.5c0-0.1,0-0.1,0-0.2c0,0-0.1,0-0.1,0.1
				C-389,428-389.9,428.8-390.8,429.6z"/>
			<path class="st11" d="M-412.6,431.1c0-1.1,0.6-2,1.4-2.7c1.9-1.6,5.2-1.7,7.2-0.3c1,0.7,1.7,1.6,1.8,2.9
				c-0.8-0.7-1.7-1.5-2.5-2.2c-0.2-0.2-0.5-0.3-1-0.5c0.7,1.2,0.8,2.2-0.2,3.1c-0.6,0.6-1.6,0.6-2.3,0.2c-0.9-0.5-1.1-1.3-0.7-3
				C-410.4,429-411.5,430-412.6,431.1z"/>
			<path class="st12" d="M-415,421c0.9-1.7,2.4-2.7,4-3.4c1.9-0.8,3.9-1.2,6-1.2c2.4,0.1,4.7,0.3,7.1,0.2c1.2,0,2.5-0.4,3.7-0.8
				c2.5-0.8,5.1-1.5,7.8-1.5c2.1,0,4.1,0.6,5.8,1.9c0.2,0.2,0.4,0.4,0.6,0.7l0,0c-0.6-0.2-1.3-0.5-1.9-0.7c-3.6-1.5-7.3-1.5-11-0.2
				c-2.5,0.9-5.1,1.5-7.7,1.3c-1.9-0.1-3.8-0.2-5.7-0.3c-3.1-0.1-5.8,1.1-8,3.3C-414.5,420.7-414.7,420.8-415,421
				C-415,421-415,421-415,421z"/>
			<path class="st13" d="M-398.5,456.4c3.3-1.2,6.6-1.4,10-0.7C-390.5,458.7-394.8,459.7-398.5,456.4z"/>
			<path class="st14" d="M-385.7,450.9c-0.1,0.7-0.4,1-1,1c-1.3,0-2.5-0.2-3.8-0.1c-1.1,0.1-2.2,0.4-3.2,0.6
				c-0.6,0.1-1.3,0.2-1.9,0.3c-1.6,0.2-3.1,0.3-4.7,0.5c-0.6,0.1-1.2,0.1-1.8,0.2c-0.1,0-0.3-0.1-0.5-0.3c0.2-0.1,0.5-0.3,0.7-0.2
				c1.1,0.1,1.8-0.5,2.6-1c0.3-0.2,0.6-0.4,1-0.6c0.7-0.4,1.4-0.6,2.2-0.2c0.9,0.4,1.8,0.5,2.7-0.2c1.2-1,2.5-0.7,3.9-0.4
				C-388.4,450.7-387.2,451.3-385.7,450.9z"/>
			<path class="st15" d="M-415.2,417.6c0.9-0.7,1.8-1.4,2.7-2c2.2-1.2,4.5-2,7-2.1c1.6-0.1,3.4,0,4.4,0.5c-0.4,0-0.7,0-1,0
				c-3.5-0.4-6.8,0.6-10,2C-413,416.5-414.1,417-415.2,417.6L-415.2,417.6z"/>
			<path class="st15" d="M-380,414.4c-4-3-8.4-3.5-13.2-2.4C-390.1,409.7-381.3,411.3-380,414.4z"/>
			<path class="st10" d="M-384.3,452.4c0.9,2.1,1.8,4.3,2.7,6.4C-383,458.7-384.6,455.9-384.3,452.4z"/>
			<path class="st16" d="M-386.7,433.7c0.9,0.3,1.7,0.5,2.6,0.7c2.1,0.5,4.2,0.9,6,1.3c-1.9,0.4-4.1,0-6.1-0.7
				C-385.1,434.7-385.9,434.2-386.7,433.7C-386.7,433.7-386.7,433.7-386.7,433.7z"/>
			<path class="st15" d="M-415,437.2c3-0.3,6-0.9,8.8-2C-408.8,437.1-411.8,437.5-415,437.2z"/>
			<path class="st14" d="M-394.6,447.4c0.3,0.5,0.6,1,0.8,1.5c0.2,0.6-0.2,1.3-0.8,1.5c-0.4,0.1-1.1-0.6-1-1.2
				c0.1-0.6,0.4-1.2,0.6-1.8C-394.8,447.4-394.7,447.4-394.6,447.4z"/>
			<path class="st17" d="M-404.3,453.6c0.9,2.4,0.8,4.6-0.3,6.9C-404.4,458.1-404.3,455.9-404.3,453.6z"/>
			<path class="st12" d="M-415,421c0,0.1-0.1,0.3-0.1,0.4c0,0-0.1-0.1-0.1-0.1C-415.2,421.2-415.1,421.1-415,421
				C-415,421-415,421-415,421z"/>
			<path class="st17" d="M-404.7,460.7C-404.7,460.7-404.7,460.7-404.7,460.7C-404.7,460.7-404.7,460.7-404.7,460.7
				C-404.7,460.6-404.7,460.6-404.7,460.7C-404.7,460.6-404.7,460.6-404.7,460.7z"/>
			<path class="st10" d="M-383.6,446.1c0,0.1,0.1,0.1,0.1,0.2C-383.5,446.2-383.5,446.2-383.6,446.1
				C-383.6,446.1-383.6,446.1-383.6,446.1z"/>
			<path class="st15" d="M-393.5,412C-393.5,412-393.5,412-393.5,412C-393.5,412-393.5,412-393.5,412
				C-393.5,412-393.5,412-393.5,412C-393.5,412-393.5,412-393.5,412z"/>
			<path class="st16" d="M-386.7,433.7c-0.1,0-0.1,0-0.2-0.1c0,0,0,0,0-0.1C-386.8,433.6-386.8,433.7-386.7,433.7
				C-386.7,433.7-386.7,433.7-386.7,433.7z"/>
			<path class="st15" d="M-415.2,417.6c-0.1,0-0.1,0.1-0.2,0.1c0,0,0,0,0-0.1C-415.3,417.6-415.2,417.6-415.2,417.6
				C-415.2,417.6-415.2,417.6-415.2,417.6z"/>
			<path class="st8" d="M-388,434.3C-388,434.3-388,434.3-388,434.3C-388,434.3-388,434.3-388,434.3C-388,434.3-388,434.3-388,434.3
				z"/>
			<path class="st15" d="M-379.4,414.8C-379.4,414.8-379.4,414.8-379.4,414.8C-379.4,414.8-379.4,414.8-379.4,414.8
				C-379.4,414.8-379.4,414.8-379.4,414.8C-379.4,414.8-379.4,414.8-379.4,414.8z"/>
			<path class="st15" d="M-379.2,415c0,0-0.1-0.1-0.1-0.1c0,0,0,0,0,0C-379.3,414.9-379.3,414.9-379.2,415L-379.2,415z"/>
			<path class="st15" d="M-379.2,415C-379.2,415-379.2,415-379.2,415C-379.2,415-379.2,415-379.2,415
				C-379.2,415-379.2,415-379.2,415C-379.2,415-379.2,415-379.2,415z"/>
			<path class="st12" d="M-380,417C-379.9,417-379.9,417-380,417C-379.9,417-380,417-380,417C-380,417-380,417-380,417z"/>
			<path class="st7" d="M-388.9,439.6C-388.9,439.6-389,439.6-388.9,439.6C-388.9,439.6-388.9,439.6-388.9,439.6
				C-388.9,439.6-388.9,439.6-388.9,439.6z"/>
			<path class="st7" d="M-400.6,442.9C-400.6,443-400.6,443-400.6,442.9C-400.6,443-400.6,443-400.6,442.9
				C-400.6,442.9-400.6,442.9-400.6,442.9z"/>
			<path class="st7" d="M-388.1,427.2c0,0,0.1,0,0.1-0.1c0,0.1,0,0.1,0,0.2C-388,427.3-388,427.2-388.1,427.2z"/>
		</g>
	</g>
	<g>
		<path class="st0" d="M-416.7,484.7c0,0.2,0,0.4,0.1,0.6c0,0.2,0.1,0.3,0.2,0.5c0.1,0.1,0.2,0.2,0.4,0.3s0.4,0.1,0.6,0.1
			c0.3,0,0.6-0.1,0.8-0.3c0.2-0.2,0.4-0.5,0.4-0.9c0-0.2,0-0.4-0.1-0.6c-0.1-0.2-0.2-0.3-0.3-0.4c-0.1-0.1-0.3-0.2-0.5-0.3
			c-0.2-0.1-0.5-0.2-0.8-0.3c-0.4-0.1-0.8-0.3-1.1-0.5c-0.3-0.2-0.6-0.4-0.8-0.6c-0.2-0.2-0.4-0.5-0.5-0.8c-0.1-0.3-0.1-0.7-0.1-1
			c0-1,0.3-1.7,0.8-2.1c0.5-0.5,1.3-0.7,2.2-0.7c0.4,0,0.8,0,1.2,0.1c0.4,0.1,0.7,0.2,0.9,0.5c0.3,0.2,0.5,0.5,0.6,0.8
			c0.1,0.3,0.2,0.7,0.2,1.2v0.3h-1.9c0-0.5-0.1-0.8-0.2-1.1c-0.2-0.2-0.4-0.4-0.8-0.4c-0.2,0-0.4,0-0.5,0.1s-0.3,0.1-0.3,0.3
			c-0.1,0.1-0.1,0.2-0.2,0.4c0,0.1,0,0.3,0,0.4c0,0.3,0.1,0.5,0.2,0.8c0.1,0.3,0.4,0.4,0.8,0.6l1.5,0.6c0.4,0.2,0.7,0.3,0.9,0.5
			c0.2,0.2,0.4,0.4,0.6,0.6c0.1,0.2,0.2,0.4,0.3,0.7c0.1,0.2,0.1,0.5,0.1,0.8c0,1-0.3,1.8-0.9,2.2c-0.6,0.5-1.4,0.7-2.5,0.7
			s-1.9-0.2-2.4-0.7s-0.7-1.2-0.7-2.1v-0.4h2v0.1H-416.7z"/>
		<path class="st0" d="M-411.3,482.2c0-0.4,0.1-0.8,0.2-1.1c0.1-0.3,0.3-0.5,0.5-0.7c0.2-0.2,0.5-0.3,0.8-0.4c0.3-0.1,0.6-0.1,1-0.1
			c0.6,0,1,0.1,1.4,0.2c0.3,0.1,0.6,0.3,0.8,0.5c0.2,0.2,0.3,0.4,0.4,0.7c0.1,0.3,0.1,0.6,0.1,0.9v3.8c0,0.3,0,0.6,0,0.8
			c0,0.2,0.1,0.4,0.2,0.6h-1.8c-0.1-0.1-0.1-0.2-0.1-0.4c0-0.1-0.1-0.3-0.1-0.4l0,0c-0.2,0.4-0.5,0.6-0.8,0.7
			c-0.3,0.1-0.7,0.2-1.1,0.2c-0.3,0-0.6-0.1-0.8-0.2c-0.2-0.1-0.4-0.3-0.5-0.5c-0.1-0.2-0.2-0.4-0.3-0.7c-0.1-0.2-0.1-0.5-0.1-0.7
			c0-0.3,0-0.6,0.1-0.9c0.1-0.2,0.2-0.5,0.3-0.6c0.1-0.2,0.3-0.3,0.6-0.4c0.2-0.1,0.5-0.2,0.8-0.3l1.1-0.3c0.3-0.1,0.5-0.2,0.6-0.3
			c0.1-0.1,0.2-0.3,0.2-0.6c0-0.3-0.1-0.5-0.2-0.7c-0.1-0.2-0.4-0.2-0.7-0.2c-0.3,0-0.5,0.1-0.7,0.3c-0.1,0.2-0.2,0.4-0.2,0.7v0.2
			L-411.3,482.2L-411.3,482.2z M-408.3,484c-0.1,0.1-0.3,0.1-0.4,0.1c-0.4,0.1-0.7,0.2-0.8,0.4c-0.2,0.2-0.2,0.4-0.2,0.8
			c0,0.3,0.1,0.5,0.2,0.7s0.3,0.3,0.5,0.3c0.1,0,0.3,0,0.4-0.1c0.1,0,0.3-0.1,0.4-0.2c0.1-0.1,0.2-0.2,0.3-0.4
			c0.1-0.1,0.1-0.3,0.1-0.5v-1.4C-408,483.8-408.1,483.9-408.3,484z"/>
		<path class="st0" d="M-403,480.1v0.7l0,0c0.2-0.3,0.5-0.6,0.8-0.7c0.3-0.1,0.6-0.2,1.1-0.2c0.4,0,0.8,0.1,1.1,0.3
			c0.3,0.2,0.5,0.5,0.6,0.9l0,0c0.1-0.4,0.4-0.7,0.7-0.9c0.3-0.2,0.7-0.3,1.1-0.3c0.6,0,1.1,0.2,1.4,0.6c0.3,0.4,0.4,0.9,0.4,1.6
			v5.3h-1.9v-5.1c0-0.3-0.1-0.5-0.2-0.7s-0.3-0.2-0.6-0.2s-0.5,0.1-0.7,0.3c-0.2,0.2-0.3,0.5-0.3,0.9v4.8h-1.9v-5.1
			c0-0.3-0.1-0.5-0.2-0.7c-0.1-0.2-0.3-0.2-0.6-0.2c-0.3,0-0.5,0.1-0.7,0.3c-0.2,0.2-0.3,0.5-0.3,0.9v4.8h-1.9v-7.3L-403,480.1
			L-403,480.1z"/>
		<path class="st0" d="M-392.7,480.1v0.8l0,0c0.2-0.3,0.4-0.6,0.7-0.7c0.3-0.1,0.6-0.2,1-0.2c0.8,0,1.3,0.3,1.7,0.9
			c0.4,0.6,0.5,1.6,0.5,2.9c0,1.4-0.2,2.3-0.5,2.9c-0.4,0.6-0.9,0.9-1.7,0.9c-0.4,0-0.7-0.1-0.9-0.2c-0.2-0.1-0.5-0.3-0.7-0.6l0,0v3
			h-1.9v-9.6h1.8V480.1z M-392.4,485.5c0.1,0.4,0.4,0.6,0.8,0.6s0.7-0.2,0.8-0.6c0.1-0.4,0.2-1,0.2-1.8c0-0.8-0.1-1.4-0.2-1.8
			c-0.1-0.4-0.4-0.6-0.8-0.6s-0.7,0.2-0.8,0.6s-0.2,1-0.2,1.8C-392.6,484.5-392.6,485.1-392.4,485.5z"/>
		<path class="st0" d="M-387.7,482.2c0-0.4,0.1-0.8,0.2-1.1c0.1-0.3,0.3-0.5,0.5-0.7c0.2-0.2,0.5-0.3,0.8-0.4c0.3-0.1,0.6-0.1,1-0.1
			c0.6,0,1,0.1,1.4,0.2c0.3,0.1,0.6,0.3,0.8,0.5c0.2,0.2,0.3,0.4,0.4,0.7c0.1,0.3,0.1,0.6,0.1,0.9v3.8c0,0.3,0,0.6,0,0.8
			c0,0.2,0.1,0.4,0.2,0.6h-1.8c-0.1-0.1-0.1-0.2-0.1-0.4c0-0.1-0.1-0.3-0.1-0.4l0,0c-0.2,0.4-0.5,0.6-0.8,0.7
			c-0.3,0.1-0.7,0.2-1.1,0.2c-0.3,0-0.6-0.1-0.8-0.2c-0.2-0.1-0.4-0.3-0.5-0.5c-0.1-0.2-0.2-0.4-0.3-0.7c-0.1-0.2-0.1-0.5-0.1-0.7
			c0-0.3,0-0.6,0.1-0.9c0.1-0.3,0.2-0.5,0.3-0.6c0.1-0.2,0.3-0.3,0.6-0.4c0.2-0.1,0.5-0.2,0.8-0.3l1.1-0.3c0.3-0.1,0.5-0.2,0.6-0.3
			c0.1-0.1,0.2-0.3,0.2-0.6c0-0.3-0.1-0.5-0.2-0.7c-0.1-0.2-0.4-0.2-0.7-0.2c-0.3,0-0.5,0.1-0.7,0.3c-0.1,0.2-0.2,0.4-0.2,0.7v0.2
			L-387.7,482.2C-387.7,482.3-387.7,482.2-387.7,482.2z M-384.7,484c-0.1,0.1-0.3,0.1-0.4,0.1c-0.4,0.1-0.7,0.2-0.8,0.4
			c-0.2,0.2-0.2,0.4-0.2,0.8c0,0.3,0.1,0.5,0.2,0.7s0.3,0.3,0.5,0.3c0.1,0,0.3,0,0.4-0.1c0.1,0,0.3-0.1,0.4-0.2
			c0.1-0.1,0.2-0.2,0.3-0.4c0.1-0.1,0.1-0.3,0.1-0.5v-1.4C-384.4,483.8-384.6,483.9-384.7,484z"/>
		<path class="st0" d="M-381.3,482.1c0.1-0.5,0.3-0.9,0.5-1.2c0.2-0.3,0.5-0.6,0.9-0.7c0.4-0.2,0.8-0.3,1.3-0.3c0.6,0,1,0.1,1.4,0.2
			c0.4,0.2,0.7,0.4,0.9,0.7c0.2,0.3,0.4,0.7,0.5,1.2c0.1,0.5,0.1,1,0.1,1.7c0,0.6,0,1.2-0.1,1.7c-0.1,0.5-0.3,0.9-0.5,1.2
			c-0.2,0.3-0.5,0.6-0.9,0.7c-0.4,0.1-0.8,0.2-1.3,0.2c-0.6,0-1-0.1-1.4-0.2c-0.4-0.1-0.7-0.4-0.9-0.7c-0.2-0.3-0.4-0.7-0.5-1.2
			c-0.1-0.5-0.1-1-0.1-1.7C-381.4,483.1-381.4,482.6-381.3,482.1z M-379.5,484.8c0,0.3,0.1,0.6,0.1,0.8c0.1,0.2,0.2,0.4,0.3,0.5
			s0.3,0.2,0.5,0.2c0.4,0,0.6-0.2,0.8-0.6c0.1-0.4,0.2-1.1,0.2-2c0-0.9-0.1-1.6-0.2-2c-0.1-0.4-0.4-0.6-0.8-0.6
			c-0.2,0-0.4,0.1-0.5,0.2c-0.1,0.1-0.2,0.3-0.3,0.5c-0.1,0.2-0.1,0.5-0.1,0.8s0,0.7,0,1C-379.6,484.1-379.6,484.5-379.5,484.8z"/>
		<path class="st0" d="M-372.8,477.7v9.7h-1.9v-9.7H-372.8z"/>
		<path class="st0" d="M-369.5,477.6v1.6h-1.9v-1.6H-369.5z M-369.5,480.1v7.3h-1.9v-7.3H-369.5z"/>
	</g>
</g>
</svg>
