<?xml version="1.0" encoding="utf-8"?>
<!-- Generator: Adobe Illustrator 19.0.0, SVG Export Plug-In . SVG Version: 6.00 Build 0)  -->
<svg version="1.1" id="Layer_1" xmlns="http://www.w3.org/2000/svg" xmlns:xlink="http://www.w3.org/1999/xlink" x="0px" y="0px"
	 viewBox="-447 372 105 157" style="enable-background:new -447 372 105 157;" xml:space="preserve">
<style type="text/css">
	.st0{fill:#FCFCFC;}
	.st1{fill:#C4C4C4;}
	.st2{fill:#0D4B9E;}
	.st3{fill:#E8E8E8;}
	.st4{fill:#141414;}
	.st5{fill:#B71515;}
	.st6{fill:#281C11;}
	.st7{fill:#DEA795;}
	.st8{fill:#E3B5A2;}
	.st9{fill:#DEA695;}
	.st10{fill:#C78F7D;}
	.st11{fill:#C48E7C;}
	.st12{fill:#C58E7C;}
	.st13{fill:#2B1E13;}
	.st14{fill:#2B1E14;}
	.st15{fill:#C8907E;}
	.st16{fill:#251C18;}
	.st17{fill:#241B18;}
	.st18{fill:#C99280;}
	.st19{fill:#C8917F;}
</style>
<g>
	<g>
		<polygon class="st0" points="-351.4,529 -435.1,529 -442.7,378.7 -355.2,378.7 		"/>
		<polygon class="st1" points="-437,373 -355.4,373 -355,378.7 -442.7,378.7 		"/>
		<polygon class="st2" points="-358.3,496 -430.4,496 -437.5,387.6 -361.2,387.6 		"/>
		<rect x="-427.5" y="509.1" class="st3" width="67.8" height="15.7"/>
		<rect x="-416.1" y="512.6" class="st4" width="46.4" height="7.9"/>
	</g>
	<path class="st5" d="M-425.3,519.8h-10c-1.4,0-2.6-1.2-2.6-2.6V515c0-1.4,1.2-2.6,2.6-2.6h10c1.4,0,2.6,1.2,2.6,2.6v2.2
		C-422.7,518.7-423.9,519.8-425.3,519.8z"/>
	<path class="st5" d="M-352.5,519.8h-11c-1.4,0-2.5-1.1-2.5-2.5V515c0-1.4,1.1-2.5,2.5-2.5h11c1.4,0,2.5,1.1,2.5,2.5v2.3
		C-350,518.7-351.2,519.8-352.5,519.8z"/>
	<g>
		<g>
			<path class="st6" d="M-397.6,390.3c1.2,0.2,2.4,0.4,3.6,0.7c4.2,0.8,8.4,1.6,12.2,3.6c1.1,0.6,2.2,1.4,3.2,2.2
				c1.8,1.3,3.6,2.6,5.3,3.9c3.9,2.8,6.7,6.4,6.8,11.5c0.1,4.7-0.2,9.4-1.1,14.1c-0.1,0.6-0.5,1.2-0.7,1.8c-0.4,0.2-0.7,0.3-1.1,0.5
				c-1.4,0.6-2.6,1.4-3,3.1c-0.4,1.8-0.6,3.6-1,5.4c-0.3,1.4-0.6,2.8-1,4.2c0,0-0.1-0.1-0.1-0.1c0.1-1.6,0.3-3.2,0.4-4.8
				c0.1-3.3,0.2-6.5-1-9.7c-1.6-4.5-2.3-9.2-2.7-13.9c-0.2-1.8-1-2.9-2.8-3.1c-1.2-0.1-2.5,0-3.7,0.3c-3.8,0.9-7.6,1.9-11.4,2.9
				c-0.3,0.1-0.7,0.1-1,0c-4.9-1-9.8-2-14.6-3.2c-1.9-0.5-3.2,0.8-3.3,2.4c-0.1,1.2-0.3,2.3-0.6,3.4c-0.7,2.7-1.6,5.3-2.2,8
				c-1,4.3-1.1,8.7-1,13.1c0,0.9,0.1,1.9,0.1,2.9c-0.3,0-0.6,0-0.8,0c-0.2-1.3-0.3-2.5-0.5-3.8c-0.4-2.8-0.8-5.5-1.3-8.3
				c-0.3-1.6-0.5-3.2-1-4.8c-1.2-4-1.6-8-1-12.1c0.6-3.6,1.9-6.8,4.8-9.1c2.7-2.1,5.5-4.1,8.3-6c3.3-2.2,6.9-3.9,10.8-5.1
				C-398.5,390.3-398,390.3-397.6,390.3z"/>
			<path class="st7" d="M-426.6,427.6c0.8-1.6,1.5-2.2,2.7-1.9c0.7,0.1,1.4,0.5,2,0.8c0.4,0.2,0.7,0.5,1,0.8
				c0.4,2.8,0.9,5.5,1.3,8.3c0.2,1.3,0.3,2.5,0.5,3.8c0,0.2,0,0.4,0,0.7c0.2,1.8,0.3,3.7,0.5,5.5c-1.8,0.6-3.4-0.2-4-2.2
				c-0.4-1.1-0.5-2.3-0.8-3.4c-0.6-2.2-1.3-4.5-2-6.7c-0.4-1.3-0.8-2.6-1.2-3.9C-426.6,428.7-426.6,428.2-426.6,427.6z"/>
			<path class="st8" d="M-418.6,445.5c-0.2-1.8-0.3-3.7-0.5-5.5c0-0.2,0-0.4,0-0.7c0.2,0,0.5,0,0.8,0c0-1-0.1-2-0.1-2.9
				c-0.1-4.4,0.1-8.8,1-13.1c0.6-2.7,1.5-5.3,2.2-8c0.3-1.1,0.5-2.3,0.6-3.4c0.2-1.6,1.4-2.9,3.3-2.4c4.8,1.1,9.7,2.1,14.6,3.2
				c0.3,0.1,0.7,0,1,0c3.8-1,7.6-2,11.4-2.9c1.2-0.3,2.5-0.4,3.7-0.3c1.7,0.1,2.6,1.3,2.8,3.1c0.4,4.7,1.1,9.5,2.7,13.9
				c1.2,3.2,1.1,6.5,1,9.7c-0.1,1.6-0.2,3.2-0.4,4.8c0,0,0.1,0.1,0.1,0.1c0,0.3,0,0.5-0.1,0.8c-0.3,1.3-0.6,2.6-0.9,3.9
				c-0.8,2.6-1.5,5.2-2.3,7.8c-1.7,5.4-4.7,10.2-8.2,14.7c-0.7,0.9-1.6,1.8-2.2,2.8c-0.9,1.3-2.1,1.8-3.5,1.8c-2.3,0.1-4.6,0-6.8,0
				c-0.9,0-1.8,0-2.7,0c-3.8,0-6.8-1.5-8.7-5c-1.8-3.3-3.6-6.5-5.3-9.8c-1-1.9-1.9-3.8-2.5-5.8c-0.6-2-0.6-4.1-0.9-6.2
				C-418.4,446-418.5,445.7-418.6,445.5z M-390.9,445.5C-390.9,445.5-390.9,445.4-390.9,445.5C-390.9,445.4-390.9,445.4-390.9,445.5
				C-390.9,445.4-390.9,445.5-390.9,445.5c0.1,0,0.1,0.1,0.2,0.1c0,0,0,0,0-0.1C-390.7,445.5-390.8,445.5-390.9,445.5z
				 M-403.3,443.8c-1.7,0.4-4.1,3.5-4.2,5.2C-406.2,447.4-404.8,445.6-403.3,443.8C-403.3,443.8-403.3,443.8-403.3,443.8
				C-403.3,443.8-403.3,443.8-403.3,443.8C-403.3,443.8-403.3,443.8-403.3,443.8z M-402.5,435.8c-1.9,2.3-4.2,3.9-7,4.9
				c-0.5,0.2-1.1,0.4-1.7,0.6c2.6,0.3,4.9-0.6,6.6-2.2C-403.7,438.2-402.8,437.2-402.5,435.8C-402.5,435.8-402.5,435.8-402.5,435.8
				C-402.5,435.8-402.5,435.8-402.5,435.8C-402.5,435.8-402.5,435.8-402.5,435.8z M-391.7,436c0-0.1,0-0.1-0.1-0.2c0,0-0.1,0-0.1,0
				C-391.8,435.9-391.7,435.9-391.7,436c0.3,1.8,1.5,3,2.7,4.1c1.5,1.3,3.4,1.8,5.5,1.8c-0.1-0.1-0.3-0.2-0.4-0.3
				c-2.8-1-5.2-2.5-7-4.8C-391.2,436.5-391.4,436.3-391.7,436z M-406.9,431c-2.1,0.3-4.1,1-6,2.3c1.8-0.5,3.3-0.9,5-1.4
				c-0.4,1.4-0.3,2,0.4,2.5c0.6,0.4,1.3,0.4,1.8,0.1c0.9-0.6,0.9-1.5,0.5-2.6c1.1,0.4,1.9,0.7,2.8,1c0.3,0.4,0.7,0.7,0.9,1.2
				c0.4,1.1,0.8,2.3,1.2,3.6c1.2-3.3,2.2-12.5,1.6-15c-0.6,1.8-1.2,3.5-1.9,5.3c-0.3-0.1-0.6-0.2-0.9-0.3c-3.3-1.2-6.6-1.9-10.2-1.4
				c-1.1,0.2-2.1,0.5-3.2,0.7c0,0.1,0,0.1,0.1,0.2c1.5,0.1,2.9,0.2,4.4,0.3c-0.8,0.3-1.5,0.5-2.3,0.9c-1.2,0.6-2.1,2.3-1.9,3.6
				c0.2-0.3,0.4-0.6,0.6-0.9c0.6-0.9,1.4-1.7,2.4-1.9C-409.7,428.6-408.2,429.6-406.9,431z M-387,431.4c0.5-0.4,0.9-0.9,1.4-1.3
				c1.6-1,3.6-0.8,4.8,0.6c0.5,0.6,0.9,1.3,1.4,2.1c0-1.5-0.4-2.8-1.6-3.7c-0.7-0.4-1.4-0.7-2.2-1.1c1.4,0,2.8,0,4.4,0
				c-0.4-0.2-0.7-0.3-0.9-0.4c-2.5-1-5.2-1.2-7.9-0.9c-2,0.3-3.9,0.8-5.8,1.2c-0.4-1.8-0.9-3.6-1.3-5.3c-0.1,0-0.2,0-0.3,0
				c-0.1,2.5-0.3,5-0.1,7.4c0.1,2.5,0.6,4.9,0.9,7.4c0.7-1.4,1.3-2.7,1.9-4.1c0.1-0.2,0.3-0.3,0.5-0.5c0.9-0.2,1.9-0.3,2.9-0.5
				c-0.5,1.2-0.4,1.9,0.2,2.4c0.5,0.5,1.4,0.6,2,0.2c0.3-0.3,0.6-0.6,0.7-1c0.1-0.4,0-0.9-0.1-1.4c1.4,0.5,2.8,0.9,4.2,1.4
				C-383.3,432.5-385,431.8-387,431.4z M-406.5,469.8c0.2,0.3,0.4,0.6,0.6,0.7c0.9,0.5,1.8,1.1,2.8,1.3c3.8,1,7.6,0.8,11.5,0.3
				c0.5-0.1,1-0.3,1.5-0.5C-392.4,468.2-402.2,467.2-406.5,469.8z M-402.7,454.5c0,0,0,0.1,0,0.1c0.4,0,0.9-0.1,1.3,0
				c1.2,0.2,2.5,0,3.4,0.9c0.2,0.2,0.6,0.1,0.9,0.1c1,0,1.9-0.1,2.9-0.1c1.1,0.1,2.2,0.3,3.3,0.5c-0.5-0.4-1.1-0.7-1.7-1
				c-1.9-0.9-3.2-2.1-3.4-4.3c-0.1-0.9,0.5-1.6,1.4-1.4c0.7,0.1,1.3,0.1,2,0.1c0.7,0,0.6-0.4,0.3-0.8c-0.7-0.9-2.3-1.1-3.3-0.5
				c-0.4,0.2-0.8,0.5-1.2,0.7c-1.2,0.5-2.1,0.3-2.9-0.8c-0.2-0.3-0.4-0.6-0.7-0.8c-0.8-0.7-2.6-0.5-3.3,0.6c0.3,0.1,0.6,0.3,0.9,0.3
				c1.2,0,2,0.4,2.8,1.4c0.6,0.7,0.3,1.4,0.4,2.2c0.1,1-0.4,1.5-1.2,2C-401.4,453.9-402,454.2-402.7,454.5z M-409.1,457.2
				c0.2,0,0.4,0.1,0.6,0c1.2-0.2,2.3-0.4,3.4-0.6c1.9-0.2,3.8-0.2,5.5,0.8c1.2,0.7,2.4,0.8,3.6,0.7c2.7-0.3,5.3-0.1,7.7,1
				c0.2,0.1,0.5,0.1,0.7,0.2c0.1-0.1,0.2-0.2,0.2-0.2c-0.3-0.5-0.5-1.1-0.9-1.5c-0.4-0.4-0.9-0.4-1.4,0c-0.2,0.2-0.7,0.1-1.1,0
				c-0.8-0.2-1.6-0.4-2.4-0.6c-1.2-0.4-2.4-0.7-3.6,0c-0.3,0.2-0.9,0.2-1.1,0c-1.5-1.1-3.2-1.4-5-1.3c-1.1,0-2.3,0-3.4,0
				c0-0.4,0.1-0.7,0.1-1.1c-0.3,0-0.7-0.1-1,0C-408,455-409.3,456.2-409.1,457.2z M-392.8,465.4c-0.6-1.4-1.5-2.4-2.5-3.2
				c-1.3-1.1-3-0.7-4.5-0.7c-1.8,0-3.6,1.6-3.8,3.2C-400,463.8-396.5,464-392.8,465.4z M-406.1,418.9c6.9-0.6,13.8-0.4,20.6,0.9
				C-392.2,417.4-399.1,417.4-406.1,418.9z M-411,435.9c2,2.2,5.8,1.8,6.8-0.1c-1.1,0.1-2.2,0.3-3.4,0.3
				C-408.8,436.1-409.9,435.9-411,435.9z M-390.2,435.9c1.8,2.5,5.5,2.1,6.5,0.7c-0.9,0-2,0.1-3.1,0
				C-387.9,436.4-389,436.1-390.2,435.9z M-385.8,453.9c-0.6-3.1-1.9-5.8-4.5-7.8C-388.4,448.5-386.8,451-385.8,453.9z M-407,419
				C-407,419-407,419-407,419c0.1,0.1,0.2,0.1,0.4,0.1c0,0,0,0,0-0.1C-406.7,419-406.8,419-407,419z M-385,420
				C-385,420-385,420-385,420C-385,420.1-385,420-385,420C-385,420-385,420-385,420C-385,420-385,420-385,420z"/>
			<path class="st9" d="M-375.2,445.8c0.3-1.3,0.6-2.6,0.9-3.9c0.1-0.3,0.1-0.5,0.1-0.8c0.3-1.4,0.7-2.8,1-4.2
				c0.4-1.8,0.6-3.6,1-5.4c0.3-1.6,1.5-2.5,3-3.1c0.4-0.2,0.7-0.3,1.1-0.5c0.9,0.4,1.8,0.6,2.5,1.1c1.3,1,1.3,2.5,1,4
				c-0.4,2.1-1,4.1-2.5,5.6c-1.8,1.7-2,4.1-2.9,6.2c-1.2,2.7-2.8,3.1-4.9,1.1C-375,445.9-375.1,445.8-375.2,445.8z"/>
			<path class="st10" d="M-406.5,469.8c4.4-2.6,14.1-1.6,16.4,1.8c-0.5,0.2-1,0.5-1.5,0.5c-3.8,0.5-7.7,0.7-11.5-0.3
				c-1-0.3-1.9-0.9-2.8-1.3C-406.1,470.3-406.3,470-406.5,469.8z"/>
			<path class="st10" d="M-402.7,454.5c0.6-0.3,1.3-0.6,1.9-0.9c0.8-0.4,1.3-1,1.2-2c-0.1-0.7,0.1-1.4-0.4-2.2
				c-0.7-1-1.6-1.4-2.8-1.4c-0.3,0-0.6-0.2-0.9-0.3c0.7-1,2.4-1.3,3.3-0.6c0.3,0.2,0.5,0.5,0.7,0.8c0.8,1.1,1.7,1.3,2.9,0.8
				c0.4-0.2,0.8-0.5,1.2-0.7c1-0.6,2.6-0.4,3.3,0.5c0.3,0.4,0.5,0.8-0.3,0.8c-0.7,0-1.4,0-2-0.1c-0.9-0.1-1.5,0.5-1.4,1.4
				c0.2,2.2,1.5,3.5,3.4,4.3c0.6,0.3,1.2,0.6,1.7,1c-1.1-0.2-2.2-0.4-3.3-0.5c-1-0.1-1.9,0-2.9,0.1c-0.3,0-0.7,0.1-0.9-0.1
				c-1-1-2.3-0.8-3.4-0.9c-0.4-0.1-0.9,0-1.3,0C-402.7,454.6-402.7,454.6-402.7,454.5z"/>
			<path class="st11" d="M-391.7,432.9c-0.2,0.2-0.4,0.3-0.5,0.5c-0.6,1.3-1.1,2.7-1.9,4.1c-0.3-2.5-0.8-4.9-0.9-7.4
				c-0.1-2.5,0.1-5,0.1-7.4c0.1,0,0.2,0,0.3,0c0.4,1.8,0.9,3.6,1.3,5.3c-0.5-0.4-1-0.7-1.4-1.1c-0.5,2,0.6,3.6,1.3,5.3
				c0.8-0.7,1.4-1.4,2.2-1.9c2.4-1.6,5.2-2.1,8.1-2.2c0.7,0.3,1.5,0.6,2.2,1.1c1.2,0.8,1.6,2.1,1.6,3.7c-0.5-0.7-0.9-1.5-1.4-2.1
				c-1.2-1.3-3.3-1.6-4.8-0.6c-0.5,0.3-0.9,0.8-1.4,1.3C-388.7,431.3-390.4,431.5-391.7,432.9z"/>
			<path class="st12" d="M-400.7,428c0.6-1.8,1.2-3.5,1.9-5.3c0.6,2.6-0.4,11.8-1.6,15c-0.4-1.3-0.7-2.5-1.2-3.6
				c-0.2-0.4-0.6-0.8-0.9-1.2c-0.1-0.2-0.2-0.5-0.4-0.7c-1.1-1-2.5-1.3-4-1.3c-1.2-1.5-2.7-2.4-4.7-1.9c-1.1,0.3-1.9,1-2.4,1.9
				c-0.2,0.3-0.4,0.6-0.6,0.9c-0.2-1.3,0.7-3,1.9-3.6c0.7-0.4,1.5-0.6,2.3-0.9c3.8,0.5,7.3,1.4,9.7,4.9c0.8-1.8,2.1-3.3,1.6-5.6
				c-0.3,0.4-0.5,0.7-0.7,0.9C-400.1,427.9-400.5,427.9-400.7,428z"/>
			<path class="st13" d="M-383,428.1c-2.9,0.1-5.6,0.6-8.1,2.2c-0.8,0.5-1.4,1.2-2.2,1.9c-0.7-1.7-1.8-3.3-1.3-5.3
				c0.5,0.3,0.9,0.7,1.4,1.1c1.9-0.4,3.8-0.9,5.8-1.2c2.7-0.4,5.3-0.1,7.9,0.9c0.3,0.1,0.5,0.2,0.9,0.4
				C-380.2,428.1-381.6,428.1-383,428.1z"/>
			<path class="st14" d="M-400.7,428c0.3-0.1,0.6-0.2,0.8-0.3c0.3-0.2,0.4-0.5,0.7-0.9c0.5,2.3-0.8,3.8-1.6,5.6
				c-2.4-3.5-6-4.4-9.7-4.9c-1.5-0.1-2.9-0.2-4.4-0.3c0-0.1,0-0.1-0.1-0.2c1.1-0.2,2.1-0.6,3.2-0.7c3.5-0.5,6.9,0.2,10.2,1.4
				C-401.3,427.8-401,427.9-400.7,428z"/>
			<path class="st15" d="M-409.1,457.2c-0.1-1.1,1.1-2.3,2-2.5c0.3-0.1,0.6,0,1,0c0,0.3-0.1,0.6-0.1,1.1c1.1,0,2.2,0,3.4,0
				c1.8,0,3.5,0.2,5,1.3c0.2,0.2,0.9,0.2,1.1,0c1.2-0.7,2.4-0.4,3.6,0c0.8,0.2,1.6,0.5,2.4,0.6c0.4,0.1,0.9,0.2,1.1,0
				c0.5-0.5,1-0.5,1.4,0c0.4,0.4,0.6,1,0.9,1.5c-0.1,0.1-0.2,0.2-0.2,0.2c-0.2-0.1-0.5-0.1-0.7-0.2c-2.5-1.1-5.1-1.3-7.7-1
				c-1.3,0.2-2.5,0-3.6-0.7c-1.7-1-3.6-1-5.5-0.8c-1.2,0.1-2.3,0.4-3.4,0.6C-408.7,457.3-409,457.2-409.1,457.2z"/>
			<path class="st10" d="M-392.8,465.4c-3.7-1.4-7.2-1.6-10.9-0.7c0.3-1.6,2.1-3.2,3.8-3.2c1.5,0,3.1-0.4,4.5,0.7
				C-394.3,463-393.4,463.9-392.8,465.4z"/>
			<path class="st16" d="M-406.9,431c1.5,0,2.8,0.3,4,1.3c0.2,0.2,0.3,0.5,0.4,0.7c-0.9-0.3-1.7-0.6-2.8-1c0.4,1.2,0.4,2-0.5,2.6
				c-0.6,0.4-1.3,0.4-1.8-0.1c-0.7-0.5-0.8-1.1-0.4-2.5c-1.7,0.5-3.2,0.9-5,1.4C-411,432.1-409.1,431.3-406.9,431z"/>
			<path class="st17" d="M-391.7,432.9c1.3-1.4,3-1.6,4.7-1.5c1.9,0.4,3.7,1.1,5.2,2.4c-1.4-0.5-2.8-0.9-4.2-1.4
				c0,0.6,0.2,1,0.1,1.4c-0.1,0.4-0.4,0.8-0.7,1c-0.6,0.4-1.4,0.3-2-0.2c-0.6-0.5-0.7-1.3-0.2-2.4
				C-389.8,432.5-390.7,432.7-391.7,432.9z"/>
			<path class="st18" d="M-406.1,418.9c6.9-1.5,13.8-1.5,20.6,0.9C-392.3,418.5-399.2,418.3-406.1,418.9z"/>
			<path class="st15" d="M-391.7,436c0.3,0.3,0.5,0.5,0.7,0.8c1.8,2.3,4.3,3.8,7,4.8c0.2,0.1,0.3,0.1,0.4,0.3
				c-2-0.1-3.9-0.5-5.5-1.8C-390.2,439-391.4,437.8-391.7,436L-391.7,436z"/>
			<path class="st15" d="M-402.5,435.8c-0.3,1.4-1.2,2.4-2.1,3.3c-1.7,1.6-4,2.5-6.6,2.2c0.7-0.2,1.2-0.4,1.7-0.6
				C-406.7,439.7-404.4,438.1-402.5,435.8L-402.5,435.8z"/>
			<path class="st19" d="M-411,435.9c1,0.1,2.2,0.3,3.4,0.3c1.1,0,2.3-0.2,3.4-0.3C-405.1,437.7-409,438-411,435.9z"/>
			<path class="st15" d="M-390.2,435.9c1.2,0.2,2.3,0.5,3.4,0.7c1.1,0.1,2.2,0,3.1,0C-384.7,437.9-388.4,438.3-390.2,435.9z"/>
			<path class="st18" d="M-385.8,453.9c-1-2.9-2.6-5.4-4.5-7.8C-387.7,448.1-386.4,450.8-385.8,453.9z"/>
			<path class="st19" d="M-403.3,443.8c-1.4,1.8-2.9,3.6-4.2,5.2C-407.4,447.3-405.1,444.2-403.3,443.8
				C-403.3,443.8-403.3,443.8-403.3,443.8z"/>
			<path class="st18" d="M-407,419c0.1,0,0.2,0,0.4,0c0,0,0,0,0,0.1C-406.7,419.1-406.8,419.1-407,419C-407,419-407,419-407,419z"/>
			<path class="st18" d="M-390.9,445.5c0.1,0,0.1,0,0.2,0.1c0,0,0,0,0,0.1C-390.8,445.6-390.8,445.5-390.9,445.5L-390.9,445.5z"/>
			<path class="st15" d="M-391.7,436c0-0.1-0.1-0.1-0.1-0.2c0,0,0,0,0.1,0C-391.7,435.8-391.7,435.9-391.7,436
				C-391.7,436-391.7,436-391.7,436z"/>
			<path class="st18" d="M-385,420C-385,420-385,420-385,420C-385,420-385,420-385,420C-385,420-385,420.1-385,420
				C-385,420-385,420-385,420z"/>
			<path class="st19" d="M-403.3,443.8C-403.3,443.8-403.3,443.8-403.3,443.8C-403.3,443.8-403.3,443.8-403.3,443.8
				C-403.3,443.8-403.3,443.8-403.3,443.8C-403.3,443.8-403.3,443.8-403.3,443.8z"/>
			<path class="st18" d="M-390.9,445.5C-390.9,445.5-390.9,445.4-390.9,445.5C-390.9,445.4-390.9,445.4-390.9,445.5
				C-390.9,445.4-390.9,445.5-390.9,445.5C-390.9,445.5-390.9,445.5-390.9,445.5z"/>
			<path class="st15" d="M-402.5,435.8C-402.5,435.8-402.5,435.8-402.5,435.8C-402.5,435.8-402.5,435.8-402.5,435.8
				C-402.5,435.8-402.5,435.8-402.5,435.8C-402.5,435.8-402.5,435.8-402.5,435.8z"/>
		</g>
	</g>
	<g>
		<path class="st0" d="M-412.7,481.1c-0.2-0.3-0.5-0.5-1-0.5c-0.3,0-0.5,0.1-0.6,0.2c-0.2,0.1-0.3,0.4-0.4,0.7
			c-0.1,0.3-0.2,0.7-0.2,1.2s-0.1,1.1-0.1,1.8c0,0.8,0,1.4,0.1,1.9s0.1,0.8,0.2,1.1c0.1,0.3,0.2,0.4,0.4,0.5
			c0.2,0.1,0.4,0.1,0.6,0.1c0.2,0,0.3,0,0.5-0.1c0.2-0.1,0.3-0.2,0.4-0.4c0.1-0.2,0.2-0.4,0.3-0.8c0.1-0.3,0.1-0.8,0.1-1.3h2.1
			c0,0.6,0,1.1-0.1,1.6s-0.2,0.9-0.5,1.3c-0.2,0.4-0.6,0.7-1,0.9s-1,0.3-1.6,0.3c-0.8,0-1.4-0.1-1.8-0.4c-0.5-0.2-0.8-0.6-1-1.1
			c-0.2-0.5-0.4-1-0.5-1.7c-0.1-0.6-0.1-1.4-0.1-2.1c0-0.8,0-1.5,0.1-2.1c0.1-0.7,0.2-1.2,0.5-1.7c0.2-0.5,0.6-0.8,1-1.1
			c0.5-0.3,1.1-0.4,1.8-0.4s1.3,0.1,1.7,0.4c0.4,0.2,0.7,0.5,0.9,0.9c0.2,0.4,0.3,0.8,0.4,1.2s0.1,0.8,0.1,1.2h-2.1
			C-412.4,482-412.5,481.4-412.7,481.1z"/>
		<path class="st0" d="M-409.2,484c0-0.4,0.1-0.8,0.2-1.1c0.1-0.3,0.3-0.5,0.6-0.7c0.2-0.2,0.5-0.3,0.9-0.4c0.3-0.1,0.7-0.1,1-0.1
			c0.6,0,1.1,0.1,1.4,0.2c0.4,0.1,0.6,0.3,0.8,0.5c0.2,0.2,0.3,0.5,0.4,0.7c0.1,0.3,0.1,0.6,0.1,0.9v4c0,0.4,0,0.6,0.1,0.8
			c0,0.2,0.1,0.4,0.2,0.6h-1.9c-0.1-0.1-0.1-0.3-0.1-0.4s-0.1-0.3-0.1-0.4l0,0c-0.2,0.4-0.5,0.7-0.8,0.8c-0.3,0.1-0.7,0.2-1.2,0.2
			c-0.3,0-0.6-0.1-0.9-0.2c-0.2-0.1-0.4-0.3-0.6-0.5c-0.1-0.2-0.2-0.4-0.3-0.7c-0.1-0.3-0.1-0.5-0.1-0.8c0-0.4,0-0.7,0.1-0.9
			c0.1-0.3,0.2-0.5,0.3-0.7c0.2-0.2,0.4-0.3,0.6-0.5c0.2-0.1,0.5-0.2,0.9-0.3l1.1-0.3c0.3-0.1,0.5-0.2,0.6-0.3s0.2-0.3,0.2-0.6
			s-0.1-0.5-0.2-0.7c-0.1-0.2-0.4-0.2-0.7-0.2c-0.3,0-0.5,0.1-0.7,0.3c-0.2,0.2-0.2,0.4-0.2,0.7v0.2h-1.8L-409.2,484L-409.2,484z
			 M-406,485.9c-0.2,0.1-0.3,0.1-0.4,0.1c-0.4,0.1-0.7,0.2-0.9,0.4c-0.2,0.2-0.3,0.5-0.3,0.8c0,0.3,0.1,0.5,0.2,0.8
			c0.1,0.2,0.3,0.3,0.6,0.3c0.1,0,0.3,0,0.4-0.1c0.1,0,0.3-0.1,0.4-0.2c0.1-0.1,0.2-0.2,0.3-0.4c0.1-0.2,0.1-0.3,0.1-0.5v-1.5
			C-405.7,485.7-405.8,485.8-406,485.9z"/>
		<path class="st0" d="M-400.2,479.2v1.7h-2v-1.7H-400.2z M-400.2,481.8v7.7h-2v-7.7H-400.2z"/>
		<path class="st0" d="M-393.1,481.8l-2,3.7l2.1,4h-2.1l-1.1-2.5l-1.1,2.5h-2.1l2.1-4l-2-3.7h2.1l1.1,2.3l1.1-2.3H-393.1z"/>
		<path class="st0" d="M-390.2,479.2v1.7h-2v-1.7H-390.2z M-390.2,481.8v7.7h-2v-7.7H-390.2z"/>
		<path class="st0" d="M-387,481.8v0.9l0,0c0.2-0.4,0.5-0.7,0.8-0.8c0.3-0.1,0.7-0.3,1.1-0.3c0.6,0,1.1,0.2,1.4,0.5
			c0.3,0.3,0.5,0.9,0.5,1.7v5.7h-2v-5.3c0-0.4-0.1-0.7-0.2-0.8c-0.1-0.2-0.3-0.2-0.6-0.2c-0.7,0-1,0.4-1,1.3v5.1h-2v-7.7h2V481.8z"
			/>
		<path class="st0" d="M-379.7,479.3v3.3l0,0c0.4-0.7,1-1,1.9-1c0.6,0,1.1,0.2,1.4,0.5s0.5,0.9,0.5,1.7v5.7h-2v-5.3
			c0-0.4-0.1-0.7-0.2-0.8c-0.1-0.2-0.3-0.2-0.6-0.2c-0.7,0-1,0.4-1,1.3v5.1h-2v-10.2h2V479.3z"/>
		<path class="st0" d="M-374.6,484c0-0.4,0.1-0.8,0.2-1.1c0.1-0.3,0.3-0.5,0.6-0.7c0.2-0.2,0.5-0.3,0.9-0.4c0.3-0.1,0.7-0.1,1-0.1
			c0.6,0,1.1,0.1,1.4,0.2c0.4,0.1,0.6,0.3,0.8,0.5c0.2,0.2,0.3,0.5,0.4,0.7c0.1,0.3,0.1,0.6,0.1,0.9v4c0,0.4,0,0.6,0.1,0.8
			c0,0.2,0.1,0.4,0.2,0.6h-1.9c-0.1-0.1-0.1-0.3-0.1-0.4s-0.1-0.3-0.1-0.4l0,0c-0.2,0.4-0.5,0.7-0.8,0.8c-0.3,0.1-0.7,0.2-1.2,0.2
			c-0.3,0-0.6-0.1-0.9-0.2c-0.2-0.1-0.4-0.3-0.6-0.5c-0.1-0.2-0.2-0.4-0.3-0.7c-0.1-0.3-0.1-0.5-0.1-0.8c0-0.4,0-0.7,0.1-0.9
			c0.1-0.3,0.2-0.5,0.3-0.7c0.2-0.2,0.4-0.3,0.6-0.5c0.2-0.1,0.5-0.2,0.9-0.3l1.1-0.3c0.3-0.1,0.5-0.2,0.6-0.3
			c0.1-0.1,0.2-0.3,0.2-0.6s-0.1-0.5-0.2-0.7c-0.1-0.2-0.4-0.2-0.7-0.2s-0.5,0.1-0.7,0.3c-0.2,0.2-0.2,0.4-0.2,0.7v0.2h-1.8V484
			H-374.6z M-371.4,485.9c-0.2,0.1-0.3,0.1-0.4,0.1c-0.4,0.1-0.7,0.2-0.9,0.4c-0.2,0.2-0.3,0.5-0.3,0.8c0,0.3,0.1,0.5,0.2,0.8
			c0.1,0.2,0.3,0.3,0.6,0.3c0.1,0,0.3,0,0.4-0.1c0.1,0,0.3-0.1,0.4-0.2c0.1-0.1,0.2-0.2,0.3-0.4c0.1-0.2,0.1-0.3,0.1-0.5v-1.5
			C-371.1,485.7-371.3,485.8-371.4,485.9z"/>
	</g>
</g>
</svg>
