<?xml version="1.0" encoding="utf-8"?>
<!-- Generator: Adobe Illustrator 19.1.0, SVG Export Plug-In . SVG Version: 6.00 Build 0)  -->
<!DOCTYPE svg PUBLIC "-//W3C//DTD SVG 1.1//EN" "http://www.w3.org/Graphics/SVG/1.1/DTD/svg11.dtd">
<svg version="1.1" id="Layer_1" xmlns="http://www.w3.org/2000/svg" xmlns:xlink="http://www.w3.org/1999/xlink" x="0px" y="0px"
	 viewBox="0 0 105 157" style="enable-background:new 0 0 105 157;" xml:space="preserve">
<style type="text/css">
	.st0{fill:#FCFCFC;}
	.st1{fill:#C4C4C4;}
	.st2{fill:#E8E8E8;}
	.st3{fill:#141414;}
	.st4{fill:#B71515;}
</style>
<g>
	<polygon class="st0" points="97.9,0 10.5,0 1.5,152.4 94.1,152.4 	"/>
	<polygon class="st1" points="94.2,156 4.2,156 1.5,152.4 94.2,152.4 	"/>
	<rect x="17.2" y="4.9" class="st2" width="71.2" height="16.2"/>
	<rect x="29.2" y="9.3" class="st3" width="48.7" height="8.1"/>
	<path class="st4" d="M18.3,20H8.4c-1.6,0-3-1.3-3-3V15c0-1.6,1.3-3,3-3h9.9c1.6,0,3,1.3,3,3v2.1C21.3,18.7,19.9,20,18.3,20z"/>
	<path class="st4" d="M96.2,20l-11.7,0c-1.4,0-2.5-1.1-2.5-2.5v-3c0-1.4,1.1-2.5,2.5-2.5h11.7c1.4,0,2.5,1.1,2.5,2.5v3
		C98.7,18.9,97.5,20,96.2,20z"/>
</g>
</svg>
