<?xml version="1.0" encoding="utf-8"?>
<!-- Generator: Adobe Illustrator 19.1.0, SVG Export Plug-In . SVG Version: 6.00 Build 0)  -->
<!DOCTYPE svg PUBLIC "-//W3C//DTD SVG 1.1//EN" "http://www.w3.org/Graphics/SVG/1.1/DTD/svg11.dtd">
<svg version="1.1" id="Layer_1" xmlns="http://www.w3.org/2000/svg" xmlns:xlink="http://www.w3.org/1999/xlink" x="0px" y="0px"
	 viewBox="0 0 105 157" style="enable-background:new 0 0 105 157;" xml:space="preserve">
<style type="text/css">
	.st0{fill:#FCFCFC;}
	.st1{fill:#C4C4C4;}
	.st2{fill:#E8E8E8;}
	.st3{fill:#141414;}
	.st4{fill:#B71515;}
</style>
<g>
	<polygon class="st0" points="96.2,0 11.2,0 8.3,150.9 96.2,150.9 	"/>
	<polygon class="st1" points="10.1,156.2 93.8,156.7 96.3,150.9 8.2,150.9 	"/>
	<rect x="19.8" y="4.6" class="st2" width="68.1" height="15.8"/>
	<rect x="29.8" y="8.9" class="st3" width="46.5" height="7.9"/>
	<path class="st4" d="M94.6,17.6H83.6c-1.4,0-2.5-1.1-2.5-2.5v-2.4c0-1.4,1.1-2.5,2.5-2.5h11.1c1.4,0,2.5,1.1,2.5,2.5v2.4
		C97.1,16.4,96,17.6,94.6,17.6z"/>
	<path class="st4" d="M21.9,17.2H10.6c-1.4,0-2.5-1.1-2.5-2.5v-2.4c0-1.4,1.1-2.5,2.5-2.5h11.2c1.4,0,2.5,1.1,2.5,2.5v2.4
		C24.4,16,23.2,17.2,21.9,17.2z"/>
</g>
</svg>
