<?xml version="1.0" encoding="utf-8"?>
<!-- Generator: Adobe Illustrator 19.1.0, SVG Export Plug-In . SVG Version: 6.00 Build 0)  -->
<!DOCTYPE svg PUBLIC "-//W3C//DTD SVG 1.1//EN" "http://www.w3.org/Graphics/SVG/1.1/DTD/svg11.dtd">
<svg version="1.1" id="Layer_1" xmlns="http://www.w3.org/2000/svg" xmlns:xlink="http://www.w3.org/1999/xlink" x="0px" y="0px"
	 viewBox="0 0 105 157" style="enable-background:new 0 0 105 157;" xml:space="preserve">
<style type="text/css">
	.st0{fill:#C4C4C4;}
	.st1{fill:#FCFCFC;}
	.st2{fill:#E8E8E8;}
	.st3{fill:#141414;}
	.st4{fill:#B71515;}
</style>
<g>
	<polygon class="st0" points="101,146.6 6.8,146.6 9.1,155.7 97.4,155.7 	"/>
	<polygon class="st1" points="93.6,0 4.3,0 6.8,146.6 101,146.6 	"/>
	<rect x="10.2" y="5.6" class="st2" width="75.3" height="17.3"/>
	<rect x="22.7" y="10.3" class="st3" width="51.5" height="8.7"/>
	<path class="st4" d="M93.7,19H82.1c-1.4,0-2.5-1.1-2.5-2.5v-2.9c0-1.4,1.1-2.5,2.5-2.5h11.6c1.4,0,2.5,1.1,2.5,2.5v2.9
		C96.2,17.8,95.1,19,93.7,19z"/>
	<path class="st4" d="M15.2,18.5H2.5C1.1,18.5,0,17.4,0,16l0-2.9c0-1.4,1.1-2.5,2.5-2.5h12.7c1.4,0,2.5,1.1,2.5,2.5V16
		C17.7,17.4,16.6,18.5,15.2,18.5z"/>
</g>
</svg>
