<?xml version="1.0" encoding="utf-8"?>
<!-- Generator: Adobe Illustrator 19.0.0, SVG Export Plug-In . SVG Version: 6.00 Build 0)  -->
<svg version="1.1" id="Layer_1" xmlns="http://www.w3.org/2000/svg" xmlns:xlink="http://www.w3.org/1999/xlink" x="0px" y="0px"
	 viewBox="-447 372 105 157" style="enable-background:new -447 372 105 157;" xml:space="preserve">
<style type="text/css">
	.st0{fill:#FCFCFC;}
	.st1{fill:#C4C4C4;}
	.st2{fill:#0D4B9E;}
	.st3{fill:#E8E8E8;}
	.st4{fill:#141414;}
	.st5{fill:#B71515;}
	.st6{fill:#372714;}
	.st7{fill:#C1C1C5;}
	.st8{fill:#E3B5A2;}
	.st9{fill:#2B2013;}
	.st10{fill:#DEA795;}
	.st11{fill:#241B18;}
	.st12{fill:#251D1A;}
	.st13{fill:#221916;}
	.st14{fill:#C48D7C;}
	.st15{fill:#C58D7C;}
	.st16{fill:#2D2115;}
	.st17{fill:#2C2013;}
	.st18{fill:#241B17;}
	.st19{fill:#C8917F;}
	.st20{fill:#C8907E;}
	.st21{fill:#C99280;}
	.st22{fill:#CA9482;}
	.st23{fill:#CB9482;}
	.st24{fill:#CA9381;}
</style>
<g>
	<g>
		<polygon class="st0" points="-351.6,529 -436.1,529 -434.7,377.3 -346.3,377.3 		"/>
		<polygon class="st1" points="-433,372 -351.9,372 -346.3,377.3 -434.9,377.3 		"/>
		<polygon class="st2" points="-355,495.7 -430.1,495.7 -430.1,386.2 -350.7,386.2 		"/>
		<rect x="-427" y="508.1" class="st3" width="68.4" height="15.9"/>
		<rect x="-415.5" y="511.7" class="st4" width="46.8" height="7.9"/>
	</g>
	<path class="st5" d="M-349.3,520.6h-10.3c-1.4,0-2.5-1.1-2.5-2.5v-2.4c0-1.4,1.1-2.5,2.5-2.5h10.3c1.4,0,2.5,1.1,2.5,2.5v2.4
		C-346.8,519.4-347.9,520.6-349.3,520.6z"/>
	<path class="st5" d="M-424.2,520.2h-11.4c-1.4,0-2.5-1.1-2.5-2.5v-2.4c0-1.4,1.1-2.5,2.5-2.5h11.3c1.4,0,2.5,1.1,2.5,2.5v2.4
		C-421.7,519-422.9,520.2-424.2,520.2z"/>
	<g>
		<g>
			<path class="st6" d="M-399.4,390.3c0.2-0.1,0.4-0.1,0.5-0.3c1.8-1.6,4-2.3,6.4-2.5c0.1,0,0.2-0.1,0.2-0.2c0.6,0,1.1,0,1.7,0
				c0.7,0.1,1.4,0.2,2.1,0.4c0.4,0.1,0.8,0.2,1.2,0.3c0,0.4-0.1,0.9-0.1,1.3c0,0-0.1,0-0.1,0c0,0,0,0.1,0,0.1c0,0,0.1-0.1,0.1-0.1
				c0.6-0.6,1.2-1.1,1.9-1.7c0.3,0.5,0.7,1,1.1,1.7c0-0.4,0.1-0.6,0.1-1c1.5,0.1,2.9,0.6,4.3,1.1c1.3,0.5,2.1,1.4,2.6,2.6
				c-0.1,0.7-0.3,1.4-0.4,2.1c-0.1,0.4-0.1,0.9-0.3,1.1c-1.2,1.4-2.5,2.7-3.8,4.1c-0.5,0.5-0.9,1.1-1.4,1.6c-1.7-0.4-2.7,0.5-3.5,2
				c-0.6-0.7-1-1.3-1.6-2c-0.4,1.1-0.8,2-1.2,3c-0.5-0.5-1-0.9-1.5-1.4c-0.5,1.3-1,2.5-1.5,3.7c-0.6-0.4-1.2-0.7-1.8-1.1
				c-0.3,0.6-0.5,1.2-0.8,1.9c-0.5-0.7-1-1.3-1.5-1.9c-0.2,0.7-0.3,1.2-0.5,2c-1.2-1.5-2.3-2.9-3.4-4.3c-0.1,0-0.1,0-0.2,0.1
				c0,1.1,0,2.1,0,3.4c-1.3-1.6-2.4-3-3.5-4.5c0.1-0.5,0.1-1.1,0.2-1.6c0.3-2.4,1.2-4.6,2.6-6.6
				C-400.8,392.2-400.1,391.3-399.4,390.3z"/>
			<path class="st7" d="M-390.9,472.8c-0.2-0.1-0.3-0.3-0.5-0.3c-3.4-0.3-6.5-1.6-8.9-4c0,0-0.1-0.1-0.1-0.1c0-0.1-0.1-0.2-0.1-0.3
				c-1.5-1.8-2.3-3.8-2.9-6c0.2,0.1,0.3,0.2,0.5,0.3c1.8,1,3.5,2,5.4,2.8c0.5,0.2,1.6,0.2,1.8-0.1c0.9-1.4,2.2-1.7,3.6-1.8
				c0.8,0.1,1.5,0.1,2.3,0.2c1.4,0.2,2.4,0.8,3.4,1.8c0.4,0.4,1.2,0.6,1.8,0.6c1.4-0.2,2.8-0.6,4.2-1c0.9-0.2,1.8-0.6,2.7-0.9
				c-0.5,1.3-1,2.5-1.5,3.8c-0.3,0.4-0.5,0.9-0.8,1.3c-1.9,2-4.2,3.1-7,3.5c-0.2,0-0.4,0.2-0.6,0.3c-0.2,0-0.5,0-0.7,0
				c-0.6,0-1.3,0-1.9,0C-390.4,472.8-390.7,472.8-390.9,472.8z"/>
			<path class="st8" d="M-377.8,463.8c-0.9,0.3-1.8,0.7-2.7,0.9c-1.4,0.4-2.8,0.8-4.2,1c-0.6,0.1-1.4-0.2-1.8-0.6
				c-1-1-2-1.6-3.4-1.8c1.9-0.5,3.5-1.6,5-3.2c-3.9,1.3-7.6,0.8-11.3-0.7c1,1.8,2.3,3,4,3.8c-1.4,0.1-2.8,0.3-3.6,1.8
				c-0.2,0.3-1.3,0.4-1.8,0.1c-1.8-0.8-3.6-1.9-5.4-2.8c-0.2-0.1-0.3-0.2-0.5-0.3c-0.1-0.1-0.3-0.3-0.4-0.4c-2-1-3.7-2.3-5.3-3.8
				c-0.1-0.1-0.4-0.2-0.6-0.2c-0.9-2-2-3.9-2.8-5.9c-0.4-0.9-0.4-2-0.6-3c0-0.2-0.1-0.5-0.2-0.7c0-0.1,0.1-0.2,0.1-0.3
				c-0.2-2.2-0.4-4.4-0.5-6.6c-0.1-2.2-0.1-4.3-0.2-6.5c0.2-2,0.5-3.9,0.7-5.9c0.2-1.6-0.1-3.3,0.8-4.8c0.6-1,0.8-2.1,0.7-3.3
				c-0.1-3.2-0.1-6.5,0.7-9.6c1-4.1,2.8-7.6,6.8-9.4c1.1,1.4,2.3,2.9,3.5,4.5c0-1.2,0-2.3,0-3.4c0.1,0,0.1,0,0.2-0.1
				c1.1,1.4,2.2,2.8,3.4,4.3c0.2-0.7,0.3-1.3,0.5-2c0.5,0.7,1,1.2,1.5,1.9c0.3-0.7,0.5-1.2,0.8-1.9c0.6,0.4,1.1,0.7,1.8,1.1
				c0.5-1.2,1-2.4,1.5-3.7c0.5,0.5,1,0.9,1.5,1.4c0.4-1,0.8-1.9,1.2-3c0.6,0.7,1.1,1.3,1.6,2c0.7-1.5,1.8-2.3,3.5-2
				c1.9,0.5,3.7,1,5.6,1.6c0.6,0.2,1.2,0.6,1.6,1c1.2,1.4,2.4,2.8,3.4,4.3c0.7,1,1.2,2.2,1.5,3.4c0.6,2.7,0.9,5.5,1.4,8.2
				c0.2,1.2,0.5,2.5,0.9,3.6c0.4,1,0.7,1.9,0.8,3c0.2,2.7,0.4,5.4,0.7,8c-0.1,4-0.2,8.1-0.3,12.1c-0.3,1.4-0.4,2.9-0.9,4.2
				c-0.8,2.3-1.7,4.6-2.6,6.8c-0.1,0.1-0.2,0.1-0.3,0.2c-1.3,1.7-2.9,3-4.6,4.1c-0.9,0.5-1.5,1.1-1.5,2.2
				C-377.8,463.7-377.8,463.7-377.8,463.8L-377.8,463.8z M-409,436.1C-409,436.1-409,436.1-409,436.1
				C-409,436.1-409,436.1-409,436.1C-409,436.1-409,436.1-409,436.1c0.9,0.8,2.3,0.7,3.4-0.3c0,0,0,0,0-0.1c0,0,0,0,0,0.1
				C-406.7,436-407.8,436.4-409,436.1z M-409.5,434.1C-409.5,434-409.5,434-409.5,434.1C-409.5,434-409.5,434.1-409.5,434.1
				c0.8,0.9,1.9,1,3,0.3C-407.4,434.2-408.5,434.2-409.5,434.1z M-370.8,433.6c-1,0.2-2,0.3-3,0.5
				C-372.6,434.8-371.5,434.6-370.8,433.6C-370.8,433.6-370.7,433.5-370.8,433.6C-370.7,433.5-370.7,433.5-370.8,433.6
				C-370.7,433.5-370.7,433.5-370.8,433.6z M-374.7,435.4C-374.7,435.4-374.7,435.4-374.7,435.4
				C-374.7,435.4-374.7,435.4-374.7,435.4C-374.7,435.4-374.7,435.4-374.7,435.4c1.1,1,2.3,1.2,3.2,0.3c0,0,0,0,0.1,0c0,0,0,0,0,0
				c0,0,0,0-0.1,0.1C-372.5,435.7-373.6,435.5-374.7,435.4z M-383.7,442.4C-383.8,442.4-383.8,442.4-383.7,442.4
				C-383.8,442.4-383.8,442.4-383.7,442.4c0.4,1.2,0.5,2.4,0.3,3.6c0,0.1-0.1,0.1-0.1,0.2c0,0,0,0,0.1,0c0-0.1,0-0.1,0.1-0.2
				C-382.3,444.9-382.5,443.4-383.7,442.4z M-401,450.3c-1.6,0.5-2.3,3.8-1.1,5.5C-402.3,453.7-402,451.9-401,450.3
				C-400.9,450.2-400.9,450.2-401,450.3C-400.9,450.2-400.9,450.2-401,450.3z M-378.4,456.9c0.1-0.1,0.3-0.2,0.3-0.4
				c1-1.5,0.4-4.1-0.9-5.7c0.2,0.7,0.4,1.2,0.6,1.7C-378,454-378.2,455.5-378.4,456.9C-378.5,456.9-378.5,457-378.4,456.9
				C-378.5,457-378.5,457-378.4,456.9C-378.5,457-378.5,456.9-378.4,456.9z M-375.7,435.1c-2.8,0.8-5.5,0.1-8.4-0.7
				c0.9,1.1,2.1,1.9,3.4,2.3C-378.9,437.2-376.9,436.6-375.7,435.1C-375.7,435.1-375.7,435-375.7,435.1
				C-375.7,435-375.7,435.1-375.7,435.1z M-403.7,435.8c-0.1,0-0.1-0.1-0.2-0.1c0,0,0,0,0,0.1C-403.8,435.7-403.8,435.8-403.7,435.8
				c0.2,0.2,0.3,0.5,0.6,0.7c1.8,1.3,3.9,1.3,5.8,0c0.6-0.4,1.2-0.9,1.8-1.4c0-0.1-0.1-0.1-0.1-0.2
				C-398.3,435.8-400.9,436.3-403.7,435.8z M-395.5,447.2c0-0.1-0.1-0.1-0.1-0.2C-395.6,447.1-395.5,447.1-395.5,447.2
				c0.3,1.2,1.2,1.6,2.2,1c0.4-0.3,0.7-0.3,1,0.1c1.2,1.9,3.5,1.9,4.7,0c0.5-0.8,1.6-0.8,2.2-0.2c0.5,0.5,0.9,0.5,1.1-0.2
				c0.2-0.4,0.1-0.9,0.1-1.3c-0.1,0-0.1,0-0.2,0c-0.2,0.2-0.4,0.5-0.5,0.7c-0.4-0.2-0.8-0.3-1.2-0.5c-1.2-0.4-1.4-0.3-2,0.8
				c-0.1,0.1-0.2,0.2-0.3,0.3c-0.9,1.1-3.1,1.2-3.8-0.4c-0.3-0.7-1-1-1.7-0.9c-0.4,0.1-0.8,0.4-1.2,0.6c0,0.1,0,0.1,0.1,0.2
				C-395.1,447.4-395.3,447.3-395.5,447.2z M-398,431.8c0.8,0.5,1.6,0.9,2.5,1.4c0,0,0.1-0.1,0.1-0.3c0.8,1.7,1.7,3.3,2.5,5
				c0.1-0.8,0.3-1.8,0.4-2.7c0.1-1.7-0.1-3.3-0.9-4.8c-0.3-0.8-0.3-1.7-0.8-2.2c-0.7-0.7-1.7-1.3-2.7-1.6c-2.3-0.8-4.8-0.8-7.2-0.5
				c-2.1,0.2-3.3,1.9-2.8,3.7c0.5,1.4,1,2.7,1.5,4.1c0.2-0.1,0.5-0.1,0.7-0.2c1-0.8,2.2-1.4,3.5-1.7c0,0.4-0.1,0.9,0,1.2
				c0.2,0.8,1.1,1.3,1.8,1.1c1-0.2,1.4-1,1.2-2.2C-398.1,431.9-398.1,431.8-398,431.8z M-374.4,433.1c0.1-0.2,0.3-0.4,0.4-0.6
				c0.4-1.1,0.8-2.2,1.2-3.4c0.5-1.7-0.6-3.4-2.6-3.7c-0.9-0.1-1.9-0.2-2.9-0.1c-2.1,0.1-4.1,0.2-6,1.3c-1.2,0.7-2,1.7-2,3.1
				c-1.2,2.5-0.9,5.2-0.4,7.8c0.2-0.4,0.3-0.8,0.4-1.2c0.7-1.3,1.3-2.5,2-3.7c0.2,0,0.4,0,0.5-0.1c0.7-0.5,1.3-0.9,2.2-1.5
				c-0.2,1.8,0.2,2.6,1.3,2.7c0.4,0,1,0,1.2-0.3c0.4-0.5,0.6-1.2,1-2.1c1.2,0.7,2.5,1.4,3.7,2.1
				C-374.4,433.3-374.4,433.2-374.4,433.1z M-398.7,454.7c1.1-0.9,2.4-1.3,3.9-1.1c1,0.1,2.2,0.4,2.9-0.4c0.8,0.1,1.4,0.2,2,0.2
				c1.5,0,3.1,0.5,4.6-0.1c1.4-0.6,2.3-0.3,3.3,0.9c0.4,0.5,0.8,1,1.2,1.5c0.7-1,0.8-1.6-0.2-2.3c-1.1-0.9-2.3-1.7-3.5-2.4
				c-0.9-0.5-2-0.9-3.1-1.2c-0.2-0.1-0.7,0.1-0.9,0.3c-0.9,0.8-2.3,0.8-3.1-0.1c-0.4-0.5-0.8-0.6-1.3-0.3c-2.1,1-4.1,2.1-6.1,3.2
				c-1,0.6-1.5,1.6-1.8,2.9c0.3-0.1,0.5-0.1,0.7-0.2c1.4,0.1,2.8,0,4.2,0.6c3.3,1.4,6.8,1.8,10.4,1.2c1.4-0.2,2.7-0.6,4.1-1
				c-0.7-0.5-1.3-0.7-2.1-0.4c-1,0.3-2.1,0.5-3.1,0.7C-390.9,457.1-394.8,455.5-398.7,454.7z M-396.3,446.2c0.2-1.3,0.4-2.7,0.6-3.9
				C-397.3,443.1-397.6,445-396.3,446.2z"/>
			<path class="st9" d="M-367.5,433.9c-0.2-2.7-0.5-5.4-0.7-8c-0.1-1.1-0.3-2-0.8-3c-0.5-1.1-0.7-2.4-0.9-3.6
				c-0.5-2.7-0.8-5.5-1.4-8.2c-0.2-1.2-0.8-2.4-1.5-3.4c-1-1.5-2.2-2.9-3.4-4.3c-0.4-0.5-1-0.8-1.6-1c-1.8-0.6-3.7-1.1-5.6-1.6
				c0.5-0.5,0.9-1.1,1.4-1.6c1.3-1.4,2.6-2.7,3.8-4.1c0.2-0.3,0.2-0.7,0.3-1.1c0.1-0.7,0.3-1.4,0.4-2.1c0.5,0.7,1,1.5,1.5,2.2
				c0.5,0.8,1,1.5,1.9,1.8c0.4,0.1,0.7,0.6,1,0.9c2,3.1,4.1,6.1,6,9.3c0.5,0.9,0.6,2.1,0.7,3.2c0.3,4.2,0.5,8.5,0.7,12.7
				c0.1,1.7,0.2,3.3,0.4,5c0,0.2,0,0.5-0.1,0.7C-366.1,429.8-366.8,431.9-367.5,433.9z"/>
			<path class="st10" d="M-367.5,433.9c0.7-2,1.4-4.1,2.1-6.1c0.1-0.2,0.1-0.5,0.1-0.7c1.4-1,2.1-0.8,2.6,0.9c0.6,2,0.6,4,0.4,6.1
				c-0.3,3.4-1.2,6.7-3.2,9.5c-0.7,0.9-1.6,1.7-2.4,2.5C-367.8,442-367.6,438-367.5,433.9z"/>
			<path class="st11" d="M-377.8,463.6c0-1.1,0.6-1.6,1.5-2.2c1.8-1.1,3.4-2.4,4.6-4.1c0.1-0.1,0.2-0.2,0.3-0.2c0,0.1,0,0.2,0,0.3
				c-1.8,3.9-4,7.4-7.6,10c-0.1,0.1-0.3,0.2-0.4,0.2c0.5-1.3,1-2.5,1.5-3.8c0,0,0,0,0,0C-377.8,463.7-377.8,463.7-377.8,463.6z"/>
			<path class="st9" d="M-404.2,401.5c-4.1,1.9-5.8,5.4-6.8,9.4c-0.8,3.2-0.8,6.4-0.7,9.6c0.1,1.2-0.1,2.3-0.7,3.3
				c-0.9,1.5-0.6,3.2-0.8,4.8c-0.2,2-0.5,3.9-0.7,5.9c-0.7-2.4-1.9-4.6-3.3-6.6c0-3.3-0.2-6.7-0.1-10c0.1-3.3,0.4-6.6,1-9.9
				c0.9-4.8,3.7-8.6,7-12.1c1.9-2.1,4-3.9,6.7-4.9c1-0.4,2.2-0.5,3.3-0.8c-0.7,1-1.4,2-2,3c-1.4,2-2.3,4.2-2.6,6.6
				C-404.1,400.4-404.1,400.9-404.2,401.5z"/>
			<path class="st10" d="M-417.3,427.9c1.5,2,2.6,4.2,3.3,6.6c0.1,2.2,0.1,4.3,0.2,6.5c0.1,2.2,0.3,4.4,0.5,6.6
				c0,0.1-0.1,0.2-0.1,0.3c-2.4-1.4-3.8-3.6-4.8-6.1c-1.6-3.9-2.1-8-1.3-12.1c0-0.2,0.1-0.5,0.2-0.7
				C-418.9,427.8-418.5,427.6-417.3,427.9z"/>
			<path class="st12" d="M-409.8,457.6c0.2,0.1,0.5,0.1,0.6,0.2c1.6,1.6,3.3,2.8,5.3,3.8c0.2,0.1,0.3,0.3,0.4,0.4
				c0.6,2.2,1.4,4.3,2.9,6c0.1,0.1,0.1,0.2,0.1,0.3c-0.6-0.5-1.3-0.9-1.7-1.5c-0.6-0.9-1.3-1.6-2.2-2.3
				C-406.7,462.6-408.3,460.2-409.8,457.6z"/>
			<path class="st11" d="M-392.2,463.2c-1.7-0.7-3-2-4-3.8c3.7,1.5,7.4,2,11.3,0.7c-1.4,1.7-3,2.7-5,3.2
				C-390.7,463.3-391.5,463.3-392.2,463.2z"/>
			<path class="st13" d="M-400.1,455.5c-0.2,0.1-0.4,0.1-0.7,0.2c0.2-1.3,0.7-2.3,1.8-2.9c2-1.1,4.1-2.1,6.1-3.2
				c0.5-0.3,0.9-0.2,1.3,0.3c0.7,0.9,2.2,0.9,3.1,0.1c0.2-0.2,0.6-0.4,0.9-0.3c1,0.3,2.1,0.7,3.1,1.2c1.2,0.7,2.4,1.5,3.5,2.4
				c0.9,0.7,0.9,1.3,0.2,2.3c-0.4-0.5-0.7-1-1.2-1.5c-1-1.2-1.9-1.4-3.3-0.9c-1.6,0.6-3.1,0.1-4.6,0.1c-0.6,0-1.3-0.1-2-0.2
				c-0.7,0.8-1.9,0.6-2.9,0.4c-1.5-0.2-2.7,0.2-3.9,1.1C-399.2,455-399.7,455.3-400.1,455.5z"/>
			<path class="st14" d="M-393.4,430.3c0.9,1.5,1,3.1,0.9,4.8c0,1-0.3,1.9-0.4,2.7c-0.8-1.6-1.7-3.3-2.5-5c0-1.5-0.4-2.1-1.8-2.3
				c-0.9-0.2-1.9-0.2-2.9-0.1c-2.2,0.2-4.3,0.9-5.3,3.2c-0.5-1.4-1-2.7-1.5-4.1c0.4-0.3,0.7-0.7,1.1-0.9c0.9-0.3,1.8-0.5,2.6-0.5
				C-399.8,428.3-396.6,429.1-393.4,430.3z"/>
			<path class="st15" d="M-384.2,432.5c-0.7,1.2-1.4,2.5-2,3.7c-0.2,0.4-0.3,0.8-0.4,1.2c-0.5-2.6-0.8-5.3,0.4-7.8
				c0.3-0.1,0.7-0.2,1-0.3c3-1,6.1-1.8,9.4-1.6c1.2,0.1,2.4,0.2,3.1,1.3c-0.4,1.1-0.8,2.2-1.2,3.4c-0.1,0.2-0.3,0.4-0.4,0.6
				c-0.6-1.5-1.7-2.4-3.2-2.7c-1.4-0.3-3-0.4-4.4-0.4C-383.8,430.1-384.3,430.8-384.2,432.5z"/>
			<path class="st16" d="M-372.8,429.1c-0.7-1.2-2-1.3-3.1-1.3c-3.2-0.2-6.3,0.6-9.4,1.6c-0.3,0.1-0.6,0.2-1,0.3
				c0-1.4,0.8-2.4,2-3.1c1.9-1.1,3.9-1.2,6-1.3c1,0,1.9,0,2.9,0.1C-373.5,425.7-372.3,427.4-372.8,429.1z"/>
			<path class="st17" d="M-393.4,430.3c-3.1-1.2-6.4-2-9.7-2c-0.9,0-1.8,0.2-2.6,0.5c-0.4,0.1-0.7,0.6-1.1,0.9
				c-0.5-1.8,0.7-3.5,2.8-3.7c2.4-0.2,4.8-0.2,7.2,0.5c1,0.3,2,0.9,2.7,1.6C-393.8,428.6-393.7,429.6-393.4,430.3z"/>
			<path class="st18" d="M-405.4,433.7c1-2.3,3-3,5.3-3.2c0.9-0.1,1.9-0.1,2.9,0.1c1.4,0.2,1.8,0.8,1.8,2.3
				c-0.1,0.1-0.1,0.3-0.1,0.3c-0.8-0.5-1.7-0.9-2.5-1.4c0,0-0.1-0.1-0.1-0.1c0,0.1,0,0.1,0,0.2c0.2,1.2-0.2,2-1.2,2.2
				c-0.8,0.2-1.6-0.3-1.8-1.1c-0.1-0.4,0-0.8,0-1.2c-1.3,0.3-2.5,0.8-3.5,1.7C-404.8,433.7-405.1,433.7-405.4,433.7z"/>
			<path class="st18" d="M-384.2,432.5c-0.1-1.8,0.4-2.5,2.2-2.5c1.5-0.1,3,0.1,4.4,0.4c1.5,0.3,2.6,1.2,3.2,2.7c0,0.1,0,0.3,0,0.3
				c-1.2-0.7-2.5-1.4-3.7-2.1c-0.4,0.8-0.6,1.5-1,2.1c-0.2,0.3-0.8,0.3-1.2,0.3c-1.1-0.1-1.5-0.9-1.3-2.7c-0.8,0.6-1.5,1.1-2.2,1.5
				C-383.9,432.5-384.1,432.5-384.2,432.5z"/>
			<path class="st19" d="M-400.1,455.5c0.5-0.3,0.9-0.6,1.4-0.8c4,0.8,7.8,2.4,12,1.9c1.1-0.1,2.1-0.3,3.1-0.7
				c0.8-0.3,1.5-0.1,2.1,0.4c-1.4,0.3-2.7,0.7-4.1,1c-3.6,0.6-7.1,0.2-10.4-1.2C-397.4,455.5-398.7,455.6-400.1,455.5z"/>
			<path class="st19" d="M-395.5,447.2c0.2,0.1,0.4,0.2,0.6,0.3c0-0.1,0-0.1-0.1-0.2c0.4-0.2,0.8-0.6,1.2-0.6
				c0.7-0.1,1.4,0.2,1.7,0.9c0.7,1.6,2.9,1.5,3.8,0.4c0.1-0.1,0.2-0.2,0.3-0.3c0.6-1.1,0.8-1.2,2-0.8c0.4,0.1,0.8,0.3,1.2,0.5
				c0.2-0.3,0.4-0.5,0.5-0.7c0.1,0,0.1,0,0.2,0c0,0.4,0,0.9-0.1,1.3c-0.2,0.6-0.7,0.7-1.1,0.2c-0.6-0.6-1.7-0.6-2.2,0.2
				c-1.2,1.9-3.5,1.9-4.7,0c-0.3-0.5-0.6-0.4-1-0.1C-394.3,448.8-395.2,448.4-395.5,447.2L-395.5,447.2z"/>
			<path class="st19" d="M-403.7,435.8c2.7,0.5,5.4,0,8-0.9c0,0.1,0.1,0.1,0.1,0.2c-0.6,0.5-1.2,1-1.8,1.4c-1.9,1.3-4,1.3-5.8,0
				C-403.4,436.3-403.5,436-403.7,435.8L-403.7,435.8z"/>
			<path class="st20" d="M-375.7,435.1c-1.2,1.5-3.2,2.1-4.9,1.6c-1.4-0.4-2.5-1.2-3.4-2.3C-381.2,435.2-378.5,435.9-375.7,435.1
				L-375.7,435.1z"/>
			<path class="st21" d="M-396.3,446.2c-1.3-1.2-1-3,0.6-3.9C-395.9,443.5-396.1,444.8-396.3,446.2z"/>
			<path class="st21" d="M-378.4,456.9c0.3-1.4,0.4-2.9,0-4.3c-0.1-0.5-0.3-1-0.6-1.7c1.4,1.6,2,4.1,0.9,5.7
				C-378.2,456.7-378.3,456.8-378.4,456.9C-378.4,456.9-378.4,456.9-378.4,456.9z"/>
			<path class="st21" d="M-400.9,450.3c-1.1,1.7-1.4,3.5-1.1,5.5C-403.2,454.1-402.6,450.8-400.9,450.3L-400.9,450.3z"/>
			<path class="st22" d="M-383.4,446c0.1-1.2,0.1-2.4-0.3-3.6l0,0C-382.5,443.4-382.3,444.9-383.4,446L-383.4,446z"/>
			<path class="st23" d="M-374.7,435.4c1.1,0.1,2.2,0.2,3.2,0.3l0,0C-372.3,436.6-373.6,436.5-374.7,435.4L-374.7,435.4z"/>
			<path class="st24" d="M-370.8,433.6c-0.7,1-1.9,1.2-3,0.5C-372.8,433.9-371.8,433.7-370.8,433.6L-370.8,433.6z"/>
			<path class="st23" d="M-409.5,434.1c1,0.1,2,0.2,3,0.3C-407.6,435-408.7,435-409.5,434.1L-409.5,434.1z"/>
			<path class="st22" d="M-405.6,435.8c-1.1,1-2.5,1.2-3.4,0.3l0,0C-407.8,436.4-406.7,436-405.6,435.8L-405.6,435.8z"/>
			<path class="st22" d="M-383.4,446c0,0.1,0,0.1-0.1,0.2c0,0-0.1,0-0.1,0C-383.5,446.1-383.4,446.1-383.4,446
				C-383.4,446-383.4,446-383.4,446z"/>
			<path class="st19" d="M-395.5,447.2c0-0.1-0.1-0.1-0.1-0.2C-395.6,447.1-395.5,447.1-395.5,447.2
				C-395.5,447.2-395.5,447.2-395.5,447.2z"/>
			<path class="st19" d="M-403.7,435.8c-0.1,0-0.1,0-0.2-0.1c0,0,0-0.1,0-0.1C-403.8,435.7-403.7,435.7-403.7,435.8
				C-403.7,435.8-403.7,435.8-403.7,435.8z"/>
			<path class="st7" d="M-377.8,463.6c0,0.1-0.1,0.1-0.1,0.2C-377.8,463.7-377.8,463.7-377.8,463.6z"/>
			<path class="st24" d="M-370.8,433.6C-370.7,433.5-370.7,433.5-370.8,433.6C-370.7,433.5-370.7,433.5-370.8,433.6
				C-370.7,433.5-370.8,433.6-370.8,433.6C-370.8,433.6-370.8,433.6-370.8,433.6z"/>
			<path class="st23" d="M-409.5,434.1C-409.5,434.1-409.5,434-409.5,434.1C-409.5,434-409.5,434-409.5,434.1
				C-409.5,434.1-409.5,434.1-409.5,434.1z"/>
			<path class="st20" d="M-375.7,435.1C-375.7,435.1-375.7,435-375.7,435.1C-375.7,435-375.7,435.1-375.7,435.1
				C-375.7,435.1-375.7,435.1-375.7,435.1z"/>
			<path class="st21" d="M-378.4,456.9C-378.5,456.9-378.5,457-378.4,456.9C-378.5,457-378.5,457-378.4,456.9
				C-378.5,457-378.5,456.9-378.4,456.9C-378.4,456.9-378.4,456.9-378.4,456.9z"/>
			<path class="st23" d="M-374.7,435.4C-374.7,435.4-374.7,435.4-374.7,435.4C-374.7,435.4-374.7,435.4-374.7,435.4
				C-374.7,435.4-374.7,435.4-374.7,435.4C-374.7,435.4-374.7,435.4-374.7,435.4z"/>
			<path class="st22" d="M-405.6,435.8C-405.5,435.8-405.5,435.7-405.6,435.8C-405.5,435.7-405.5,435.8-405.6,435.8
				C-405.6,435.8-405.6,435.8-405.6,435.8z"/>
			<path class="st23" d="M-371.5,435.8C-371.4,435.8-371.4,435.7-371.5,435.8C-371.4,435.7-371.4,435.7-371.5,435.8
				C-371.4,435.8-371.4,435.8-371.5,435.8C-371.5,435.8-371.5,435.8-371.5,435.8z"/>
			<path class="st21" d="M-401,450.3C-400.9,450.2-400.9,450.2-401,450.3C-400.9,450.2-400.9,450.2-401,450.3
				C-400.9,450.3-401,450.3-401,450.3z"/>
			<path class="st22" d="M-409,436.1C-409,436.1-409,436.1-409,436.1C-409,436.1-409,436.1-409,436.1
				C-409,436.1-409,436.1-409,436.1C-409,436.1-409,436.1-409,436.1z"/>
			<path class="st22" d="M-383.7,442.4C-383.8,442.4-383.8,442.4-383.7,442.4C-383.8,442.4-383.8,442.4-383.7,442.4
				C-383.7,442.4-383.7,442.4-383.7,442.4z"/>
			<path class="st8" d="M-398.2,431.9c0-0.1,0-0.1,0-0.2c0,0,0.1,0.1,0.1,0.1C-398.1,431.8-398.1,431.9-398.2,431.9z"/>
		</g>
	</g>
	<g>
		<path class="st0" d="M-413.2,478.8l1.5,7.3l0,0l1.5-7.3h3.1v10.3h-1.9v-8.2l0,0l-1.8,8.2h-1.6l-1.8-8.2l0,0v8.2h-1.9v-10.3H-413.2
			z"/>
		<path class="st0" d="M-405.7,483.5c0-0.5,0.1-0.8,0.2-1.1c0.1-0.3,0.3-0.5,0.6-0.7c0.2-0.2,0.5-0.3,0.9-0.4
			c0.3-0.1,0.7-0.1,1.1-0.1c0.6,0,1.1,0.1,1.4,0.2c0.4,0.1,0.6,0.3,0.9,0.5c0.2,0.2,0.3,0.5,0.4,0.8c0.1,0.3,0.1,0.6,0.1,1v4.1
			c0,0.4,0,0.6,0.1,0.8c0,0.2,0.1,0.4,0.2,0.6h-1.9c-0.1-0.1-0.1-0.3-0.2-0.4c0-0.1-0.1-0.3-0.1-0.4l0,0c-0.2,0.4-0.5,0.7-0.8,0.8
			c-0.3,0.1-0.7,0.2-1.2,0.2c-0.3,0-0.6-0.1-0.9-0.2c-0.2-0.1-0.4-0.3-0.6-0.5c-0.1-0.2-0.2-0.4-0.3-0.7c-0.1-0.3-0.1-0.5-0.1-0.8
			c0-0.4,0-0.7,0.1-0.9c0.1-0.2,0.2-0.5,0.4-0.7c0.2-0.2,0.4-0.3,0.6-0.5c0.2-0.1,0.5-0.2,0.9-0.3l1.1-0.3c0.3-0.1,0.5-0.2,0.6-0.3
			c0.1-0.1,0.2-0.3,0.2-0.6c0-0.3-0.1-0.5-0.2-0.7c-0.1-0.2-0.4-0.3-0.7-0.3c-0.3,0-0.5,0.1-0.7,0.3c-0.2,0.2-0.2,0.4-0.2,0.7v0.2
			h-1.8v-0.3H-405.7z M-402.5,485.5c-0.2,0.1-0.3,0.1-0.4,0.1c-0.4,0.1-0.7,0.2-0.9,0.4c-0.2,0.2-0.3,0.5-0.3,0.8
			c0,0.3,0.1,0.6,0.2,0.8c0.1,0.2,0.3,0.3,0.6,0.3c0.1,0,0.3,0,0.4-0.1c0.1,0,0.3-0.1,0.4-0.2s0.2-0.2,0.3-0.4
			c0.1-0.2,0.1-0.3,0.1-0.5v-1.5C-402.2,485.3-402.4,485.4-402.5,485.5z"/>
		<path class="st0" d="M-396.4,479.1v2.2h1.2v1.4h-1.2v4.2c0,0.3,0,0.5,0.1,0.7c0.1,0.2,0.3,0.2,0.6,0.2c0.1,0,0.2,0,0.2,0
			c0.1,0,0.1,0,0.2,0v1.4c-0.2,0-0.4,0-0.6,0c-0.2,0-0.4,0-0.7,0c-0.4,0-0.7,0-0.9-0.1c-0.2-0.1-0.4-0.2-0.6-0.3
			c-0.1-0.2-0.2-0.4-0.3-0.6c0-0.3-0.1-0.6-0.1-1v-4.4h-1v-1.4h1v-2.2L-396.4,479.1L-396.4,479.1z"/>
		<path class="st0" d="M-394.6,483.5c0.1-0.5,0.3-0.9,0.5-1.3c0.2-0.3,0.6-0.6,0.9-0.8c0.3-0.2,0.9-0.3,1.4-0.3
			c0.6,0,1.1,0.1,1.5,0.2c0.4,0.2,0.7,0.4,0.9,0.8c0.2,0.3,0.4,0.8,0.5,1.3s0.1,1.1,0.1,1.8c0,0.7-0.1,1.2-0.2,1.8
			c-0.1,0.5-0.3,0.9-0.5,1.3c-0.2,0.3-0.6,0.6-0.9,0.8c-0.4,0.2-0.9,0.2-1.4,0.2c-0.6,0-1.1-0.1-1.5-0.2c-0.4-0.2-0.7-0.4-0.9-0.7
			c-0.2-0.3-0.4-0.8-0.5-1.3c-0.1-0.5-0.1-1.1-0.1-1.8C-394.8,484.6-394.7,484-394.6,483.5z M-392.8,486.3c0,0.3,0.1,0.6,0.1,0.9
			c0.1,0.2,0.2,0.4,0.3,0.6c0.1,0.1,0.3,0.2,0.6,0.2c0.4,0,0.7-0.2,0.8-0.6c0.2-0.4,0.2-1.1,0.2-2.1s-0.1-1.7-0.2-2.1
			c-0.2-0.4-0.4-0.6-0.8-0.6c-0.2,0-0.4,0.1-0.6,0.2c-0.1,0.1-0.3,0.3-0.3,0.6c-0.1,0.2-0.1,0.5-0.1,0.9c0,0.3,0,0.7,0,1.1
			C-392.8,485.6-392.8,486-392.8,486.3z"/>
		<path class="st0" d="M-386.1,486.8c0,0.3,0.1,0.6,0.3,0.8c0.2,0.2,0.4,0.3,0.8,0.3c0.3,0,0.6-0.1,0.7-0.2c0.2-0.2,0.3-0.4,0.3-0.7
			c0-0.2-0.1-0.4-0.2-0.6c-0.1-0.1-0.3-0.2-0.5-0.3l-1.4-0.5c-0.5-0.2-1-0.5-1.2-0.8c-0.3-0.4-0.4-0.8-0.4-1.3
			c0-0.3,0.1-0.6,0.2-0.9s0.3-0.5,0.5-0.7c0.2-0.2,0.5-0.4,0.9-0.5c0.4-0.1,0.8-0.2,1.3-0.2c0.9,0,1.6,0.2,2,0.6
			c0.4,0.4,0.6,0.9,0.6,1.6v0.3h-1.8c0-0.4-0.1-0.7-0.2-0.9c-0.1-0.2-0.4-0.3-0.7-0.3c-0.3,0-0.5,0.1-0.7,0.2
			c-0.2,0.1-0.3,0.3-0.3,0.6c0,0.2,0.1,0.4,0.2,0.5c0.1,0.1,0.3,0.3,0.7,0.4l1.2,0.4c0.6,0.2,1.1,0.5,1.3,0.8
			c0.3,0.3,0.4,0.8,0.4,1.4c0,0.4-0.1,0.8-0.2,1.1c-0.1,0.3-0.3,0.6-0.6,0.8s-0.6,0.3-0.9,0.4c-0.4,0.1-0.7,0.1-1.2,0.1
			c-0.6,0-1-0.1-1.4-0.2c-0.4-0.1-0.7-0.3-0.9-0.5c-0.2-0.2-0.4-0.5-0.5-0.8c-0.1-0.3-0.1-0.6-0.1-1v-0.3h1.8V486.8z"/>
		<path class="st0" d="M-381.2,483.5c0-0.5,0.1-0.8,0.2-1.1c0.1-0.3,0.3-0.5,0.6-0.7c0.3-0.2,0.5-0.3,0.9-0.4
			c0.3-0.1,0.7-0.1,1.1-0.1c0.6,0,1.1,0.1,1.4,0.2c0.4,0.1,0.6,0.3,0.9,0.5c0.2,0.2,0.3,0.5,0.4,0.8c0.1,0.3,0.1,0.6,0.1,1v4.1
			c0,0.4,0,0.6,0.1,0.8c0,0.2,0.1,0.4,0.2,0.6h-1.9c-0.1-0.1-0.1-0.3-0.2-0.4c0-0.1-0.1-0.3-0.1-0.4l0,0c-0.2,0.4-0.5,0.7-0.8,0.8
			c-0.3,0.1-0.7,0.2-1.2,0.2c-0.3,0-0.6-0.1-0.9-0.2c-0.2-0.1-0.4-0.3-0.6-0.5c-0.1-0.2-0.2-0.4-0.3-0.7c-0.1-0.3-0.1-0.5-0.1-0.8
			c0-0.4,0-0.7,0.1-0.9c0.1-0.2,0.2-0.5,0.4-0.7c0.2-0.2,0.4-0.3,0.6-0.5c0.2-0.1,0.5-0.2,0.9-0.3l1.1-0.3c0.3-0.1,0.5-0.2,0.6-0.3
			c0.1-0.1,0.2-0.3,0.2-0.6c0-0.3-0.1-0.5-0.2-0.7c-0.1-0.2-0.4-0.3-0.7-0.3c-0.3,0-0.5,0.1-0.7,0.3c-0.2,0.2-0.2,0.4-0.2,0.7v0.2
			h-1.8v-0.3H-381.2z M-378,485.5c-0.2,0.1-0.3,0.1-0.4,0.1c-0.4,0.1-0.7,0.2-0.9,0.4c-0.2,0.2-0.3,0.5-0.3,0.8
			c0,0.3,0.1,0.6,0.2,0.8c0.1,0.2,0.3,0.3,0.6,0.3c0.1,0,0.3,0,0.4-0.1c0.1,0,0.3-0.1,0.4-0.2c0.1-0.1,0.2-0.2,0.3-0.4
			s0.1-0.3,0.1-0.5v-1.5C-377.7,485.3-377.9,485.4-378,485.5z"/>
		<path class="st0" d="M-372.8,486.8c0,0.3,0.1,0.6,0.3,0.8c0.2,0.2,0.4,0.3,0.8,0.3c0.3,0,0.6-0.1,0.7-0.2c0.2-0.2,0.3-0.4,0.3-0.7
			c0-0.2-0.1-0.4-0.2-0.6c-0.1-0.1-0.3-0.2-0.5-0.3l-1.4-0.5c-0.5-0.2-1-0.5-1.2-0.8c-0.3-0.4-0.4-0.8-0.4-1.3
			c0-0.3,0.1-0.6,0.2-0.9c0.1-0.3,0.3-0.5,0.5-0.7c0.2-0.2,0.5-0.4,0.9-0.5c0.4-0.1,0.8-0.2,1.3-0.2c0.9,0,1.6,0.2,2,0.6
			c0.4,0.4,0.6,0.9,0.6,1.6v0.3h-1.8c0-0.4-0.1-0.7-0.2-0.9c-0.1-0.2-0.4-0.3-0.7-0.3c-0.3,0-0.5,0.1-0.7,0.2
			c-0.2,0.1-0.3,0.3-0.3,0.6c0,0.2,0.1,0.4,0.2,0.5c0.1,0.2,0.3,0.3,0.7,0.4l1.2,0.4c0.6,0.2,1.1,0.5,1.3,0.8
			c0.3,0.3,0.4,0.8,0.4,1.4c0,0.4-0.1,0.8-0.2,1.1c-0.1,0.3-0.3,0.6-0.6,0.8c-0.3,0.2-0.6,0.3-0.9,0.4c-0.4,0.1-0.7,0.1-1.2,0.1
			c-0.6,0-1-0.1-1.4-0.2c-0.4-0.1-0.7-0.3-0.9-0.5c-0.2-0.2-0.4-0.5-0.5-0.8c-0.1-0.3-0.1-0.6-0.1-1v-0.3h1.8V486.8L-372.8,486.8z"
			/>
	</g>
</g>
</svg>
