<?xml version="1.0" encoding="utf-8"?>
<!-- Generator: Adobe Illustrator 19.1.0, SVG Export Plug-In . SVG Version: 6.00 Build 0)  -->
<!DOCTYPE svg PUBLIC "-//W3C//DTD SVG 1.1//EN" "http://www.w3.org/Graphics/SVG/1.1/DTD/svg11.dtd">
<svg version="1.1" id="Layer_1" xmlns="http://www.w3.org/2000/svg" xmlns:xlink="http://www.w3.org/1999/xlink" x="0px" y="0px"
	 viewBox="0 0 105 157" style="enable-background:new 0 0 105 157;" xml:space="preserve">
<style type="text/css">
	.st0{fill:#FCFCFC;}
	.st1{fill:#C4C4C4;}
	.st2{fill:#E8E8E8;}
	.st3{fill:#141414;}
	.st4{fill:#B71515;}
</style>
<g>
	<polygon class="st0" points="94.7,0 7.8,0 3,153.4 101,153.4 	"/>
	<polygon class="st1" points="98.7,157 5.8,157 2.9,153.4 101,153.4 	"/>
	<rect x="14.2" y="4.9" class="st2" width="71.7" height="16.3"/>
	<rect x="26.2" y="9.4" class="st3" width="49" height="8.2"/>
	<path class="st4" d="M94.8,20.6H83c-1.4,0-2.5-1.1-2.5-2.5V15c0-1.4,1.1-2.5,2.5-2.5h11.8c1.4,0,2.5,1.1,2.5,2.5v3.1
		C97.3,19.5,96.2,20.6,94.8,20.6z"/>
	<path class="st4" d="M17.2,20.2h-12c-1.4,0-2.5-1.1-2.5-2.5v-3.1c0-1.4,1.1-2.5,2.5-2.5h12c1.4,0,2.5,1.1,2.5,2.5v3.1
		C19.7,19,18.6,20.2,17.2,20.2z"/>
</g>
</svg>
